<svg xmlns="http://www.w3.org/2000/svg" xmlns:xlink="http://www.w3.org/1999/xlink" viewBox="0 0 1914.08 2397.33"><defs><style>.cls-1{fill:none;}.cls-2{clip-path:url(#clip-path);}.cls-3{fill:url(#Áåçûìÿííûé_ãðàäèåíò_5);}.cls-4{fill:#ffb56e;}.cls-5{fill:url(#Áåçûìÿííûé_ãðàäèåíò_3);}.cls-6{fill:url(#Áåçûìÿííûé_ãðàäèåíò_27);}.cls-7{fill:#0a3661;}.cls-8{fill:url(#Áåçûìÿííûé_ãðàäèåíò_27-2);}.cls-9{fill:url(#Áåçûìÿííûé_ãðàäèåíò_17);}.cls-10{fill:url(#Áåçûìÿííûé_ãðàäèåíò_2);}.cls-11{fill:url(#Áåçûìÿííûé_ãðàäèåíò_3-2);}.cls-12{fill:#ffa995;}.cls-13{fill:url(#Áåçûìÿííûé_ãðàäèåíò_3-3);}</style><clipPath id="clip-path"><path class="cls-1" d="M1420.26,232.42s105.54-71,79.07-153.18C1461.59-38,1314.32-.23,1251.87,35.53s-240.36,31.79-320.26,4S736.48,99.1,696.75,174.59,557.69,155.15,510,232.42s-75.54,121,45.67,160.7S691.17,365.31,785.34,409s193.51,31.79,304.76-51.65S1317.34,214.75,1420.26,232.42Z"/></clipPath><linearGradient id="Áåçûìÿííûé_ãðàäèåíò_5" x1="469.33" y1="216.94" x2="1503.59" y2="216.94" gradientUnits="userSpaceOnUse"><stop offset="0" stop-color="#ff830e"/><stop offset="0.22" stop-color="#fa7d12"/><stop offset="0.53" stop-color="#ed6b1e"/><stop offset="0.88" stop-color="#d74e32"/><stop offset="1" stop-color="#cf4339"/></linearGradient><linearGradient id="Áåçûìÿííûé_ãðàäèåíò_3" x1="1092.3" y1="1333.57" x2="1368.49" y2="1333.57" gradientUnits="userSpaceOnUse"><stop offset="0" stop-color="#55423d"/><stop offset="0.34" stop-color="#503d37"/><stop offset="0.81" stop-color="#412f25"/><stop offset="1" stop-color="#39281c"/></linearGradient><linearGradient id="Áåçûìÿííûé_ãðàäèåíò_27" x1="603.75" y1="1255.52" x2="587.19" y2="1531.52" gradientUnits="userSpaceOnUse"><stop offset="0" stop-color="#ff8469"/><stop offset="1" stop-color="#ffa995"/></linearGradient><linearGradient id="Áåçûìÿííûé_ãðàäèåíò_27-2" x1="1321.33" y1="454.04" x2="1623.09" y2="638.04" xlink:href="#Áåçûìÿííûé_ãðàäèåíò_27"/><linearGradient id="Áåçûìÿííûé_ãðàäèåíò_17" x1="1492.16" y1="475.37" x2="1012.16" y2="927.37" gradientUnits="userSpaceOnUse"><stop offset="0" stop-color="#cf4339"/><stop offset="0.22" stop-color="#cc3d39"/><stop offset="0.51" stop-color="#c52b39"/><stop offset="0.86" stop-color="#ba0e39"/><stop offset="1" stop-color="#b40039"/></linearGradient><linearGradient id="Áåçûìÿííûé_ãðàäèåíò_2" x1="1298.26" y1="966.98" x2="770.26" y2="1138.98" gradientUnits="userSpaceOnUse"><stop offset="0" stop-color="#3b5e81"/><stop offset="0.27" stop-color="#35597d"/><stop offset="0.63" stop-color="#234a71"/><stop offset="1" stop-color="#0a3661"/></linearGradient><linearGradient id="Áåçûìÿííûé_ãðàäèåíò_3-2" x1="0" y1="1395.08" x2="282.52" y2="1395.08" xlink:href="#Áåçûìÿííûé_ãðàäèåíò_3"/><linearGradient id="Áåçûìÿííûé_ãðàäèåíò_3-3" x1="1333.2" y1="1975.03" x2="1784.29" y2="1975.03" xlink:href="#Áåçûìÿííûé_ãðàäèåíò_3"/></defs><g id="Camada_2" data-name="Camada 2"><g id="Ñëîé_1" data-name="Ñëîé 1"><g class="cls-2"><path class="cls-3" d="M1420.26,232.42s105.54-71,79.07-153.18C1461.59-38,1314.32-.23,1251.87,35.53s-240.36,31.79-320.26,4S736.48,99.1,696.75,174.59,557.69,155.15,510,232.42s-75.54,121,45.67,160.7S691.17,365.31,785.34,409s193.51,31.79,304.76-51.65S1317.34,214.75,1420.26,232.42Z"/></g><path class="cls-4" d="M1294.6,1472l95.12,146.81s64.06-9.19,56.45-31-93.51-156.28-93.51-156.28S1270.68,1435.07,1294.6,1472Z"/><path class="cls-5" d="M1100.42,1231.44s-30.28,73.12,26.12,156.68,137.47,114.32,179.67,96.1c47.52-20.53,89.83-37.61,39.69-165S1207.94,1123.58,1100.42,1231.44Z"/><path class="cls-4" d="M1113.68,1287.16s75.54,78,92.25,75.89,43.87-23.62,52.23-37.92S1170,1184.05,1170,1184.05,1072.92,1247.61,1113.68,1287.16Z"/><path class="cls-6" d="M810.7,1076S705.74,1527.6,695,1585.19c-11.91,64.06-451.68-207.35-474-232.7s-86.35-12.13,0,96.85,454,416.11,587.66,354.83,223.12-682,223.12-682Z"/><path class="cls-7" d="M875.52,839.69s-122.22,132.7-130.58,389c0,0,241.52,189.41,483.05-32.41L1073.08,898.63Z"/><path class="cls-8" d="M1218.33,320.79s-37.69,15.59,29.56,129.07c57.25,96.6,175.46,259.46,216.22,294.13,38.77,33,144.84,43.47,339.75-79.85,75.53-47.79,60.41-102.75,30.71-92.85-208.9,69.63-290.74,110.44-313.52,62.34C1483.61,554.58,1324.39,218.5,1218.33,320.79Z"/><path class="cls-9" d="M1332.78,299.87a120.81,120.81,0,0,1,10.56-41.11,235,235,0,0,1-30.63-24,195.13,195.13,0,0,1-30-36.25c-11.75,16-28.12,34.53-51.06,53.78-8.19,7-17.22,14-27.16,21C1099.89,347.09,1073,417,1025.93,590.17,996.85,697.3,928.08,761.73,875.52,839.69c-32.42,48.14-58.58,101.45-65.43,173.23-17.8,187.85,143.76,319.63,143.76,319.63s237.87-12,336.23-223.7c0,0-135.71-183.67-135.71-235.31s78.05-182.51,91.92-188,158.77-22.31,144.9-161.61C1380.66,418.53,1328.52,364.13,1332.78,299.87Z"/><path class="cls-10" d="M1290.08,1108.85c-98.36,211.75-336.23,223.7-336.23,223.7s-161.56-131.78-143.76-319.63c6.85-71.78,33-125.09,65.43-173.23a.26.26,0,0,1,.17-.08s72.61,119,278.68,33.93C1154.37,925.18,1290.08,1108.85,1290.08,1108.85Z"/><path class="cls-11" d="M163.53,1324.94c-31.6,23.07-73.94,31.27-111.4,53s-60.84,105-49.07,115.64,55.11-59.6,88.06-57c21.78,1.74,78.31,4.74,114.22,6.5,6.22-4.91,9.75-7.81,9.75-7.81l3.92,8.54.44,1,.63,1.35,0-.08c.08-.33.27-1.08.53-2.16,2.09-8.21,12.82-35.94,61.87-49.44C262,1246.69,195.13,1301.86,163.53,1324.94Z"/><path class="cls-12" d="M1300.67,148.77s-27.81-15.89-34.76,5,13.91,49.66,22.85,55.62-1,64.56,80.45,81.45c36.15,7.49,82.45-135.75,82.45-147.84s-24.84,5.8-63.37,8.71c-20.8,1.57-38.94,4-52.85,8S1300.67,148.77,1300.67,148.77Z"/><path class="cls-12" d="M1263,298.31s-16.71-37.2-128.13,33.43c-94.83,60.12-278.54,189.41-312,231.19s-36.21,158.77,0,412.25c0,0,16.71,66.85,50.14,13.92s19.5-296,52.92-337.4S1402.3,432,1263,298.31Z"/><path class="cls-12" d="M822.93,975.18s-29.94,28.55,0,64.06,55.06,9.88,54.34-2.77c-5.59-97.5,6.71,5,25.51-3.3s-17.38-80.25-17.38-80.25Z"/><path class="cls-12" d="M1844,633.64s36.33,19.81,61-19.54-7.39-55.44-19.21-50.9c-91.16,35.06,2.76-7.93-10.94-23.29s-71.11,41-71.11,41Z"/><path class="cls-12" d="M1299.15,172.78c-10.69,19.78-30.8,48.68-67.48,79.46,13.87,16.63,43.45,40.53,101.11,47.63,1.42-20.63,8.61-42.36,24.9-67l-3.88-34.5A136.18,136.18,0,0,1,1299.15,172.78Z"/><path class="cls-13" d="M1780.43,2336.56c-20.89,41.78-43.87,41.78-135.79,18.8s-89.83,46-148.33,41.79c-56.74-4-44.7-112.15-40.11-147.33.17-1.08.25-2.17.42-3.09,2.17-16-8.44-46-25.82-85.57-16.46-37.6-38.94-84-62.34-135.87-48-106.54-46-79.47,0-133.79s22.56-99.1,13-135.7c-12.87-49-57.49-9.44-46-52.23,17.47-65.1,87.08-173.73,131-146.57s58.49,142.06,58.49,142.06.42,301.41,8.36,438.37c1.84,32.26,4.09,55.4,6.93,63.34,3,8.53,9.61,16.63,18.55,24.49,35,30.83,106,57.07,136,82.06C1732.38,2338.65,1801.32,2294.78,1780.43,2336.56Z"/><path class="cls-4" d="M1558.73,2225.26S1526,2260,1456.2,2249.82c.17-1.08.25-2.17.42-3.09,2.17-16-8.44-46-25.82-85.57,22.64.5,60-2.92,102.45-23.73,1.84,32.26,4.09,55.4,6.93,63.34C1543.19,2209.3,1549.79,2217.4,1558.73,2225.26Z"/></g></g></svg>