<svg xmlns="http://www.w3.org/2000/svg" viewBox="0 0 319.68 229.62"><defs><style>.cls-1{fill:#d4555f;}.cls-2{fill:#f1625c;}.cls-3{fill:#ede0d8;}.cls-4{fill:#f7f4eb;}.cls-5{fill:#173142;}.cls-6{fill:#dbcfc8;}.cls-7{fill:#34617d;}.cls-8{fill:#21465e;}.cls-9{fill:#f3ad5e;}.cls-10{fill:#1a374a;}.cls-11{fill:#e0a38b;}.cls-12{fill:#ebb19b;}.cls-13{fill:#5c4b51;}</style></defs><g id="Camada_2" data-name="Camada 2"><g id="Layer_1" data-name="Layer 1"><polygon class="cls-1" points="163.56 89.36 172.37 101.87 198.11 112.88 204.76 112.38 205.63 108.54 205.63 105.74 163.56 86.56 163.56 89.36"/><polygon class="cls-1" points="114.45 117.71 123.27 130.22 149.01 141.23 155.66 140.73 156.53 136.89 156.53 134.09 114.45 114.91 114.45 117.71"/><polygon class="cls-2" points="163.56 86.56 172.37 95.22 198.11 110.08 204.76 109.58 205.63 105.74 179.89 90.88 164.89 85.79 163.56 86.56"/><polygon class="cls-3" points="0.67 17.03 110.2 103.07 178.24 142.88 288.44 182.39 287.6 179.27 0 13.54 0.67 17.03"/><polygon class="cls-4" points="120.48 98.86 172.6 128.95 287.6 179.27 289.28 178.3 202.13 111.9 150.01 81.81 2.24 12.25 0 13.54 120.48 98.86"/><polygon class="cls-3" points="118.57 73.65 112.45 77.18 106.34 80.71 126.5 99.41 169.68 124.34 193.18 130.16 198.7 126.97 198.7 126.97 204.22 123.78 194.14 110.22 150.97 85.29 118.57 73.65"/><polygon class="cls-2" points="114.45 114.91 123.27 123.57 149.01 138.44 155.66 137.93 156.53 134.09 130.78 119.23 115.78 114.14 114.45 114.91"/><polygon class="cls-5" points="289.28 178.3 288.44 182.39 287.6 179.27 289.28 178.3"/><polygon class="cls-5" points="121.37 70.48 115.72 73.74 110.07 77 128.7 94.28 168.58 117.31 190.29 122.69 195.39 119.74 195.39 119.74 200.49 116.8 191.18 104.26 151.29 81.24 121.37 70.48"/><polygon class="cls-6" points="204.22 123.78 200.49 116.8 190.29 122.69 193.18 130.16 204.22 123.78"/><polygon class="cls-6" points="110.07 77 106.34 80.71 126.5 99.41 128.7 94.28 110.07 77"/><path class="cls-4" d="M191.18,104.26l-39.89-23L121.37,70.48l-5.65,3.26L110.07,77,128.7,94.28l39.88,23,21.71,5.38,5.1-3h0l5.1-2.94ZM194.4,118,190,120.56l-20.66-5.12L129.89,92.67,113.41,77.38l3.31-1.91,4.84-2.8,28.89,10.38,39.37,22.73,7.74,10.41Z"/><polygon class="cls-7" points="287.6 179.27 289.28 178.3 276.64 168.67 274.64 169.83 270.92 171.97 287.6 179.27"/><polygon class="cls-7" points="2.24 12.25 0 13.54 25.92 31.9 29.82 29.64 29.82 29.64 34.03 27.21 2.24 12.25"/><polygon class="cls-8" points="27.05 37.75 25.92 31.9 0 13.54 0.67 17.03 27.05 37.75"/><polygon class="cls-8" points="270.92 171.97 272.16 176.56 288.44 182.39 287.6 179.27 270.92 171.97"/><path class="cls-7" d="M135.49,127.53a1.23,1.23,0,0,1-1.24-1.24V105.13a1.22,1.22,0,0,1,.62-1.07,1.2,1.2,0,0,1,1.24,0l3.63,2.09,2.88-1.65a1.24,1.24,0,0,1,1.23,2.16l-3.5,2a1.25,1.25,0,0,1-1.24,0l-2.38-1.37v19A1.23,1.23,0,0,1,135.49,127.53Z"/><path class="cls-7" d="M184.6,99.4a1.24,1.24,0,0,1-1.25-1.24V77a1.24,1.24,0,0,1,.62-1.07,1.22,1.22,0,0,1,1.25,0L188.84,78l2.88-1.65A1.25,1.25,0,0,1,193,78.53l-3.5,2a1.25,1.25,0,0,1-1.24,0l-2.38-1.37v19A1.24,1.24,0,0,1,184.6,99.4Z"/><path class="cls-9" d="M319.61,44.41s-7.38-8.12-7.56-8.3a1.55,1.55,0,0,0-1.54-.39l-19.26,6.16a18.11,18.11,0,0,0-3.94,1.7c-1.16.67-6.14,4.16-11.11,5.82L170.86,80.79a1.24,1.24,0,1,0,.71,2.38L188.84,78h0l2.88-1.65a1.25,1.25,0,0,1,1.6.32l83.59-24.91a15.5,15.5,0,0,1,7-.44l7.38,1.22a18.33,18.33,0,0,0,8.23-.51l19.05-5.71A1.55,1.55,0,0,0,319.61,44.41Z"/><path class="cls-10" d="M143.23,74.36s3.07,1.77,7.83,4.24,16.38,11.48,18.31,15.16,1.87,7.21,1.35,8-6.65,5.7-6.65,5.7L141.51,87.24s-1.33-7.38-1.29-7.64S143.23,74.36,143.23,74.36Z"/><path class="cls-8" d="M153.24,95.66c-2.61-2.34-9.36-8.41-10.32-9.23-.54-.47-1.19-3.77-1.73-6.71l-6.9-2.47c-4.66,2.08-10.82,5.1-13.88,6.62l9.48,8.8,31.33,18.08a7.31,7.31,0,0,0,2.85-3.25C165.5,103.82,155.84,98,153.24,95.66Z"/><path class="cls-7" d="M167.58,48.57a19.41,19.41,0,0,0,1.53,5.26c1.21,2.58,11.54,16.7,11.54,16.7l4.12-1s-3.72-12.19-4.6-15-5.65-8.87-5.65-8.87Z"/><path class="cls-7" d="M156.6,27.28s2.74,1.08,3.55,2.92,7.91,7.25,10.25,10.63a22.83,22.83,0,0,0,4.12,4.77,7.87,7.87,0,0,1-6.38,3.06s-5.49-.8-7.75-2.66-5.89-7.42-7.42-8,0-10.69,0-10.69Z"/><path class="cls-1" d="M138,28.2s-6,2.55-8.23,3.43-11.71,5.17-13,7.84.08,21.86.49,24.77,1.21,20.58,1.21,20.58,16.78,3.47,21.47,0a20.35,20.35,0,0,0,6.37-7.43s-.24-8.63-.48-10.41-.41-6.7.48-7.66,4.6-2.42,6.05-7.27,1-19.93,1-19.93Z"/><path class="cls-11" d="M140.69,23.16a3.72,3.72,0,0,1-.92,3.07,12.31,12.31,0,0,0-1.73,2,21.19,21.19,0,0,0,4.2,6.66c3.14,3.51,6,2.79,6.94,1.82a48.38,48.38,0,0,0,3.22-4.8l-9.76-9Z"/><path class="cls-11" d="M180.55,70.4A21.14,21.14,0,0,0,179,73.84c-.32,1.24.31,2.53.77,4.58s.28,2.69,1.17,2.69,2.36.64,4.68.27,4.33-1.38,5-3.12-1.48-4-2.44-5.17-3.39-3.6-3.39-3.6A5.56,5.56,0,0,0,180.55,70.4Z"/><path class="cls-12" d="M161.28,20.66a1.24,1.24,0,0,1,.32-1.35c.65-.59,1.24-1.5.7-5.75A14.73,14.73,0,0,0,149.18,1.29C140.62.48,135.94,9.36,139,17.11s3.82,6.45,3.82,6.45.76,5.87,4.31,7.43,6.88,4.09,9.52,2.64,1.24-2.75,2.42-5A16.78,16.78,0,0,0,161.28,20.66Z"/><path class="cls-9" d="M144,95.08a1.23,1.23,0,0,0-1.71.4l-58,93.34a15.66,15.66,0,0,1-5,5l-6.34,4a18.34,18.34,0,0,0-5.82,5.84L56.59,220.48a1.55,1.55,0,0,0,.5,2.14L68,229.39a1.55,1.55,0,0,0,2.13-.5L80.64,212a18.46,18.46,0,0,0,2.67-7.81l.76-7.44a15.56,15.56,0,0,1,2.27-6.63l58-93.35A1.25,1.25,0,0,0,144,95.08Z"/><path class="cls-12" d="M129.71,100.08l5-1.13c1.9-.42,5.55,3.08,7.33,3.85s3.63,1.3,2.23,2.1-2.27.92-2.53,1.41-.94,3-2.48,4.28-3.61,3.38-5,3.45-3.74-2.06-4.9-3.41-4.16-5.79-4.16-5.79S127.13,102.67,129.71,100.08Z"/><path class="cls-7" d="M108.48,71.22s-.19,4.58,2.26,7.29,14.49,26.33,14.49,26.33,3.66,0,4.48-4.76c0,0-2.06-7.31-3-11.47s-7.19-18.52-7.19-18.52Z"/><path class="cls-7" d="M126,36.06s-6.8-1.09-9.6,4-6.25,17.92-7,23.14a76,76,0,0,0-.91,8s6.11,2.91,11.07-1.13c0,0,4.07-6.36,5.51-11.4s5.29-10,5.81-13.15S129.89,37.52,126,36.06Z"/><path class="cls-7" d="M141.57,19.82s5.84-.9,9.48-3.2,4.95.54,13.54-.7-3-5-3-5S159.46-1.53,146,.16,136.26,18,138.83,19.82Z"/><path class="cls-12" d="M142.48,19s-1.62-2.78-3.15-2.38-1.57,3.51-.57,4.89,2.59,3.27,3.31,3.27,1.3-.29,1.21-1.5S143,19.76,142.48,19Z"/><path class="cls-13" d="M142.72,19.6A10.59,10.59,0,0,1,143,21c1.41.9,2.91,1.73,3.22,0a4,4,0,0,1,2.17-3.08h0A33.29,33.29,0,0,1,142.72,19.6Z"/><path class="cls-1" d="M149.36,17.43a16.51,16.51,0,0,0,1.87-1c3.63-2.3,5,.53,13.55-.7s-2.95-5-2.95-5-4.87.5-7.65,3.1A22.2,22.2,0,0,1,149.36,17.43Z"/></g></g></svg>