<svg xmlns="http://www.w3.org/2000/svg" xmlns:xlink="http://www.w3.org/1999/xlink" viewBox="0 0 133.1 125.76"><defs><style>.cls-1{fill:none;}.cls-2{isolation:isolate;}.cls-3{fill:url(#radial-gradient);}.cls-4{fill:url(#radial-gradient-2);}.cls-22,.cls-23,.cls-5{opacity:0.6;}.cls-6,.cls-63{fill:#c1396a;}.cls-17,.cls-26,.cls-59,.cls-7{fill:#ff9e01;}.cls-8{fill:url(#linear-gradient);}.cls-9{fill:url(#linear-gradient-2);}.cls-10{fill:url(#linear-gradient-3);}.cls-11{fill:url(#linear-gradient-4);}.cls-12{fill:url(#linear-gradient-5);}.cls-13{fill:url(#linear-gradient-6);}.cls-14{fill:url(#linear-gradient-7);}.cls-15{fill:url(#linear-gradient-8);}.cls-16{fill:url(#linear-gradient-9);}.cls-17,.cls-28,.cls-49{opacity:0.2;}.cls-18,.cls-40,.cls-49{fill:#010a20;}.cls-18,.cls-19,.cls-21,.cls-26,.cls-29,.cls-32,.cls-33,.cls-35,.cls-60,.cls-61,.cls-62,.cls-63,.cls-64,.cls-65,.cls-67,.cls-71{opacity:0.5;}.cls-19{fill:#fd9c7d;}.cls-20{fill:url(#linear-gradient-10);}.cls-21,.cls-28,.cls-31{fill:#fff;}.cls-22{fill:#860415;}.cls-23{fill:url(#linear-gradient-11);}.cls-24{fill:url(#linear-gradient-12);}.cls-25,.cls-44{opacity:0.4;}.cls-25,.cls-44,.cls-50,.cls-51,.cls-79,.cls-80,.cls-81,.cls-83,.cls-85,.cls-87,.cls-89,.cls-91,.cls-93,.cls-95,.cls-97,.cls-99{mix-blend-mode:screen;}.cls-25{fill:url(#linear-gradient-13);}.cls-27{fill:#821702;}.cls-27,.cls-59,.cls-72,.cls-74,.cls-75{opacity:0.3;}.cls-29{fill:#5db7bb;}.cls-30,.cls-48,.cls-60{fill:#873617;}.cls-31,.cls-79,.cls-80{opacity:0.1;}.cls-32{fill:#092828;}.cls-33{fill:#feb25e;}.cls-34{fill:url(#linear-gradient-14);}.cls-35{fill:#311874;}.cls-36{fill:url(#linear-gradient-15);}.cls-37{fill:url(#linear-gradient-16);}.cls-38{fill:url(#linear-gradient-17);}.cls-39{fill:url(#linear-gradient-18);}.cls-40{opacity:0.7;}.cls-41{fill:url(#linear-gradient-19);}.cls-42,.cls-43,.cls-47,.cls-52,.cls-53,.cls-54,.cls-55,.cls-56,.cls-58{mix-blend-mode:multiply;}.cls-42{fill:url(#linear-gradient-20);}.cls-43{fill:url(#linear-gradient-21);}.cls-44{fill:url(#linear-gradient-22);}.cls-45{fill:url(#linear-gradient-23);}.cls-46{fill:url(#linear-gradient-24);}.cls-47{fill:url(#linear-gradient-25);}.cls-48{opacity:0.8;}.cls-50,.cls-51{fill:#74483b;}.cls-50{opacity:0.08;}.cls-51{opacity:0.04;}.cls-52{opacity:0.58;fill:url(#linear-gradient-26);}.cls-53,.cls-54,.cls-55,.cls-56{opacity:0.28;}.cls-53{fill:url(#linear-gradient-27);}.cls-54{fill:url(#linear-gradient-28);}.cls-55{fill:url(#linear-gradient-29);}.cls-56{fill:url(#linear-gradient-30);}.cls-57{fill:url(#linear-gradient-31);}.cls-58{fill:url(#linear-gradient-32);}.cls-61{fill:#5db15e;}.cls-62{fill:#5d8d00;}.cls-64{fill:#16a29f;}.cls-65{fill:#01000e;}.cls-66{fill:url(#linear-gradient-33);}.cls-67{fill:#ad3564;}.cls-68{fill:url(#linear-gradient-34);}.cls-69{fill:url(#linear-gradient-35);}.cls-70{fill:url(#linear-gradient-36);}.cls-71{fill:url(#linear-gradient-37);}.cls-72{fill:url(#linear-gradient-38);}.cls-73{fill:url(#linear-gradient-39);}.cls-74{fill:url(#linear-gradient-40);}.cls-75{fill:url(#linear-gradient-41);}.cls-76{fill:url(#linear-gradient-42);}.cls-77{fill:url(#linear-gradient-43);}.cls-78{fill:url(#linear-gradient-44);}.cls-79{fill:url(#linear-gradient-45);}.cls-80{fill:url(#linear-gradient-46);}.cls-81{fill:url(#radial-gradient-3);}.cls-100,.cls-82,.cls-84,.cls-86,.cls-88,.cls-90,.cls-92,.cls-94,.cls-96,.cls-98{mix-blend-mode:color-dodge;}.cls-82{fill:url(#radial-gradient-4);}.cls-83{fill:url(#radial-gradient-5);}.cls-84{fill:url(#radial-gradient-6);}.cls-85{fill:url(#radial-gradient-7);}.cls-86{fill:url(#radial-gradient-8);}.cls-87{fill:url(#radial-gradient-9);}.cls-88{fill:url(#radial-gradient-10);}.cls-89{fill:url(#radial-gradient-11);}.cls-90{fill:url(#radial-gradient-12);}.cls-91{fill:url(#radial-gradient-13);}.cls-92{fill:url(#radial-gradient-14);}.cls-93{fill:url(#radial-gradient-15);}.cls-94{fill:url(#radial-gradient-16);}.cls-95{fill:url(#radial-gradient-17);}.cls-96{fill:url(#radial-gradient-18);}.cls-97{fill:url(#radial-gradient-19);}.cls-98{fill:url(#radial-gradient-20);}.cls-99{fill:url(#radial-gradient-21);}.cls-100{fill:url(#radial-gradient-22);}.cls-101{clip-path:url(#clip-path);}.cls-102{fill:url(#linear-gradient-47);}.cls-103{fill:url(#linear-gradient-48);}</style><radialGradient id="radial-gradient" cx="11.72" cy="10.42" r="147.7" gradientUnits="userSpaceOnUse"><stop offset="0" stop-color="#004a8f"/><stop offset="0.16" stop-color="#00488b"/><stop offset="0.32" stop-color="#00417e"/><stop offset="0.5" stop-color="#003668"/><stop offset="0.68" stop-color="#002649"/><stop offset="0.86" stop-color="#001223"/><stop offset="1"/></radialGradient><radialGradient id="radial-gradient-2" cx="11.72" cy="10.42" r="147.7" xlink:href="#radial-gradient"/><linearGradient id="linear-gradient" x1="-2002.55" y1="-1882.21" x2="-2001.7" y2="-1882.21" gradientTransform="translate(-1244.06 2466.21) rotate(74.26)" gradientUnits="userSpaceOnUse"><stop offset="0" stop-color="#361d57"/><stop offset="1" stop-color="#1e0642"/></linearGradient><linearGradient id="linear-gradient-2" x1="-3458.31" y1="2396.41" x2="-3457.45" y2="2396.41" gradientTransform="matrix(-0.73, -0.69, 0.69, -0.73, -4130.78, -547.38)" xlink:href="#linear-gradient"/><linearGradient id="linear-gradient-3" x1="-3477.76" y1="2390.19" x2="-3476.9" y2="2390.19" gradientTransform="matrix(-0.73, -0.69, 0.69, -0.73, -4130.78, -547.38)" xlink:href="#linear-gradient"/><linearGradient id="linear-gradient-4" x1="-3494.43" y1="2418.15" x2="-3493.58" y2="2418.15" gradientTransform="matrix(-0.73, -0.69, 0.69, -0.73, -4130.78, -547.38)" xlink:href="#linear-gradient"/><linearGradient id="linear-gradient-5" x1="-3486.64" y1="2439.19" x2="-3485.79" y2="2439.19" gradientTransform="matrix(-0.73, -0.69, 0.69, -0.73, -4130.78, -547.38)" xlink:href="#linear-gradient"/><linearGradient id="linear-gradient-6" x1="-3484.44" y1="2481.85" x2="-3483.58" y2="2481.85" gradientTransform="matrix(-0.73, -0.69, 0.69, -0.73, -4130.78, -547.38)" xlink:href="#linear-gradient"/><linearGradient id="linear-gradient-7" x1="-3461" y1="2480.87" x2="-3460.15" y2="2480.87" gradientTransform="matrix(-0.73, -0.69, 0.69, -0.73, -4130.78, -547.38)" xlink:href="#linear-gradient"/><linearGradient id="linear-gradient-8" x1="-3442.06" y1="2482.7" x2="-3441.21" y2="2482.7" gradientTransform="matrix(-0.73, -0.69, 0.69, -0.73, -4130.78, -547.38)" xlink:href="#linear-gradient"/><linearGradient id="linear-gradient-9" x1="-1965.87" y1="-1889.59" x2="-1965.02" y2="-1889.59" xlink:href="#linear-gradient"/><linearGradient id="linear-gradient-10" x1="15.93" y1="114.16" x2="17.9" y2="118.99" gradientUnits="userSpaceOnUse"><stop offset="0.03" stop-color="#fee952"/><stop offset="0.4" stop-color="#fee652"/><stop offset="0.67" stop-color="#fedd52"/><stop offset="0.91" stop-color="#ffcd51"/><stop offset="0.99" stop-color="#ffc651"/></linearGradient><linearGradient id="linear-gradient-11" x1="69.97" y1="31.08" x2="79.48" y2="31.08" gradientTransform="matrix(1, 0, 0, 1, 0, 0)" xlink:href="#linear-gradient"/><linearGradient id="linear-gradient-12" x1="58.04" y1="36.43" x2="77.78" y2="50.78" gradientUnits="userSpaceOnUse"><stop offset="0.03" stop-color="#fee952"/><stop offset="0.39" stop-color="#fedf52"/><stop offset="0.99" stop-color="#ffc651"/></linearGradient><linearGradient id="linear-gradient-13" x1="69.29" y1="56.1" x2="83.4" y2="29.24" gradientUnits="userSpaceOnUse"><stop offset="0" stop-color="#fff"/><stop offset="1"/></linearGradient><linearGradient id="linear-gradient-14" x1="39.31" y1="79.71" x2="51.45" y2="67.45" gradientTransform="matrix(1, 0, 0, 1, 0, 0)" xlink:href="#linear-gradient"/><linearGradient id="linear-gradient-15" x1="69.91" y1="72.3" x2="79.63" y2="72.3" xlink:href="#linear-gradient-12"/><linearGradient id="linear-gradient-16" x1="54.82" y1="47.27" x2="59.23" y2="74.37" gradientTransform="matrix(1, 0, 0, 1, 0, 0)" xlink:href="#linear-gradient"/><linearGradient id="linear-gradient-17" x1="73.75" y1="121.81" x2="75.57" y2="121.81" xlink:href="#linear-gradient-12"/><linearGradient id="linear-gradient-18" x1="54.56" y1="99.28" x2="75.28" y2="99.28" xlink:href="#linear-gradient-12"/><linearGradient id="linear-gradient-19" x1="69.29" y1="81.32" x2="80.09" y2="81.32" gradientTransform="matrix(1, 0, 0, 1, 0, 0)" xlink:href="#linear-gradient"/><linearGradient id="linear-gradient-20" x1="71.83" y1="24.97" x2="76.64" y2="24.97" gradientUnits="userSpaceOnUse"><stop offset="0" stop-color="#fff"/><stop offset="1" stop-color="#ce5b73"/></linearGradient><linearGradient id="linear-gradient-21" x1="77.36" y1="24.98" x2="87.57" y2="24.98" xlink:href="#linear-gradient-20"/><linearGradient id="linear-gradient-22" x1="-270.71" y1="-907.3" x2="-269.58" y2="-889.03" gradientTransform="translate(-64.68 952.88) rotate(25.89)" xlink:href="#linear-gradient-13"/><linearGradient id="linear-gradient-23" x1="80.84" y1="27.48" x2="88.52" y2="27.48" xlink:href="#linear-gradient-12"/><linearGradient id="linear-gradient-24" x1="87.2" y1="22.54" x2="88.16" y2="22.54" xlink:href="#linear-gradient-12"/><linearGradient id="linear-gradient-25" x1="-273.34" y1="-906.44" x2="-276.13" y2="-868.21" gradientTransform="translate(-64.68 952.88) rotate(25.89)" xlink:href="#linear-gradient-20"/><linearGradient id="linear-gradient-26" x1="-739.84" y1="809.66" x2="-739.84" y2="810.76" gradientTransform="translate(-981.14 495.08) rotate(-157.1)" gradientUnits="userSpaceOnUse"><stop offset="0" stop-color="#c69c6d"/><stop offset="1" stop-color="#fff"/></linearGradient><linearGradient id="linear-gradient-27" x1="-937.35" y1="881.96" x2="-937.35" y2="883.02" gradientTransform="translate(-1214.2 414.32) rotate(-153.84)" xlink:href="#linear-gradient-26"/><linearGradient id="linear-gradient-28" x1="2775.31" y1="1568.33" x2="2775.31" y2="1569.21" gradientTransform="matrix(-0.8, 0.6, -0.6, -0.8, 3180.74, -355.6)" xlink:href="#linear-gradient-26"/><linearGradient id="linear-gradient-29" x1="-1537.71" y1="1186.78" x2="-1537.71" y2="1187.84" gradientTransform="translate(-1926.12 35.03) rotate(-142.34)" gradientUnits="userSpaceOnUse"><stop offset="0" stop-color="#bb9367"/><stop offset="1" stop-color="#fff"/></linearGradient><linearGradient id="linear-gradient-30" x1="-1982.1" y1="1523.54" x2="-1982.1" y2="1524.54" gradientTransform="translate(-2447.35 -381.13) rotate(-132.89)" xlink:href="#linear-gradient-29"/><linearGradient id="linear-gradient-31" x1="87.47" y1="14.03" x2="74.75" y2="32.67" gradientTransform="matrix(1, 0, 0, 1, 0, 0)" xlink:href="#linear-gradient"/><linearGradient id="linear-gradient-32" x1="77.5" y1="22.49" x2="89.96" y2="22.49" xlink:href="#linear-gradient-20"/><linearGradient id="linear-gradient-33" x1="82.09" y1="39.9" x2="93.94" y2="39.9" xlink:href="#linear-gradient-12"/><linearGradient id="linear-gradient-34" x1="107.71" y1="24.21" x2="109.46" y2="24.21" xlink:href="#linear-gradient-12"/><linearGradient id="linear-gradient-35" x1="109.37" y1="25.27" x2="111.09" y2="25.27" xlink:href="#linear-gradient-12"/><linearGradient id="linear-gradient-36" x1="97.43" y1="39.51" x2="112.32" y2="39.51" xlink:href="#linear-gradient-12"/><linearGradient id="linear-gradient-37" x1="76.1" y1="22.98" x2="77.79" y2="22.98" gradientTransform="matrix(1, 0, 0, 1, 0, 0)" xlink:href="#linear-gradient"/><linearGradient id="linear-gradient-38" x1="47.89" y1="28.31" x2="65.91" y2="28.31" xlink:href="#linear-gradient-12"/><linearGradient id="linear-gradient-39" x1="54.36" y1="61.54" x2="71.4" y2="61.54" xlink:href="#linear-gradient-12"/><linearGradient id="linear-gradient-40" x1="62.91" y1="-94" x2="75.53" y2="-94" gradientTransform="translate(23.3 132.13) rotate(3.69)" xlink:href="#linear-gradient-12"/><linearGradient id="linear-gradient-41" x1="103.02" y1="29.21" x2="109.3" y2="29.21" xlink:href="#linear-gradient-12"/><linearGradient id="linear-gradient-42" x1="105.77" y1="24.13" x2="107.19" y2="24.13" xlink:href="#linear-gradient-12"/><linearGradient id="linear-gradient-43" x1="75.41" y1="75.16" x2="78.54" y2="75.16" xlink:href="#linear-gradient-12"/><linearGradient id="linear-gradient-44" x1="77.68" y1="83.27" x2="80.09" y2="83.27" xlink:href="#linear-gradient-12"/><linearGradient id="linear-gradient-45" x1="76.53" y1="23.48" x2="84.12" y2="23.48" xlink:href="#linear-gradient-13"/><linearGradient id="linear-gradient-46" x1="84.55" y1="19.74" x2="89.52" y2="19.74" xlink:href="#linear-gradient-13"/><radialGradient id="radial-gradient-3" cx="-1202.7" cy="383.54" r="67.29" gradientTransform="matrix(0.04, 0.04, -0.29, 0.29, 199.76, 41.1)" gradientUnits="userSpaceOnUse"><stop offset="0" stop-color="#b07a06"/><stop offset="0.02" stop-color="#a97506"/><stop offset="0.2" stop-color="#765204"/><stop offset="0.38" stop-color="#4c3503"/><stop offset="0.55" stop-color="#2b1e01"/><stop offset="0.72" stop-color="#130d01"/><stop offset="0.87" stop-color="#050300"/><stop offset="1"/></radialGradient><radialGradient id="radial-gradient-4" cx="-2151.5" cy="352.64" r="67.28" gradientTransform="matrix(0.03, 0.03, -0.32, 0.32, 207.08, 44.47)" xlink:href="#radial-gradient-3"/><radialGradient id="radial-gradient-5" cx="5032.47" cy="472.25" r="53.12" gradientTransform="matrix(-0.08, 0, 0, -0.29, 446.94, 248.98)" xlink:href="#radial-gradient-3"/><radialGradient id="radial-gradient-6" cx="8050.93" cy="431.48" r="53.17" gradientTransform="matrix(-0.04, 0.03, -0.21, -0.25, 441.6, -24.31)" xlink:href="#radial-gradient-3"/><radialGradient id="radial-gradient-7" cx="210.25" cy="230.29" r="53.14" gradientTransform="matrix(0.11, 0.08, -0.37, 0.5, 137.43, -78.52)" xlink:href="#radial-gradient-3"/><radialGradient id="radial-gradient-8" cx="158.4" cy="212.52" r="53.14" gradientTransform="matrix(0, 0.08, -0.69, 0, 220.92, 40.15)" xlink:href="#radial-gradient-3"/><radialGradient id="radial-gradient-9" cx="-705.73" cy="229.27" r="53.14" gradientTransform="matrix(0, 0.1, -0.42, 0, 152.82, 116.51)" xlink:href="#radial-gradient-3"/><radialGradient id="radial-gradient-10" cx="-1350.79" cy="212.28" r="53.12" gradientTransform="matrix(0.06, 0.03, -0.18, 0.42, 174.99, -13.07)" xlink:href="#radial-gradient-3"/><radialGradient id="radial-gradient-11" cx="2152.64" cy="-672.36" r="53.13" gradientTransform="matrix(-0.03, -0.1, 0.4, -0.1, 359.96, 179.45)" gradientUnits="userSpaceOnUse"><stop offset="0" stop-color="#b05705"/><stop offset="0.02" stop-color="#a95405"/><stop offset="0.2" stop-color="#763a03"/><stop offset="0.38" stop-color="#4c2502"/><stop offset="0.55" stop-color="#2b1501"/><stop offset="0.72" stop-color="#130901"/><stop offset="0.87" stop-color="#050200"/><stop offset="1"/></radialGradient><radialGradient id="radial-gradient-12" cx="3322.93" cy="-601.18" r="53.12" gradientTransform="matrix(-0.02, -0.06, 0.45, -0.12, 354.36, 168.97)" xlink:href="#radial-gradient-11"/><radialGradient id="radial-gradient-13" cx="3520.9" cy="-216.7" r="30.48" gradientTransform="matrix(0, -0.1, 0.42, 0, 190.55, 407.49)" xlink:href="#radial-gradient-11"/><radialGradient id="radial-gradient-14" cx="5566.78" cy="-193.03" r="25.41" gradientTransform="matrix(-0.05, -0.03, 0.24, -0.4, 450.07, 148.58)" xlink:href="#radial-gradient-11"/><radialGradient id="radial-gradient-15" cx="2147.92" cy="-1666.09" r="53.13" gradientTransform="matrix(-0.03, -0.1, 0.15, -0.04, 371.58, 176.69)" gradientUnits="userSpaceOnUse"><stop offset="0" stop-color="#b04503"/><stop offset="0.02" stop-color="#a94203"/><stop offset="0.2" stop-color="#762e02"/><stop offset="0.38" stop-color="#4c1e01"/><stop offset="0.55" stop-color="#2b1101"/><stop offset="0.72" stop-color="#130800"/><stop offset="0.87" stop-color="#050200"/><stop offset="1"/></radialGradient><radialGradient id="radial-gradient-16" cx="3309.29" cy="-1502.23" r="53.12" gradientTransform="matrix(0, -0.06, 0.17, 0, 323.83, 236.61)" xlink:href="#radial-gradient-15"/><radialGradient id="radial-gradient-17" cx="-1158.39" cy="-571.12" r="53.14" gradientTransform="matrix(0.09, -0.04, 0.07, 0.14, 236.3, 74.51)" xlink:href="#radial-gradient-15"/><radialGradient id="radial-gradient-18" cx="-2071.69" cy="-513.73" r="53.14" gradientTransform="matrix(0.06, -0.03, 0.07, 0.16, 246.83, 69.22)" xlink:href="#radial-gradient-15"/><radialGradient id="radial-gradient-19" cx="-1038.14" cy="961.4" r="53.13" gradientTransform="matrix(0.09, 0.05, -0.08, 0.14, 251.94, -49.26)" xlink:href="#radial-gradient-15"/><radialGradient id="radial-gradient-20" cx="-1880.51" cy="874.91" r="53.13" gradientTransform="matrix(0, 0.06, -0.17, 0, 235.52, 148.45)" xlink:href="#radial-gradient-15"/><radialGradient id="radial-gradient-21" cx="-2941.97" cy="341.94" r="56.89" gradientTransform="matrix(0.03, 0.03, -0.26, 0.32, 220.34, 71.96)" gradientUnits="userSpaceOnUse"><stop offset="0" stop-color="#b03671"/><stop offset="0.02" stop-color="#a9346d"/><stop offset="0.2" stop-color="#76244c"/><stop offset="0.38" stop-color="#4c1731"/><stop offset="0.55" stop-color="#2b0d1b"/><stop offset="0.72" stop-color="#13060c"/><stop offset="0.87" stop-color="#050203"/><stop offset="1"/></radialGradient><radialGradient id="radial-gradient-22" cx="-4968.5" cy="314.39" r="56.95" gradientTransform="matrix(0.02, 0.02, -0.29, 0.35, 225.51, 73.01)" xlink:href="#radial-gradient-21"/><clipPath id="clip-path"><path class="cls-1" d="M62,103.58c-2.62,2.36-4.69,5.17-7.64,7.25a37.81,37.81,0,0,1-16,6.81c-5.74.85-11.58,1.7-17.33.9A23.64,23.64,0,0,1,1.5,101.62c-3.17-10.78-1.35-24.09,5.78-33,6.1-7.62,11.41-14.49,5.77-24.19C11,41,8.39,38,6.07,34.71l-.3-.42C3.39,30.87,1.37,27,1.16,22.84c-.46-9.28,9-13.91,17.13-13.38a31,31,0,0,1,16.08,6.3c14,10.29,20,28.07,34.2,38.15,8.2,5.83,18.37,7,28,8.5,9.9,1.57,19.39,4.31,27,11.19,4.52,4.07,8.63,9.88,9.37,16.05A14.7,14.7,0,0,1,125.87,104c-6.43,3.75-14.55,1.65-21.28-.07-5.58-1.42-11.1-3.19-16.73-4.46-5.12-1.16-10.47-1.79-15.63-.81a21,21,0,0,0-9.76,4.53Z"/></clipPath><linearGradient id="linear-gradient-47" x1="28.1" y1="197.76" x2="31.33" y2="221.69" gradientTransform="translate(-25.23 -88.36) rotate(-2.21)" gradientUnits="userSpaceOnUse"><stop offset="0" stop-color="#bf1a51"/><stop offset="1" stop-color="#d72b65"/></linearGradient><linearGradient id="linear-gradient-48" x1="-11.37" y1="16.47" x2="-4.81" y2="32.47" gradientTransform="translate(22.97 92.49) rotate(2.2)" gradientUnits="userSpaceOnUse"><stop offset="0.03" stop-color="#fee952"/><stop offset="0.23" stop-color="#fee651"/><stop offset="0.38" stop-color="#fedd4d"/><stop offset="0.52" stop-color="#fecd47"/><stop offset="0.64" stop-color="#feb63f"/><stop offset="0.76" stop-color="#fe9934"/><stop offset="0.87" stop-color="#ff7627"/><stop offset="0.97" stop-color="#ff4c17"/><stop offset="0.99" stop-color="#ff4414"/></linearGradient></defs><g class="cls-2"><g id="Camada_2" data-name="Camada 2"><g id="Objects"><path class="cls-3" d="M90,3.51c-10.89-5.77-25.7-5.16-31.47,7.34-2.49,5.4-2.6,11.7-1.17,17.47a25.4,25.4,0,0,0,6.81,12.45c5.12,4.84,12.14,4.5,18.68,4.91a25,25,0,0,1,9.67,2.11c3.3,1.65,5.5,4.6,8,7.17a12.6,12.6,0,0,0,6.18,3.83c7.49,1.54,8.83-7.86,8.57-13.15A53.42,53.42,0,0,0,103.54,14.5,46.08,46.08,0,0,0,90,3.51Z"/><path class="cls-4" d="M62,103.58c-2.62,2.36-4.69,5.17-7.64,7.25a37.81,37.81,0,0,1-16,6.81c-5.74.85-11.58,1.7-17.33.9A23.64,23.64,0,0,1,1.5,101.62c-3.17-10.78-1.35-24.09,5.78-33,6.1-7.62,11.41-14.49,5.77-24.19C11,41,8.39,38,6.07,34.71l-.3-.42C3.39,30.87,1.37,27,1.16,22.84c-.46-9.28,9-13.91,17.13-13.38a31,31,0,0,1,16.08,6.3c14,10.29,20,28.07,34.2,38.15,8.2,5.83,18.37,7,28,8.5,9.9,1.57,19.39,4.31,27,11.19,4.52,4.07,8.63,9.88,9.37,16.05A14.7,14.7,0,0,1,125.87,104c-6.43,3.75-14.55,1.65-21.28-.07-5.58-1.42-11.1-3.19-16.73-4.46-5.12-1.16-10.47-1.79-15.63-.81a21,21,0,0,0-9.76,4.53Z"/><g class="cls-5"><path class="cls-6" d="M57.13,22.93a.72.72,0,1,1-.72-.71A.72.72,0,0,1,57.13,22.93Z"/><path class="cls-7" d="M52.16,34.44a.29.29,0,1,1-.29-.29A.29.29,0,0,1,52.16,34.44Z"/><path class="cls-8" d="M24.71,29.13a.42.42,0,0,1-.52-.3A.43.43,0,0,1,25,28.6.44.44,0,0,1,24.71,29.13Z"/><path class="cls-6" d="M28.12,41a.72.72,0,1,1,.49-.88A.71.71,0,0,1,28.12,41Z"/><path class="cls-7" d="M15.7,39.32a.29.29,0,0,1-.36-.2.28.28,0,0,1,.2-.36.3.3,0,0,1,.36.2A.29.29,0,0,1,15.7,39.32Z"/><path class="cls-7" d="M38.54,48a.29.29,0,0,1-.36-.21.29.29,0,0,1,.2-.36.3.3,0,0,1,.36.21A.3.3,0,0,1,38.54,48Z"/><path class="cls-9" d="M27.32,89a.42.42,0,1,1,.61.58.43.43,0,0,1-.6,0A.42.42,0,0,1,27.32,89Z"/><path class="cls-6" d="M18.32,80.56a.72.72,0,0,1,1,1,.72.72,0,0,1-1,0A.71.71,0,0,1,18.32,80.56Z"/><path class="cls-7" d="M29.83,75.62a.29.29,0,0,1,.43.4.29.29,0,0,1-.43-.4Z"/><path class="cls-10" d="M37.16,106.88a.43.43,0,0,1,.62.59.42.42,0,0,1-.6,0A.43.43,0,0,1,37.16,106.88Z"/><path class="cls-6" d="M28.17,98.45a.71.71,0,0,1,1,0,.72.72,0,0,1,0,1,.71.71,0,1,1-1-1Z"/><path class="cls-7" d="M39.68,93.51a.29.29,0,0,1,.43.4.29.29,0,0,1-.43-.4Z"/><path class="cls-11" d="M68.49,98a.43.43,0,0,1,.6,0,.43.43,0,1,1-.59.62A.43.43,0,0,1,68.49,98Z"/><path class="cls-6" d="M59.49,89.61a.71.71,0,1,1,0,1A.71.71,0,0,1,59.49,89.61Z"/><path class="cls-7" d="M71,84.67a.3.3,0,0,1,.42,0,.31.31,0,0,1,0,.42.3.3,0,0,1-.41,0A.29.29,0,0,1,71,84.67Z"/><path class="cls-12" d="M77.3,77.41a.42.42,0,1,1,0,.6A.42.42,0,0,1,77.3,77.41Z"/><path class="cls-6" d="M68.3,69a.72.72,0,0,1,1,1,.72.72,0,0,1-1,0A.71.71,0,0,1,68.3,69Z"/><path class="cls-7" d="M79.82,64a.29.29,0,1,1,0,.41A.29.29,0,0,1,79.82,64Z"/><path class="cls-13" d="M105,44.92a.42.42,0,0,1,.6,0,.43.43,0,0,1,0,.6.44.44,0,0,1-.61,0A.43.43,0,0,1,105,44.92Z"/><path class="cls-6" d="M96,36.48a.72.72,0,1,1,0,1A.71.71,0,0,1,96,36.48Z"/><path class="cls-7" d="M107.54,31.54a.29.29,0,0,1,.41,0,.3.3,0,0,1,0,.41.29.29,0,0,1-.41,0A.28.28,0,0,1,107.54,31.54Z"/><path class="cls-14" d="M87.32,29.52a.44.44,0,0,1,.61,0,.43.43,0,1,1-.61,0Z"/><path class="cls-6" d="M78.33,21.08a.71.71,0,0,1,1,0,.72.72,0,0,1,0,1,.72.72,0,0,1-1-1Z"/><path class="cls-7" d="M89.84,16.14a.29.29,0,0,1,.43.4.3.3,0,0,1-.42,0A.3.3,0,0,1,89.84,16.14Z"/><path class="cls-15" d="M74.83,15.16a.43.43,0,1,1,0,.61A.44.44,0,0,1,74.83,15.16Z"/><path class="cls-6" d="M65.83,6.73a.71.71,0,1,1,0,1A.71.71,0,0,1,65.83,6.73Z"/><path class="cls-7" d="M77.35,1.79a.29.29,0,1,1,0,.41A.29.29,0,0,1,77.35,1.79Z"/><path class="cls-16" d="M41.76,62.43a.43.43,0,0,1-.52-.29.43.43,0,1,1,.52.29Z"/><path class="cls-6" d="M45.17,74.28a.71.71,0,1,1,.49-.88A.71.71,0,0,1,45.17,74.28Z"/><path class="cls-7" d="M32.75,72.62a.28.28,0,0,1-.36-.2.29.29,0,0,1,.2-.36.3.3,0,0,1,.36.2A.29.29,0,0,1,32.75,72.62Z"/></g><path class="cls-6" d="M96.59,53.16a2.34,2.34,0,0,1-.85,1.63,3.14,3.14,0,0,1-1.76.59,5.44,5.44,0,0,1-3-.92c-2.56-1.54-5-4.59-6.38-5.77-3.36-2.79-6.2-6.56-5.5-10.28.77-4.16-1-5.72,2.68-6.76,0,0,2.2-.74,4,3.31.86,2,2.85,2.66,4.91,6.07.88,1.46,1.72,3.18,2.48,4.75,1.08,2.24,2,4.18,2.61,4.69A3.39,3.39,0,0,1,96.59,53.16Z"/><path class="cls-17" d="M85.08,42.14c.43,3.35,1.32,6.85,3.77,9.17a4.53,4.53,0,0,0,2.2,1.26,2.42,2.42,0,0,0,2.33-.75,2.77,2.77,0,0,0-.4-3.34,17.41,17.41,0,0,0-2.84-2.26,10,10,0,0,1-2.5-2.94c-.49-.88-.93-2.42-1.78-3C84.27,39.16,85,41.11,85.08,42.14Z"/><path class="cls-18" d="M91.36,54.31a2,2,0,0,0-.53-.78c-1-1-2.18-1.71-3.21-2.65C85,48.49,83.27,44.1,85.19,40.77a.57.57,0,0,0,.1-.3c0-.2-.26-.32-.46-.27a1.09,1.09,0,0,0-.48.35,25.87,25.87,0,0,1-4,3.36,19.22,19.22,0,0,0,4.27,4.78c1.5,1.25,4.09,4.57,6.81,6A1.31,1.31,0,0,0,91.36,54.31Z"/><path class="cls-18" d="M82.73,44.42a11.68,11.68,0,0,0-.38,1.85c-2-1.38-3.15-3.49-1.68-4.69a2.55,2.55,0,0,1,2.43.47C83.64,42.61,82.92,43.86,82.73,44.42Z"/><path class="cls-19" d="M94.33,49.53a.65.65,0,0,0,.68-.07c-1.09-1.85-2.64-5.61-4.34-8.43-2.06-3.41-4-4.11-4.91-6.07-1.78-4.05-4-3.31-4-3.31a3.39,3.39,0,0,0-1.9,1.16,1.62,1.62,0,0,1,0,.19,8.37,8.37,0,0,0,.92,2.5,2.86,2.86,0,0,0,1.25,1.3,9.94,9.94,0,0,0,1.64.34,4.21,4.21,0,0,1,2.51,2.65c.65,1.57.87,3,2.26,4.18a26.47,26.47,0,0,0,3.05,1.91c1.3.85,1.52,2.07,2.4,3.28A1.15,1.15,0,0,0,94.33,49.53Z"/><path class="cls-20" d="M16.23,117.37a14.54,14.54,0,0,1,.77-2.31c.4-1,.46-1.53-.13-1.29-.34.15-.92,1.78-1.21,3.39C15.87,117.22,16,117.31,16.23,117.37Z"/><path class="cls-6" d="M73.89,26.43a6,6,0,0,0-6.61-2.87c-2.79.49-5.73.4-7.56,5.69-.47,1.38,1.31,3.11.13,6.62-.25.74-.48,1.53-.73,2.37-3.48,11.3-6.41,14.68-9.47,16.51-4.27,2.55,11,16.16,14.25,14.17s1.79-3.45,5.56-9.39C72.87,54.15,76.56,50,80,44.83c1.8-2.71,4.06-5.38,4.35-9.93C84.77,30.07,80.84,34.16,73.89,26.43Z"/><path class="cls-21" d="M83.5,38.52a3.9,3.9,0,0,1-.86,1.19,1.42,1.42,0,0,1-1.37.29,1.87,1.87,0,0,1-.94-1.19c-.76-2.09-.54-5.21,2.15-5.75C85.59,32.43,84.22,37.14,83.5,38.52Z"/><path class="cls-22" d="M76.53,30.92A3.93,3.93,0,0,1,75,29.37a1.19,1.19,0,0,1-.17-.71,1.08,1.08,0,0,1,1.2-.81,2.86,2.86,0,0,1,1.41.68c.39.29.77.6,1.14.91s2.55,2.5,1.43,3.14C79.57,32.81,77,31.21,76.53,30.92Z"/><path class="cls-23" d="M78.54,33.24c.36,0,.84,0,.93.39a.72.72,0,0,1-.29.61,8,8,0,0,1-6,2.16,4.18,4.18,0,0,1-3.12-1.47c-.63-.85,1.86-2.17,1.92-3.22.1-1.88-1.44-7.67,1.58-5.49C73.7,29.66,75.16,33,78.54,33.24Z"/><path class="cls-22" d="M64.17,30.13c-.55-.77-1.27-1.6-1.06-2.53a2.26,2.26,0,0,1,1.71-1.47,10,10,0,0,1,5.65.49,2.56,2.56,0,0,1,1.36.74,2.61,2.61,0,0,1-.08,2.6c-.73,1.71-2.25,5-4.31,5.45-1.14.25-1.59-.65-1.82-1.58A10.55,10.55,0,0,0,64.17,30.13Z"/><path class="cls-18" d="M65.57,36.92l1.18-1.16a3.21,3.21,0,0,1-2.2-1.46,11.44,11.44,0,0,1-.78-1.83A2.65,2.65,0,0,0,62.54,31,2.44,2.44,0,0,0,61,30.87a4.39,4.39,0,0,0-1.11.37,7.34,7.34,0,0,1-.07,4.63c-.07.2-.13.41-.2.62.58.25,1.23.41,1.83.62a10.08,10.08,0,0,0,2.16.7A1.87,1.87,0,0,0,65.57,36.92Z"/><path class="cls-18" d="M60.57,35.6l-.31-2.14a2.36,2.36,0,0,1,.28-1.94.81.81,0,0,1,.62-.3c.39,0,.65.4.87.74A12.85,12.85,0,0,0,63,33.25a4.32,4.32,0,0,1,.73,1.07,1.09,1.09,0,0,1-1.15,1.62,3.42,3.42,0,0,1-1.11-.35"/><path class="cls-18" d="M69.43,30.69a10.43,10.43,0,0,0,1.24-5c0-.26.1-.59.36-.6a.43.43,0,0,1,.31.16,4.11,4.11,0,0,1,.86,3.48,9,9,0,0,1-2,5.28c-.72.8-6.24,4.2-6.26,2,0-1-2-1.58-1.11-1.55C65.28,34.57,68.53,32.12,69.43,30.69Z"/><path class="cls-24" d="M69.7,23.33a2.82,2.82,0,0,1,1.41,2.25c.48,2.77-.31,6.34-3,7.84s-7.4,2-7.89.62A8,8,0,0,0,59,37.35c-.34,1.16-4.48,13.85-7.85,16,8,9.44,15.08,10.18,16.12,9.75S69.94,59,71.54,57A112.24,112.24,0,0,0,81.1,43.85a12.91,12.91,0,0,0,1.41-12.14c-1-2.46-1.72-1.44-2-.62-.25,5-7.79,1.35-7.28-2.94.21-1.72,0-3.62-.72-4.2S70.17,22.9,69.7,23.33Z"/><path class="cls-25" d="M74.16,53.72a87.45,87.45,0,0,0,6.94-9.87,12.91,12.91,0,0,0,1.41-12.14c-1-2.46-1.72-1.44-2-.62,0,.14,0,.27,0,.4a5.21,5.21,0,0,1-5,8.39c-1-.17-2.11-.64-3-.18.45,1.28,2.4,1.78,2.42,3.14s-2.11,2.13-2,3.53,2.3,1.78,2.77,3.14-1.18,2.63-1.43,4.1C74.17,53.65,74.16,53.68,74.16,53.72Z"/><path class="cls-26" d="M78.75,41.12a2,2,0,0,0-.61.47c-.39.54-.1,1.27.06,1.92a6,6,0,0,1-1.81,5.26,36,36,0,0,1-4.54,3.59,8.74,8.74,0,0,0-3.42,4.55c-.28,1.17-.16,2.41-.43,3.58a7,7,0,0,1-1.29,2.7,1.86,1.86,0,0,0,.59-.09c1-.43,2.64-4.11,4.24-6.13A112.24,112.24,0,0,0,81.1,43.85a12.91,12.91,0,0,0,1.41-12.14A5.29,5.29,0,0,0,82,30.66L80.86,31A7.44,7.44,0,0,1,78.75,41.12Z"/><path class="cls-26" d="M60.21,34A8,8,0,0,0,59,37.35c-.34,1.16-4.48,13.85-7.85,16a37.5,37.5,0,0,0,6.44,6.08,7.69,7.69,0,0,0,.5-1.54c.46-2,.09-4.19.1-6.29s.53-4.41,2.23-5.66A12.53,12.53,0,0,0,61.8,45a1.43,1.43,0,0,0,.48-1.49,3.75,3.75,0,0,0-.54-.78c-.69-1-.25-2.41.49-3.38a24.62,24.62,0,0,0,2.31-2.81,3.11,3.11,0,0,0,.32-2C62.67,35,60.53,35,60.21,34Z"/><path class="cls-27" d="M54.15,53.05a4.16,4.16,0,0,1,3.43-2.22c.71-.12-2.11-1.89-.6-6.66.7-2.21,2.06-4.15,3-6.29a2,2,0,0,0,.21-.83,5.63,5.63,0,0,0-.14-.69,1.85,1.85,0,0,1,.72-1.81s-.49-.5-.51-.51l-.26.42A8.92,8.92,0,0,0,59,37.35c-.34,1.16-4.48,13.85-7.85,16,.58.68,1.15,1.31,1.72,1.9a3.69,3.69,0,0,0,.61-.79C53.76,54,53.91,53.51,54.15,53.05Z"/><path class="cls-28" d="M64.64,63.08a23.72,23.72,0,0,0,5-7,5,5,0,0,0,.6-2.06,5.6,5.6,0,0,0-1.16-3C66.56,47,63.82,43,62.23,38.46a1.67,1.67,0,0,0-.84,1.64c.07.67.34,1.31.43,2,.29,2.12-1.18,4-2.47,5.72a13.9,13.9,0,0,0-2.81,5.43,8.17,8.17,0,0,0,1.81,6.88A7.83,7.83,0,0,0,64.64,63.08Z"/><path class="cls-29" d="M67.3,63.1c.8-.33,1.92-2.55,3.11-4.48a1.32,1.32,0,0,1-.71,0c-.45-.17-.66-.68-1-1s-1-.57-1.21-.14,0,.84-.36.92a.55.55,0,0,1-.4-.14l-1.93-1.41c-1.51.18,0,2.36.28,3.52l-4.48-2.8a1.55,1.55,0,0,0-.81-.3,1,1,0,0,0-.86.92,2.34,2.34,0,0,0,.34,1.31,7.87,7.87,0,0,0,1.45,1.94C64.24,63.21,66.72,63.34,67.3,63.1Z"/><path class="cls-21" d="M81.1,43.85a12.91,12.91,0,0,0,1.41-12.14c-.06-.16-.12-.3-.18-.43l-.6-.15c1.07,3.93,1,8.34-1.08,11.82a9.11,9.11,0,0,1-8.18,4.21c-.73,0-1.62-.13-2,.46A1.49,1.49,0,0,0,71,49.53c1.8,1.37,2.69,3.66.32,5.41a4.12,4.12,0,0,1-4.62,0c-.73-.48-1.4-1.22-2.28-1.21a2.4,2.4,0,0,0-.91.23c-2.45,1.08-3.78,3.64-4.85,6.12,4.58,3,8,3.27,8.67,3,1-.43,2.64-4.11,4.24-6.13A112.24,112.24,0,0,0,81.1,43.85Z"/><path class="cls-30" d="M43.21,67.47C41,69.84,37.33,76.88,35.28,81.7s-3.43,3.45-7.77,8.75S16.76,108,13,110.61c.24,3.29,2.17,5,2.89,5,1.45-2.4,22.64-19.74,25.89-24.92s8.47-9.47,9.6-14.77C52.18,72.16,47.63,62.73,43.21,67.47Z"/><path class="cls-6" d="M45,79.59c.61-2,.42-6.22-2.61-5.87C40,74,37.74,76.92,37.11,79c-.52,1.73-.23,3.61-.63,5.37a10.56,10.56,0,0,1-3.87,5.56C30.83,91.36,28.82,92.52,27,94c-4.72,3.89-7.48,9.61-10.08,15.14a56.9,56.9,0,0,0-2.67,6.3c.66,0,1.18-.51,1.6-1a128.53,128.53,0,0,1,11.16-11.59c3.5-3.26,7.22-6.49,9.43-10.74a23.56,23.56,0,0,1,1.75-3.25,30.13,30.13,0,0,1,3.07-3.12A15.07,15.07,0,0,0,45,79.59Z"/><path class="cls-31" d="M21.87,100.87l-.15.09a28.32,28.32,0,0,1,11.17-7.84c1.89-.73,4-1.33,5.26-2.92a6.31,6.31,0,0,1-2.31-3.43c-.18-1.26.42-2.5.56-3.76a1,1,0,0,0-.22-.86c-.35-.27-.85,0-1.15.32-1.27,1.32-1.49,3.29-2.22,5-1.75,4-6.29,6.17-8.62,9.91"/><path class="cls-32" d="M42.34,73.1A2.7,2.7,0,0,0,40.7,71,91.51,91.51,0,0,0,35.28,81.7c-2.05,4.81-3.43,3.45-7.77,8.75-4,4.93-9.89,15.94-13.7,19.5l.62,1.85a45.42,45.42,0,0,1,4.65-7.88l4.81-7A33.61,33.61,0,0,1,28,91.7a25.32,25.32,0,0,1,5.91-4.11,5.07,5.07,0,0,0,1.86-1.36,6.21,6.21,0,0,0,.73-2.78,10.92,10.92,0,0,1,3.21-6.28C40.89,76,42.52,74.78,42.34,73.1Z"/><path class="cls-33" d="M51.45,75.48l-8.9,1.33a14.65,14.65,0,0,1,1.19,8.58,3.38,3.38,0,0,1-.53,1.49c-.77,1.05-2.38,1.09-3.3,2-.73.73-.86,1.84-1.27,2.79a9.68,9.68,0,0,1-2,2.7Q30.53,100.9,24,107a104.75,104.75,0,0,0-8.47,8.52.78.78,0,0,0,.33.08c1.45-2.4,22.64-19.74,25.89-24.92s8.47-9.47,9.6-14.77C51.41,75.79,51.44,75.64,51.45,75.48Z"/><path class="cls-28" d="M42.93,67.79c-2.22,2.62-5.69,9.29-7.65,13.91-2.05,4.81-3.43,3.45-7.77,8.75S16.76,108,13,110.61a7.63,7.63,0,0,0,.91,3.16l.05,0a108,108,0,0,1,11.7-17.16,21.39,21.39,0,0,1,4.87-4.44c.87-.54,1.81-1,2.63-1.58,3-2.25,2.66-5.85,4.82-8.56a5.31,5.31,0,0,1,1.26-1.2,4.21,4.21,0,0,1,4.22,0,6.78,6.78,0,0,1,2.8,3.33l.15.38a36.93,36.93,0,0,0,3.43-4.79,15.17,15.17,0,0,0-.6-5A10.74,10.74,0,0,0,42.93,67.79Z"/><path class="cls-22" d="M27.51,90.45c-3.79,4.63-9.18,14.62-13,18.77l-.24,3a109.48,109.48,0,0,1,8.15-14c2.32-3.38,5-6.78,8.83-8.29a11.07,11.07,0,0,0,2.88-1.32,7.08,7.08,0,0,0,2.05-3.91A40.92,40.92,0,0,1,38,78.62c1-2.26,2.49-4.27,3.3-6.59a.94.94,0,0,0,0-.73.76.76,0,0,0-.59-.35A92.86,92.86,0,0,0,35.28,81.7C33.23,86.51,31.85,85.15,27.51,90.45Z"/><path class="cls-22" d="M39.23,74.76a2.18,2.18,0,0,0-1.62,1.75,2.15,2.15,0,0,0,1,2.14c1.36.78,3.36,0,4.49,1.06.76.73.71,1.94.6,3-.09.78-.17,1.57-.25,2.35a1,1,0,0,0,.06.6c.22.38.79.28,1.2.12,2.37-1,4.6-3,4.56-5.57a6.11,6.11,0,0,0-.64-2.47,10.37,10.37,0,0,0-8-5.8"/><path class="cls-34" d="M45.5,60.52c-1.23,6-4.33,6.54-7.44,14.8-.19.62,3.28.7,6.25,3.54,2.7,2.57,2.89,4.69,3.23,5,1.88,0,7.6-6.7,12.43-15.94C65.24,57.78,46.41,56.11,45.5,60.52Z"/><path class="cls-35" d="M52.4,78.05A4.11,4.11,0,0,0,50,75.34c-1.13-.55-2.38-.82-3.53-1.31a2.47,2.47,0,0,1-1.28-1,2.73,2.73,0,0,1-.07-1.81,31.23,31.23,0,0,1,3.39-9c.61-1.08,1.44-2.23,2.67-2.4l-3.79-1a2.69,2.69,0,0,0-1.88,1.74c-1.23,6-4.33,6.54-7.44,14.8-.19.62,3.28.7,6.25,3.54,2.7,2.57,2.89,4.69,3.23,5,.89,0,2.65-1.53,4.77-4.1A3.93,3.93,0,0,0,52.4,78.05Z"/><path class="cls-31" d="M41.73,71c-.55.74-1.11,1.77-.55,2.5s1.91.41,2.75.93a2.59,2.59,0,0,1,.89,2.26,4.85,4.85,0,0,0,.32,2.49,2.6,2.6,0,0,0,3.45.7,5.45,5.45,0,0,0,2.25-3.08,11.57,11.57,0,0,0,0-7.81C48.54,63,44.11,67.85,41.73,71Z"/><path class="cls-18" d="M46.79,82.16a13.85,13.85,0,0,0,.75,1.66c1.88,0,7.6-6.7,12.43-15.94a9.28,9.28,0,0,0,.63-1.5,6.42,6.42,0,0,0-1.84-2.2c-1.83-1.37-4.27-1.58-6.55-1.48a30.13,30.13,0,0,0-7.93,1.44c-1.27,2.57-3.1,4.29-5,8.35,1.86-1.29,3.66-2.85,5.86-2.71s4.18,2.39,4.46,4.72a9.83,9.83,0,0,1-2,6.59Z"/><path class="cls-6" d="M63.7,61.77s12.15,7.31,13.93,10c2.41,3.69,3,10.3-.27,12-3,1.49-4-2.2-6.13-4.23-2-1.88-12.29-6.16-16-7S56.72,58.1,63.7,61.77Z"/><path class="cls-28" d="M70.05,74.44a2.87,2.87,0,0,0-1.07.62,1.15,1.15,0,0,0-.34,1.13,1.13,1.13,0,0,0,.86.69,2.8,2.8,0,0,0,1.15,0c.9-.17,4.16-1.07,4-2.41C74.47,72.6,70.86,74.12,70.05,74.44Z"/><path class="cls-33" d="M77.63,71.81c-1-1.53-5.23-4.48-8.76-6.79l0,0c-1.53,1.69-7.1,8.33-2.74,9.73C70,76,72.43,69.13,75.86,71.52a3.94,3.94,0,0,1,1.32,3,8.83,8.83,0,0,0,.55,3.33,2,2,0,0,0,.76.87,1.43,1.43,0,0,0,1.14.11A13.45,13.45,0,0,0,77.63,71.81Z"/><path class="cls-28" d="M78.1,73.94c.57,1.54.37,3.3,1,4.8l.09.18a1.47,1.47,0,0,0,.41-.07,13.45,13.45,0,0,0-2-7c-.9-1.38-4.42-3.91-7.7-6.09l-.28,5.11c.84-1,1.95-2.06,3.22-1.79a3.53,3.53,0,0,1,1.23.64C75.73,70.81,77.42,72.08,78.1,73.94Z"/><path class="cls-36" d="M77.5,72.2a13.34,13.34,0,0,1,2,6.68l.13,0a13.45,13.45,0,0,0-2-7c-.9-1.38-4.42-3.91-7.7-6.09l0,.47C73.16,68.35,76.62,70.85,77.5,72.2Z"/><path class="cls-22" d="M74.41,76.19c-.38-.21-.84,0-1.23.25a7.08,7.08,0,0,1-8.07-1.14l-.33.73a29.64,29.64,0,0,1,6.45,3.5,12.15,12.15,0,0,1,1.37,1.64c.43-1.38,2-2.45,2.2-4A1,1,0,0,0,74.41,76.19Z"/><path class="cls-18" d="M71.17,66.72c-.25.12.21,9.22-2.85,11-3.87-1.9-4.23-2.3-4.23-2.3S71.29,66.66,71.17,66.72Z"/><path class="cls-37" d="M48.26,54.93a9.85,9.85,0,0,0-4.19,7.51C43.73,67.5,47.85,71,55.49,74s8.7,3.7,9.34,3.64c3-.3,7.52-8.57,6.34-12.24-2.21-3.18-14.32-8-17.91-11.28C51.61,52.12,50,53.74,48.26,54.93Z"/><path class="cls-31" d="M56.88,66.92A3,3,0,0,1,52.73,66c-.53-.89-.81-2.24-1.85-2.31S49.14,65.3,48,65.31a1.52,1.52,0,0,1-.79-.26,2.8,2.8,0,0,1-1.07-2.7,6.31,6.31,0,0,1,1.26-2.76A17.74,17.74,0,0,1,50,56.75a4.42,4.42,0,0,1,2.4-1.26c1.59-.12,2.88,1.29,3.61,2.72s1.23,3,2.45,4.08c1.39,1.17,3.32,1,4.76,1.95A3.33,3.33,0,0,1,64,68.33a2,2,0,0,1-2.91.09C59.56,67.26,58.9,65.52,56.88,66.92Z"/><path class="cls-35" d="M71.17,65.43c-2.21-3.18-14.32-8-17.91-11.28-1.65-2-3.3-.41-5,.78a9.86,9.86,0,0,0-3.85,5.48,5.12,5.12,0,0,0,2,.67c3.2.42,6.44-.28,9.66-.17s6.77,1.33,8.13,4.25c.94,2,.63,4.34.3,6.53q-.42,2.84-.85,5.68a2.83,2.83,0,0,0,1.14.3C67.82,77.37,72.35,69.1,71.17,65.43Z"/><path class="cls-18" d="M71.17,65.43a13.52,13.52,0,0,0-3.89-3c-.28.34,5.11,4-3.64,9.49a1.89,1.89,0,0,1-2,.05c-.83-.52-1-1.62-1.2-2.57s-.77-2-1.75-2-1.57,1.16-1.9,2.13c-.6,1.81-2.27,2.9-3.26.82-.75-1.55-.71-3.67-2.6-4.42a.76.76,0,0,0-.51-.07c-.25.07-.39.33-.51.57-.5,1-.56,1.72-1.78,1.51-.88-.15-1.61-1.08-2.11-1.74a10.07,10.07,0,0,1-1.9-3.62l-.06-.31,0,.26C43.73,67.5,47.85,71,55.49,74s8.7,3.7,9.34,3.64C67.82,77.37,72.35,69.1,71.17,65.43Z"/><path class="cls-6" d="M75.26,118.31a2.7,2.7,0,0,0-.41-1.58c-.45-.49-6.58-1-12.16-7.77S55.21,94.8,57.78,93.2c-2,.07-4.66,4.11-.86,11.41S66.3,117.06,75.26,118.31Z"/><path class="cls-22" d="M74.85,116.73c-.45-.49-6.58-1-12.16-7.77-4.34-5.24-6.45-10.88-6-13.89a10.55,10.55,0,0,0,1,7.13c2,4.21,4.62,8.7,8.4,11.52a15.91,15.91,0,0,0,8.85,3.11Z"/><path class="cls-22" d="M57.06,94a1.85,1.85,0,0,1,.21-.33c0-.08.09-.17.14-.26H57a2.66,2.66,0,0,0-.6.43Z"/><path class="cls-6" d="M57.39,93.43s2.9-1.1,7.24-2.33,6.33-4,6.33-7.73c-.65-1.92-1.22.7-1.22.7s.2,3.43-4.46,5.48S58,92.69,57.39,93.43Z"/><path class="cls-6" d="M64,113.38c-.23-.25-1.1-.73-1.36.14s2.95,11.16,11.7,11.65c1.71-.29,1.35-5.7.75-6.45S69.37,119.22,64,113.38Z"/><path class="cls-18" d="M64.21,113.63l-1.3-.53a.63.63,0,0,0-.29.42c-.27.87,2.95,11.16,11.7,11.65h0A2.77,2.77,0,0,0,72.89,124c-3.21-1.48-6.35-3.58-7.87-6.76a3.15,3.15,0,0,1-.14-2.94C64.66,114.09,64.44,113.86,64.21,113.63Z"/><path class="cls-22" d="M75.07,118.72c-.48-.59-3.81.07-7.86-2.57.23,1.37,2.36,2.5,3.38,3.1a5.07,5.07,0,0,1,1.34,1,1.48,1.48,0,0,1,.32,1.55,7.48,7.48,0,0,1-.72.88,1.9,1.9,0,0,0-.09,1.94,10.82,10.82,0,0,0,2.88.56C76,124.88,75.67,119.47,75.07,118.72Z"/><path class="cls-38" d="M74.32,118.46c.07.27,1.28,4.94-.57,6.66l.57,0c1.71-.29,1.35-5.7.75-6.45A1.33,1.33,0,0,0,74.32,118.46Z"/><path class="cls-39" d="M75.15,119.29c-9.77-1.29-16.39-9.2-19.08-15.58-1.77-4.18-2-7.94-.59-9.82,1.18-1.6,4-2.65,6.7-3.66A17.6,17.6,0,0,0,67,87.93c2.88-2.66,2.83-8.44,2.82-8.5l.51-.15c0,.26.6,6.39-2.65,9.39-1,1-3,1.71-5.18,2.5-2.45.92-5.24,2-6.25,3.32-1.17,1.57-.89,5,.71,8.83,2.6,6.14,8.94,13.74,18.29,15Z"/><path class="cls-40" d="M69.69,78.94a17.47,17.47,0,0,0,2.22-1.19c1-.75.49-1.61.51-2.7A2.14,2.14,0,0,1,73.87,73c2.32-.73,3.55,2.19,4.72,3.57.09.11,2.16,1.66,1.2,1a4.62,4.62,0,0,0-1.34-.37l-4.38,1.94a5.9,5.9,0,0,1-1.72.57,5.1,5.1,0,0,0-1.8.25"/><path class="cls-41" d="M79.91,77.28s-1.14.94-3-2.53c-1.47-2.68-4.54-1.78-3.74,2.14.39,1.94-1.81,1.17-3.27,1.87-.73.35-.73,3.89-.18,4.49,1.1,1.18,2.82-.43,3.32,1.1s.17,3.39,1,4.22a4.09,4.09,0,0,0,3.79.64C78.72,88.76,80.7,83.83,79.91,77.28Z"/><path class="cls-18" d="M75.85,88.72a5.8,5.8,0,0,1-1.59-1.31,2.82,2.82,0,0,1-.11-2.35,12.81,12.81,0,0,0,.68-2.32.92.92,0,0,0-.2-.76.87.87,0,0,0-.5-.18c-1.29-.18-2.81,0-3.68-1a2.44,2.44,0,0,1-.47-2.1l-.12.05c-.73.35-.73,3.89-.18,4.49,1.1,1.18,2.82-.43,3.32,1.1s.17,3.39,1,4.22a3.92,3.92,0,0,0,2.49.86A2.55,2.55,0,0,0,75.85,88.72Z"/><path class="cls-6" d="M89,22.67a3.85,3.85,0,0,1-.72,1.26,26.82,26.82,0,0,0-2.77,3.7,10.22,10.22,0,0,1-3.94,4,12.09,12.09,0,0,1-1.57.74,8.51,8.51,0,0,1-3.89-3.33c-.12-.82-.83-1.11-1.52-1.58a2.84,2.84,0,0,1-1.37-2v-.06a1.1,1.1,0,0,1,0-.18.48.48,0,0,0,.38,0A2.32,2.32,0,0,0,75,24,4.35,4.35,0,0,0,75.44,23c.55-2.1.66-5.42,3.9-7.15,2.69-1.44,8.44-.54,10.28,5.47C89.78,22.1,89.51,22.5,89,22.67Z"/><path class="cls-42" d="M76.64,22.05s-.37,2.1-.45,2.33a13.09,13.09,0,0,1-1,2.26,6.19,6.19,0,0,1-.46.68,1.07,1.07,0,0,1-.14.16,1.21,1.21,0,0,1-1.68.15c-.42-.25-1.36-1.05-1-1.62.17-.26.89-.35,1.29-.49h0a.4.4,0,0,0,.13-.07l.18-.12A2.32,2.32,0,0,0,75,24,4.35,4.35,0,0,0,75.44,23,5.07,5.07,0,0,1,76.64,22.05Z"/><path class="cls-43" d="M83.16,24.56c-.36,0-.8,0-.92.37a.87.87,0,0,0,.06.57c.32.95-1,3.57-2,3.94a4.9,4.9,0,0,0-2.54,1.82,1.73,1.73,0,0,1-.37-1.38,5.46,5.46,0,0,1,.48-1.39l2.19-4.78a1.91,1.91,0,0,1,.39-.62,1.81,1.81,0,0,1,1-.4c1-.15,2.11-4.13,3.14-4,.65.09,4,2.88,2.66,4.85C86.09,25.32,83.7,24.59,83.16,24.56Z"/><path class="cls-18" d="M79.82,24.33A24.37,24.37,0,0,1,84,22.24a1.4,1.4,0,0,1,.8-.12.94.94,0,0,1,.65.89,2.66,2.66,0,0,1-.25,1.14.75.75,0,0,0-.06.58c.16.33.64.24,1,.07A7.47,7.47,0,0,0,88,23.5a2.5,2.5,0,0,0,.91-1.74A2.45,2.45,0,0,0,87.73,20a7.07,7.07,0,0,0-5.86-1.11"/><path class="cls-22" d="M75.62,22.8a7.09,7.09,0,0,0,.07,1.95c.16,1.23.37,2.45.64,3.66a5,5,0,0,0,2.84,3.53.88.88,0,0,1,.12-.26c.32-.48,1-.66,1.3-1.14.56-.86-.24-1.93-.51-2.93A4.94,4.94,0,0,1,81,24a9,9,0,0,0,1.54-3.53l-3.94-2.33c-.93,1.3-2.6,2.93-2.9,4.52A1.62,1.62,0,0,0,75.62,22.8Z"/><path class="cls-44" d="M85.91,25.44c-1.66,1.89-2.3,5.31-6.28,6.75l.36.2a10.27,10.27,0,0,0,5.51-4.76,27.58,27.58,0,0,1,2.76-3.7,2.85,2.85,0,0,0,.81-2,10.5,10.5,0,0,0-.67-1.3h0A14.68,14.68,0,0,1,85.91,25.44Z"/><path class="cls-45" d="M85.62,26.25a12.23,12.23,0,0,0-1,1.85A12.47,12.47,0,0,1,80.84,32c.25-.12.49-.24.72-.37a10.22,10.22,0,0,0,3.94-4,26.82,26.82,0,0,1,2.77-3.7l.25-.34a1.6,1.6,0,0,0-.55-.66,5.93,5.93,0,0,1-1.41,2.36C86.25,25.61,85.9,25.9,85.62,26.25Z"/><path class="cls-46" d="M87.2,22.64a1.55,1.55,0,0,1,.77.29,5.22,5.22,0,0,0,.19-.78Z"/><path class="cls-47" d="M84.74,18a6.37,6.37,0,0,0-2.8.22A14.9,14.9,0,0,0,78,20.3a7.78,7.78,0,0,0-2.49,7.25c.33,1.61,1.42,3.23,4.09,4.64-.78-1.78-2.37-4.45,1.14-8.32,1.25-1,1.62.57,3-.3s3.55-1.52,4.52.36C89.67,22,86.59,19.34,84.74,18Z"/><path class="cls-18" d="M82.61,19s-1.14,5.32-1.39,7-2.72,3.18-2.46,6C76.73,24.27,79.92,14.05,82.61,19Z"/><path class="cls-6" d="M68.68,22.77c-5.26-1.8-11.16,1.28-16.74,1.9s-12.15,3.52-17.55,4.71a43.05,43.05,0,0,0-7.77,2.54c-1.6.7-3.1,1.73-4.72,2.34-.28.11-2,.23-2,.29a.19.19,0,0,1-.1.1,2.36,2.36,0,0,1-.79.11,1.63,1.63,0,0,0-.86.25,2.53,2.53,0,0,1-.59.26,3.67,3.67,0,0,1,.77.26c-.21.1-.72-.06-.95-.1s-.52-.12-.77-.2a2.32,2.32,0,0,1-1-.39,9.06,9.06,0,0,1-1-.54c-.22-.14-.85-.52-1.09-.43a.52.52,0,0,0-.21.69c.1.25.71.64.93.78a7.27,7.27,0,0,0,1.17.62l-1.76-.46a.79.79,0,0,0-.69,0,.56.56,0,0,0,0,.78,1.64,1.64,0,0,0,.77.41c1.36.43,2.73.85,4.09,1.29.14,0,.29.09.34.23s-.11.41-.3.53A7.67,7.67,0,0,0,16.38,40a2.23,2.23,0,0,0-.54,1.8.57.57,0,0,0,.35.46c.38.11.59-.4.77-.76.58-1.11,2.11-1.13,3.3-1.51a5.77,5.77,0,0,0,2.12-1.43c.2-.19.39-.38.59-.55.46-.41,1-.72,1.45-1.15l3.36-.24.91-.08a56.61,56.61,0,0,0,14.78-3.13c4.53-1.57,12.88-.81,19.28-1.34a23.43,23.43,0,0,0,4.39-.71C71.55,30.13,72.88,24.21,68.68,22.77Z"/><path class="cls-48" d="M68.68,22.77c-5.26-1.8-11.16,1.28-16.74,1.9s-12.15,3.52-17.55,4.71a43.05,43.05,0,0,0-7.77,2.54c-1.6.7-3.1,1.73-4.72,2.34-.28.11-2,.23-2,.29a.19.19,0,0,1-.1.1,1,1,0,0,1-.29.07c2.25.41,4.58-.46,6.67-1.48,2.24-1.1,4.5-2.4,7-2.5a24.24,24.24,0,0,0,3.19-.06,10.26,10.26,0,0,0,2.92-1.19,42.09,42.09,0,0,1,12.84-4.15c.65-.1,1.46-.11,1.8.46a2.59,2.59,0,0,0,.26.46.9.9,0,0,0,.72.17c2-.13,3.71-1.33,5.54-2.09A13,13,0,0,1,66,23.39a13,13,0,0,0,2.86,0,3.06,3.06,0,0,0,.77-.22A5,5,0,0,0,68.68,22.77Z"/><path class="cls-31" d="M28.49,31.61a18.36,18.36,0,0,1,7.84-1.53c.64,0,1.47.23,1.54.88s-.59,1-1.15,1.24l-3.46,1.45a31.71,31.71,0,0,1-5.72,2c-1,.21-4.56,1.24-3.88-.79C24.23,33.14,27,32.25,28.49,31.61Z"/><path class="cls-31" d="M47.25,26a13.06,13.06,0,0,1,3.38-.66c2.35-.09,4.73.8,7,.28A15.79,15.79,0,0,0,61.22,24a4.11,4.11,0,0,1,1.71-.56,1.6,1.6,0,0,1,1.52.8,1.66,1.66,0,0,1-.56,1.89A5.65,5.65,0,0,1,62,27a28.5,28.5,0,0,0-4,1.69,22.21,22.21,0,0,1-3.12,1.47,8.82,8.82,0,0,1-2.75.42A11.1,11.1,0,0,1,48.28,30c-.61-.23-1.2-.5-1.83-.69A8.21,8.21,0,0,0,43.53,29c-.67,0-1.36.15-.94-.71C43.25,26.94,46,26.37,47.25,26Z"/><path class="cls-22" d="M71.18,26.88a5.56,5.56,0,0,1-4,4.48,17.37,17.37,0,0,1-2.11.45,7.22,7.22,0,0,0-.86-1.68c-.55-.77-1.27-1.6-1.06-2.53a2.26,2.26,0,0,1,1.71-1.47,10,10,0,0,1,5.65.49A4.3,4.3,0,0,1,71.18,26.88Z"/><path class="cls-49" d="M18.11,39.88c.57-.29,1.48,0,1.84-.63s0-1.26-.63-1.59a6.55,6.55,0,0,0-1.22-.43l-.67-.16a2.51,2.51,0,0,1-.62-.06c-.11-.06-.2-.15-.32-.21-.3-.15-.66,0-1,0a.68.68,0,0,0-.48-.46,2.79,2.79,0,0,0-.7-.08.3.3,0,0,1-.16,0,.81.81,0,0,1-.09-.1c-.22-.27-1-.4-1.15,0-.09.22.23.34.45.42,1.76.59,3.2,1,4.85,1.68.14-.08-.15.41-.77.78-1,.59-2.05,1.73-1.54,3a.45.45,0,0,0,.2.25.37.37,0,0,0,.42-.12,1.25,1.25,0,0,0,.2-.42,3.18,3.18,0,0,1,1.37-1.84Z"/><path class="cls-50" d="M13.9,35.11a3.67,3.67,0,0,1-.56-.45.38.38,0,0,1,.27-.46,1.88,1.88,0,0,1,.92.42,1.88,1.88,0,0,1,.31.51,1.12,1.12,0,0,1,1.28.33.37.37,0,0,0,.19.16.54.54,0,0,0,.22,0,.91.91,0,0,1,.74.25.65.65,0,0,0,.16.13.45.45,0,0,0,.3,0,1.27,1.27,0,0,1,.77,0,.31.31,0,0,1,.15.1c.19.23-.15.7-.4.72a4.87,4.87,0,0,1-1.55-.28A8.09,8.09,0,0,1,13.9,35.11Z"/><path class="cls-51" d="M15.78,34.82a.55.55,0,0,1-.29-.18.21.21,0,0,1,0-.3.31.31,0,0,1,.19,0l.48,0,.41,0,.25,0a2.6,2.6,0,0,1,.39.05,1.48,1.48,0,0,1,.41.17.81.81,0,0,0,.21.1,1.34,1.34,0,0,0,.2,0,1,1,0,0,1,.6.17.83.83,0,0,0,.16.09.53.53,0,0,0,.28,0,2.49,2.49,0,0,1,1.34.27,4.85,4.85,0,0,0-.45.27,3.27,3.27,0,0,1-.53.17,2.07,2.07,0,0,1-1-.13A24.8,24.8,0,0,1,15.78,34.82Z"/><path class="cls-52" d="M16.92,37.63a2.33,2.33,0,0,0,.18-.77.29.29,0,0,0,0-.16s-.07-.06-.11-.09a1,1,0,0,0-.7-.14c-.31.08-.48.41-.61.71l.1-.42a.8.8,0,0,0,0-.34.61.61,0,0,0-.42-.42.86.86,0,0,0-.57-.06,1.17,1.17,0,0,0-.63.69,1.87,1.87,0,0,0,.2-.51.57.57,0,0,0-.16-.48c.32.07,1.31.36,1.58.44s1.71.39,1.65.66a1.35,1.35,0,0,1-.16.29A2.87,2.87,0,0,1,16.92,37.63Z"/><path class="cls-53" d="M17.31,36.62a2.27,2.27,0,0,0,.21-.73.2.2,0,0,0-.12-.23.94.94,0,0,0-.66-.18c-.3.06-.48.37-.62.64l.13-.39a.93.93,0,0,0,.05-.32.63.63,0,0,0-.38-.43.79.79,0,0,0-.54-.08c-.3.07-.48.35-.64.61A1.35,1.35,0,0,0,15,35a.54.54,0,0,0-.12-.46c.3.09,1.22.41,1.48.5s1.6.47,1.53.72a1.11,1.11,0,0,1-.17.27A2.52,2.52,0,0,1,17.31,36.62Z"/><path class="cls-54" d="M18.63,39.19a1.54,1.54,0,0,0-.45-.43.16.16,0,0,0-.11,0,.22.22,0,0,0-.11,0,.8.8,0,0,0-.38.41.87.87,0,0,0,.24.7l-.24-.24a.82.82,0,0,0-.22-.16.52.52,0,0,0-.46.12.63.63,0,0,0-.26.36,1,1,0,0,0,.21.71,1.1,1.1,0,0,0-.26-.34.46.46,0,0,0-.39-.09c.18-.19.77-.74.93-.9s.95-1,1.11-.85a.73.73,0,0,1,.13.23A1.52,1.52,0,0,1,18.63,39.19Z"/><path class="cls-6" d="M14.46,33.33a1.31,1.31,0,0,0,.44.66,8.57,8.57,0,0,0,3.37,2l.62-1a8,8,0,0,1-3.43-2c-.18-.18-.4-.39-.66-.34A.51.51,0,0,0,14.46,33.33Z"/><path class="cls-55" d="M17.64,35.84a2.2,2.2,0,0,0,.35-.66A.26.26,0,0,0,18,35a.28.28,0,0,0-.08-.11,1,1,0,0,0-.61-.3c-.31,0-.54.26-.74.5l.2-.36a.7.7,0,0,0,.12-.3.63.63,0,0,0-.29-.5.78.78,0,0,0-.51-.18,1.2,1.2,0,0,0-.75.47,1.31,1.31,0,0,0,.31-.42.51.51,0,0,0,0-.48c.28.15,1.12.65,1.35.79s1.48.78,1.36,1a1,1,0,0,1-.22.24C18,35.52,17.89,35.7,17.64,35.84Z"/><path class="cls-6" d="M16.41,32.37a1.21,1.21,0,0,0,.31.68,8,8,0,0,0,2.83,2.4l.73-.81a7.51,7.51,0,0,1-2.89-2.38c-.14-.2-.32-.43-.56-.43A.51.51,0,0,0,16.41,32.37Z"/><path class="cls-56" d="M19,35.21a2.14,2.14,0,0,0,.43-.56.24.24,0,0,0,0-.14.17.17,0,0,0-.06-.11.83.83,0,0,0-.52-.38,1,1,0,0,0-.77.36l.25-.31a.72.72,0,0,0,.15-.27.55.55,0,0,0-.19-.5.8.8,0,0,0-.44-.26,1.14,1.14,0,0,0-.78.33,1.26,1.26,0,0,0,.35-.34.5.5,0,0,0,0-.46c.24.19,1,.79,1.14,1s1.26,1,1.11,1.16a.89.89,0,0,1-.24.18A2.15,2.15,0,0,1,19,35.21Z"/><path class="cls-17" d="M63.23,31.45a1.7,1.7,0,0,1-.48.62c-6.4.53-14.75-.23-19.28,1.34a56.61,56.61,0,0,1-14.78,3.13l-.91.08a48.75,48.75,0,0,0,10.11-5.57c1.75-1.16,3.72-2.36,5.8-2.07A17.16,17.16,0,0,1,46.76,30a12.24,12.24,0,0,0,6.63.31A24.78,24.78,0,0,0,59.64,28a3,3,0,0,1,2-.5c1.1.26,1.47,1.61,1.65,2.73A2.37,2.37,0,0,1,63.23,31.45Z"/><path class="cls-21" d="M34.39,29.39A42.07,42.07,0,0,0,26.56,32h0a29,29,0,0,1,9-2.32,18.21,18.21,0,0,0,2.67-.33A13.56,13.56,0,0,0,41.49,28l2.7-1.49C40.81,27.51,37.42,28.72,34.39,29.39Z"/><path class="cls-18" d="M56.94,31.22c-5.64.9-9.4-.41-11.28.73a46.59,46.59,0,0,1-5.5,2.52c1.05-.3,2.15-.65,3.31-1.06,4.75-1.65,13.71-.73,20.2-1.43C63.2,30,62.2,30.38,56.94,31.22Z"/><path class="cls-21" d="M71,26.21c.24-.07.31-.38.32-.63a5.59,5.59,0,0,0-.12-.82,4,4,0,0,0-2.49-2c-5.26-1.8-11.16,1.28-16.74,1.9a35.36,35.36,0,0,0-5.49,1.14h0c2.84-.77,5.68-1.34,8.48-.41a4.32,4.32,0,0,0,1.67.38,3.2,3.2,0,0,0,1.15-.39c1.76-.85,3.5-2.33,5.44-2.73a6.23,6.23,0,0,1,5.43,1.85A9.18,9.18,0,0,0,70.14,26,1.46,1.46,0,0,0,71,26.21Z"/><path class="cls-57" d="M88.32,23.6a1,1,0,0,1-.43-.31c-.76-.86-2.93-4.48-4.4-2.93a1.65,1.65,0,0,0-.3.59c-.37,1.05-.42,2.12-1.73,2.2a3.5,3.5,0,0,0-1.26.19c-.9.43-1.26,1.77-1.58,2.62a2.12,2.12,0,0,0-.13,1.63,4.75,4.75,0,0,1,.31.59c.13.45-.16.89-.24,1.35a2.33,2.33,0,0,0,1,2c.3.24.94.78.41.84a6.11,6.11,0,0,1-3.78-4.22c-.13-.54-.39-1.37,0-1.75.9-.85,3.68-3.45,3.07-4.88A1,1,0,0,0,78.16,21c-1.19.15-2.12,1.07-3.27,3.46-.29-.53.06-4.62,2.37-7.4C80.89,12.7,88,15.46,89.6,19.84A3.35,3.35,0,0,1,89.54,23a1.81,1.81,0,0,1-.47.52A.8.8,0,0,1,88.32,23.6Z"/><path class="cls-18" d="M77.26,17.07c-2.31,2.78-2.66,6.87-2.37,7.4.87-1.81,1.61-2.77,2.44-3.2,0-.28-.11-.56-.14-.84a7.71,7.71,0,0,1,0-1.27,4.19,4.19,0,0,1,.14-.85,2.77,2.77,0,0,1,.58-.95,6.26,6.26,0,0,1,1.12-1c.35-.23.88-.38,1.13-.71a.72.72,0,0,0,.17-.56A5.88,5.88,0,0,0,77.26,17.07Z"/><path class="cls-58" d="M84.77,15.36c-.43.4-.35,1.19-.81,1.57a2,2,0,0,1-.65.29c-2,.71-2.06,2.7-2.11,4.48,0,.29-.06.63-.31.77s-.44.06-.65.13c-.54.19-.56,1.06-1.09,1.29L77.5,29.1a6.12,6.12,0,0,0,1.06.52v-.09c.08-.46.37-.9.24-1.35a4.75,4.75,0,0,0-.31-.59A2.12,2.12,0,0,1,78.62,26c.32-.85.68-2.19,1.58-2.62a3.5,3.5,0,0,1,1.26-.19c1.31-.08,1.36-1.15,1.73-2.2a1.65,1.65,0,0,1,.3-.59c1.47-1.55,3.64,2.07,4.4,2.93a1,1,0,0,0,.43.31.8.8,0,0,0,.75-.1,1.81,1.81,0,0,0,.47-.52,3.35,3.35,0,0,0,.06-3.14A7.93,7.93,0,0,0,84.77,15.36Z"/><path class="cls-6" d="M79.54,22.24s.37-1.87-1.18-1.78-1.93,3.22-2.17,3.8-.07,1.29.8.93A4.46,4.46,0,0,0,79.54,22.24Z"/><path class="cls-29" d="M78.74,35.42a1.94,1.94,0,0,0,.43-1.07,1.59,1.59,0,0,0-.24-.91c-2.24.6-6.09-2.18-5.72-5.29.21-1.72,0-3.62-.72-4.2a3.94,3.94,0,0,0-2.44-.77h0a3.79,3.79,0,0,1,2.3,3.07,7.44,7.44,0,0,1-4.25,7.17,8.05,8.05,0,0,1-1,.49,2.27,2.27,0,0,0,.48,1.24,4.48,4.48,0,0,0,2.22,1.26,15.75,15.75,0,0,0,4.15.7C75.69,37.17,77.64,36.85,78.74,35.42Z"/><path class="cls-59" d="M64.9,36.75A7.61,7.61,0,0,0,60,39.84a2.1,2.1,0,0,0-.38,1.42c.15.85,1.07,1.32,1.91,1.51a10.55,10.55,0,0,0,4,0,18.7,18.7,0,0,0,7.57-3c1.17-.8,5.91-5.2,2-5.05-1.46.06-2.85.9-4.27,1.19C68.87,36.27,66.86,36.3,64.9,36.75Z"/><path class="cls-26" d="M65.73,57.34s-25-11.53-25.38-12.76S39.49,42.25,65.73,57.34Z"/><path class="cls-59" d="M56.12,71.73S35.5,61.54,35.22,60.51,34.56,58.54,56.12,71.73Z"/><path class="cls-59" d="M46.23,89.83S31.8,82,31.6,81.15,31.14,79.62,46.23,89.83Z"/><path class="cls-59" d="M49.26,81.7S28.63,71.51,28.35,70.48,27.69,68.52,49.26,81.7Z"/><path class="cls-59" d="M48.44,33.63S27.82,23.44,27.54,22.41,26.87,20.45,48.44,33.63Z"/><path class="cls-59" d="M66.18,33.84S50.86,26.27,50.65,25.5,50.16,24,66.18,33.84Z"/><path class="cls-60" d="M44.79,60.35S20.53,48.22,20.25,47.19,23.16,47.27,44.79,60.35Z"/><path class="cls-60" d="M36.61,107.12S12.35,95,12.07,94,15,94,36.61,107.12Z"/><path class="cls-60" d="M77.81,125.76S56.63,115,56.38,114.13,58.93,114.2,77.81,125.76Z"/><path class="cls-60" d="M66.69,64.15S46.17,53.75,45.9,52.72,45.26,50.75,66.69,64.15Z"/><path class="cls-61" d="M73.78,60.38s-13.82-8.8-14-9.62S59.45,49.19,73.78,60.38Z"/><path class="cls-62" d="M62.08,38s-6.22-3.15-6.31-3.49S55.55,33.9,62.08,38Z"/><path class="cls-62" d="M20.44,89.8S5.55,83,5.3,82.16,4.73,80.66,20.44,89.8Z"/><path class="cls-63" d="M64.42,50.56s-14.88-6.85-15.14-7.64S48.71,41.42,64.42,50.56Z"/><path class="cls-33" d="M67.12,91.88S55,86.32,54.83,85.68,54.36,84.46,67.12,91.88Z"/><path class="cls-62" d="M30.41,114.65S15.53,107.8,15.27,107,14.7,105.51,30.41,114.65Z"/><path class="cls-62" d="M61.15,106.64S46.27,99.79,46,99,45.44,97.5,61.15,106.64Z"/><path class="cls-62" d="M44.07,21.28S29,14.2,28.72,13.38,28.14,11.83,44.07,21.28Z"/><path class="cls-62" d="M23.55,34S8.66,27.2,8.41,26.4,7.84,24.9,23.55,34Z"/><path class="cls-62" d="M68.43,23.62S53.54,16.77,53.29,16,52.72,14.48,68.43,23.62Z"/><path class="cls-62" d="M112.08,23.78c.46.43-14.23-6.23-15.14-7.64C96.49,15.45,96.37,14.64,112.08,23.78Z"/><path class="cls-63" d="M105.46,35.72c-.6-.6-8.65-4.68-7.49-3.78C98.29,32.19,97.68,31.19,105.46,35.72Z"/><path class="cls-62" d="M79.86,21.75S67.23,15.94,67,15.26,66.53,14,79.86,21.75Z"/><path class="cls-64" d="M74.4,34.65a1.09,1.09,0,0,0-.84.61.77.77,0,0,0,.27.76,1.68,1.68,0,0,0,.77.34,7.69,7.69,0,0,0,3.65-.31c.67-.18,4.62-2.06,2.33-2.29a14.22,14.22,0,0,0-2.69.53A24,24,0,0,0,74.4,34.65Z"/><path class="cls-27" d="M73.49,54.55a17.84,17.84,0,0,1-3-6,2.45,2.45,0,0,0-.94-1.66,9.91,9.91,0,0,0,.41,3.58,46.23,46.23,0,0,0,1.37,4.43,14.3,14.3,0,0,0,.62,1.64Z"/><path class="cls-29" d="M63.07,46s-28.6-14.83-25.83-15.2C37.31,30.8,63.31,45.09,63.07,46Z"/><path class="cls-59" d="M87.43,51.28S65.84,40.08,67.93,39.8C68,39.79,87.61,50.58,87.43,51.28Z"/><path class="cls-59" d="M85,18S68.06,9.21,69.7,9C69.74,9,85.12,17.44,85,18Z"/><path class="cls-26" d="M69.51,44.18a.8.8,0,0,0-.69-.56c-.45,0-.67.72-.72,1.33-.3,3.66,1.31,9.71,4.32,10.5l.28.07,1.13-1.39C73.12,52.31,71,48.87,69.51,44.18Z"/><path class="cls-65" d="M30.86,90.28,26,88.14a.68.68,0,0,1-.24-1.09h0a.69.69,0,0,1,.94-.08Z"/><path class="cls-21" d="M94.1,48.9a.67.67,0,0,0,.27-.16c-1.06-2-2.48-5.31-4-7.88-2.06-3.4-4-4.1-4.91-6.07a8.63,8.63,0,0,0-.73-1.37.9.9,0,0,1,.06.22,16.71,16.71,0,0,1,.08,2.83,1.38,1.38,0,0,0,.29.93,1.64,1.64,0,0,0,.67.34c2.66,1,4.37,3.62,5.16,6.33a19.67,19.67,0,0,0,.86,2.73,3.8,3.8,0,0,0,1.9,2A.64.64,0,0,0,94.1,48.9Z"/><path class="cls-66" d="M90.67,41c-2.06-3.41-4-4.11-4.91-6.07-1.28-2.91-2.77-3.35-3.52-3.37l-.15.11a3.1,3.1,0,0,1,2.33,1.75,24.37,24.37,0,0,0,1.44,2.67,18.66,18.66,0,0,0,2.45,2.16,5.85,5.85,0,0,1,1,1.07,20.83,20.83,0,0,1,1.7,4.14c.47,1.14,1,2.26,1.5,3.36a13.65,13.65,0,0,1,.79,1.35.37.37,0,0,0,.33-.23l.27-.57C93,45.48,91.87,43,90.67,41Z"/><path class="cls-67" d="M82.92,31.69v.09l.21,0Z"/><path class="cls-6" d="M111.76,26.4c-.42.49-.84,1-1.27,1.46a9.55,9.55,0,0,0-1,1.5,19.56,19.56,0,0,1-1.85,2.58,7.39,7.39,0,0,0-1.12,2.82c-.36,1.14-.79,2.26-1.23,3.37-.81,2.06-1.68,4.09-2.58,6.1-.57,1.27-1.14,2.52-1.74,3.77-.2.41-.39.82-.6,1.22-.27.55-.54,1.11-.85,1.64a13.61,13.61,0,0,1-3.78,3.93,1.76,1.76,0,0,1-.32.15,5.81,5.81,0,0,1-3.7-.91,1.61,1.61,0,0,1-.85-1.48,26.23,26.23,0,0,1,1-4.52.5.5,0,0,1,0-.12,5.4,5.4,0,0,1,.64-1.24c.19-.31.38-.6.58-.89s.46-.67.69-1c1.19-1.68,2.43-3.32,3.66-5s2.62-3.53,3.86-5.35c.53-.77,1-1.55,1.52-2.35a2,2,0,0,0,.31-.52,2,2,0,0,0-.11-.72c-.07-.3-.12-.6-.19-.9a6.47,6.47,0,0,0-.63-2.17,11.85,11.85,0,0,1-1.12-1.54c-.15-.32,0-.66.35-.66.82,0,1.26.84,1.82,1.29,1,.8,1.46-.95,1.68-1.62s.32-1.14.51-1.7a4.68,4.68,0,0,1,1.08-2.3.39.39,0,0,1,.27-.1c.5,0,.34.77.26,1.07-.25.94-.48,1.9-.8,2.82-.1.27-.49,1.08-.19,1.32s.85-.89.95-1.06a16.15,16.15,0,0,0,.82-1.91c.23-.59.42-1.41,1-1.78s.67.21.57.61c-.18.74-.49,1.48-.73,2.21-.07.21-.83,2.28-.77,2.31.33.21.57-.2.71-.44.54-.92,1-1.89,1.47-2.82.09-.17.23-.48.41-.57a.42.42,0,0,1,.32-.13c.91.12-.94,3.46-1.13,3.85a4.2,4.2,0,0,0-.26.52c-.1.33.24.18.38.07a6.81,6.81,0,0,0,.7-.72l.8-.77c.12-.12.23-.26.36-.38a.58.58,0,0,1,.33-.14.3.3,0,0,1,.29.2C112.42,25.77,112,26.16,111.76,26.4Z"/><path class="cls-18" d="M101,48c-.2.41-.39.82-.6,1.22-.27.55-.54,1.11-.85,1.64a13.61,13.61,0,0,1-3.78,3.93,3.14,3.14,0,0,1-1.76.59,5.44,5.44,0,0,1-3-.92l-.15-.93a3,3,0,0,0,.89.5,5,5,0,0,0,4-.37,8.67,8.67,0,0,0,.9-.5A12.42,12.42,0,0,0,101,47.71Z"/><path class="cls-22" d="M112,25.45c.08-.11.27,0,.31.1a.5.5,0,0,1-.11.38c-.55.87-1.48,1.45-2.1,2.29-.16.23-.31.47-.48.71s-.46.54-.66.83-.38.67-.58,1c-.59,1-1.61,2.32-2.94,1.84a1.13,1.13,0,0,1-.35-.21.71.71,0,0,1,0-1c.41-.41,1.13-.17,1.64-.44s.42-.69.58-1.07a4.82,4.82,0,0,0,.47-1.51.34.34,0,0,0,0-.2c-.07-.15-.26-.17-.43-.2a.79.79,0,0,1-.5-.28.42.42,0,0,1,0-.55.61.61,0,0,1,.44-.13,4.39,4.39,0,0,1,.89.06,1,1,0,0,1,.39.12c.14.1.22.26.37.35a.66.66,0,0,0,.69,0,2.22,2.22,0,0,0,.55-.47,13.9,13.9,0,0,1,1.56-1.4A.93.93,0,0,0,112,25.45Z"/><path class="cls-22" d="M108.57,21.89l0,0,.34-.18a.18.18,0,0,0,0-.07Z"/><path class="cls-22" d="M108,26.62c.11-.45.69-2,.75-2.19.24-.73.55-1.47.73-2.21.07-.28,0-.62-.23-.69a.19.19,0,0,0-.1.08l-.22.12a.82.82,0,0,1,0,.62,13.92,13.92,0,0,1-1.54,3.38,1.19,1.19,0,0,0-.21.76c0,.27.35.5.58.36A.56.56,0,0,0,108,26.62Z"/><path class="cls-68" d="M108.71,24.43c.24-.73.55-1.47.73-2.21a.71.71,0,0,0-.1-.6l-.21.13a.87.87,0,0,1,.08.62,13.86,13.86,0,0,1-1.32,3.48,1.24,1.24,0,0,0-.16.77.38.38,0,0,0,.09.18.86.86,0,0,0,.14-.18C108.07,26.17,108.65,24.61,108.71,24.43Z"/><path class="cls-22" d="M109.52,27.35c-.06,0-.1-.06-.06-.2a5.2,5.2,0,0,1,.26-.53c.18-.35,1.78-3.25,1.29-3.76a.06.06,0,0,0,0,0,14.15,14.15,0,0,1-1.72,3.29,1.17,1.17,0,0,0-.25.75A.45.45,0,0,0,109.52,27.35Z"/><path class="cls-69" d="M109.61,26.27a1.18,1.18,0,0,0-.23.76.67.67,0,0,0,.07.18s0,0,0-.06a5.2,5.2,0,0,1,.26-.53,14.26,14.26,0,0,0,1.37-3.29A16.87,16.87,0,0,1,109.61,26.27Z"/><path class="cls-17" d="M105.42,33.38a5.89,5.89,0,0,0-.51,2.52c-.29,2.39-1.85,4.42-3.36,6.31a15.81,15.81,0,0,0-2.22,3,17.14,17.14,0,0,1-2,3.18c-1.55,2-3.38,3.83-4.75,6-.56.89.54,1.06,1.2,1.06a4.59,4.59,0,0,0,2.83-1.26,13,13,0,0,0,2.9-3.3c.31-.53.58-1.09.85-1.64.82-1.64,1.59-3.31,2.34-5,.9-2,1.78-4.05,2.58-6.11.44-1.11.86-2.23,1.23-3.37a7.56,7.56,0,0,1,1.12-2.82l.06-.08a3,3,0,0,0-.56.23A4.13,4.13,0,0,0,105.42,33.38Z"/><path class="cls-70" d="M110.49,27.86c.43-.48.85-1,1.27-1.46a2.27,2.27,0,0,0,.56-.79.25.25,0,0,0-.13.12A8.29,8.29,0,0,1,111,27.19c-.34.33-.71.64-1,1a11,11,0,0,0-1.16,1.64c-1.52,2.5-2.91,2.57-3,4.29C105.67,36.73,102,45.69,99,51a10.91,10.91,0,0,1-1.53,2.44,13.41,13.41,0,0,0,2.09-2.56c.31-.53.58-1.09.85-1.64.82-1.64,1.59-3.31,2.34-5,.9-2,1.78-4.05,2.58-6.11.44-1.11.86-2.23,1.23-3.37a7.56,7.56,0,0,1,1.12-2.82,18.92,18.92,0,0,0,1.85-2.58A9.55,9.55,0,0,1,110.49,27.86Z"/><path class="cls-17" d="M92.83,50.8q3-6.36,6.1-12.71a40.55,40.55,0,0,1-3.81,5.8c-.56.72-1.15,1.41-1.65,2.17a18.29,18.29,0,0,0-2.06,4.81c-.18.59-.83,1.77.16,1.48C92.16,52.18,92.6,51.3,92.83,50.8Z"/><path class="cls-18" d="M95.14,44.17l3-4.53a25.65,25.65,0,0,1,3.2-4.19c.87-.85,1.85-1.58,2.76-2.38a1,1,0,0,0,.41-.58,1,1,0,0,0-.13-.53c-.27-.64-.55-1.28-.83-1.92a4.56,4.56,0,0,0-1-1.58,14.79,14.79,0,0,1,.32,1.49c.07.3.12.6.19.9a2,2,0,0,1,.11.72,2.26,2.26,0,0,1-.3.52c-.48.8-1,1.58-1.53,2.35-1.24,1.82-2.55,3.59-3.86,5.35s-2.47,3.3-3.66,5c-.44.62-.87,1.25-1.27,1.9a5.4,5.4,0,0,0-.64,1.24.5.5,0,0,0,0,.12A35.52,35.52,0,0,0,91,51.82a3,3,0,0,0,.91-1.61A25.4,25.4,0,0,1,95.14,44.17Z"/><path class="cls-18" d="M82.27,42.19c-.19.38-.36.89,0,1.19a.74.74,0,0,0,.82.08,2.78,2.78,0,0,0,.68-.56c.49-.47,1.06-.86,1.52-1.36.63-.7,1.26-3-.41-2.66C83.52,39.18,82.78,41.15,82.27,42.19Z"/><path class="cls-18" d="M29.32,36.43a1.42,1.42,0,0,0-.63.11c-1.37.12-2.77.22-4.27.32-.43.43-1,.74-1.45,1.15-.2.17-.39.36-.59.55A2.27,2.27,0,0,1,22.79,37a2.14,2.14,0,0,1,.7-.73,1.38,1.38,0,0,1,.67-.12H25A35.53,35.53,0,0,1,29.32,36.43Z"/><path class="cls-17" d="M13.32,35.69v0c-.16.22-.07.41.11.61a2.39,2.39,0,0,0,1.4.64,5.57,5.57,0,0,1,1.52.39.63.63,0,0,0,.49.12A.35.35,0,0,0,17,37a.57.57,0,0,0-.35-.33,2,2,0,0,0-.48-.12,4.44,4.44,0,0,1-1.5-.55A1.87,1.87,0,0,0,13.32,35.69Z"/><path class="cls-17" d="M13.7,34.73c-.06,0-.13-.13-.1-.2s0-.05.06-.07a1,1,0,0,1,.94,0,9.85,9.85,0,0,1,1.65.91c.28.19,1,.53.49.86s-1-.15-1.39-.38A13.66,13.66,0,0,1,13.7,34.73Z"/><path class="cls-17" d="M17.17,40.32c.31-.15.69-.22.88-.5.05-.07.08-.16.14-.23.23-.33.71-.31,1.11-.33a3.61,3.61,0,0,0,2.29-1c.13-.12.28-.26.44-.22a.33.33,0,0,1,.21.35.78.78,0,0,1-.2.38,3.79,3.79,0,0,1-1.68,1.07,16.44,16.44,0,0,1-2,.47,2.38,2.38,0,0,0-1,.41,2.52,2.52,0,0,0-.51.7c-.09.17-.25.65-.49.61s-.18-.39-.14-.57A1.77,1.77,0,0,1,17.17,40.32Z"/><path class="cls-17" d="M20.06,35.11a3.75,3.75,0,0,0-1.15.24,2.73,2.73,0,0,0-.65.48,2.62,2.62,0,0,0-.68.91,1.21,1.21,0,0,0,.08,1.11,2,2,0,0,0,1.14.66.26.26,0,0,1,.14.09c.07.13-.14.26-.16.41a1.19,1.19,0,0,0,.65,0,6.43,6.43,0,0,0,3.32-2.37,1.68,1.68,0,0,0,.5-.91.91.91,0,0,0-.36-.78c-.37-.27-.73-.11-1.12,0A14,14,0,0,1,20.06,35.11Z"/><path class="cls-17" d="M17.19,35.65c.09.05.21.09.29,0a.25.25,0,0,0,.06-.18,1,1,0,0,0-.1-.44,1.92,1.92,0,0,0-.58-.59l-1.14-.84c-.21-.16-.65-.66-.92-.38s1,1.44,1.28,1.66A9.31,9.31,0,0,0,17.19,35.65Z"/><path class="cls-17" d="M18.67,34.82c.08.06.19.12.28.07a.26.26,0,0,0,.09-.17,1,1,0,0,0-.05-.45,1.84,1.84,0,0,0-.49-.66l-1-1c-.19-.19-.55-.74-.85-.5s.79,1.56,1,1.82A8.39,8.39,0,0,0,18.67,34.82Z"/><path class="cls-18" d="M17,35.81l.18.08c-.06,0-.2-.36-.27-.43s-.22-.21-.38-.16C16.06,35.46,16.83,35.75,17,35.81Z"/><path class="cls-33" d="M79.91,77.28s-1.14.94-3-2.53c-.72-1.31-1.82-1.76-2.66-1.43l2.27,1.4a5.05,5.05,0,0,1,1,4.69,20,20,0,0,0-1,2.65c-.22,1.29.31,2.66-.16,3.87a5.11,5.11,0,0,1-2.61,2.32,1.57,1.57,0,0,0,.24.32,4.09,4.09,0,0,0,3.79.64C78.72,88.76,80.7,83.83,79.91,77.28Z"/><path class="cls-28" d="M73.72,77.73c.22.45.66.91.45,1.36a1.13,1.13,0,0,1-.71.5l-2,.73c-.66.24-1.45.68-1.37,1.38s1,1,1.67.93a6.08,6.08,0,0,1,1.28,0,1.36,1.36,0,0,1,1,.69,2.5,2.5,0,0,1,.08,1.22,1.18,1.18,0,0,0,.41,1.11.9.9,0,0,0,1.2-.52,2.25,2.25,0,0,0,0-1.47,4.06,4.06,0,0,1-.28-1.45,4.32,4.32,0,0,1,.39-1.2,5.62,5.62,0,0,0,.52-3c-.11-.72-.78-2.26-1.69-2.28S73.36,77,73.72,77.73Z"/><path class="cls-71" d="M77.45,23.7a.36.36,0,0,0,0-.25c-.08-.18-.34-.19-.52-.3s-.25-.64-.11-1c.21-.48.5-1.26,1-1.52l-.08,0c-1,.76-1.32,3.07-1.52,3.55s-.12,1,.37,1c-.18-.27,0-.64.25-.86S77.35,24,77.45,23.7Z"/><path class="cls-18" d="M79.16,22.4a1.28,1.28,0,0,0,0-.55A1,1,0,0,0,78,21.24a1.08,1.08,0,0,0-.8,1,.56.56,0,0,0,0,.25c.07.12.22.16.34.23s.25.19.21.33a.57.57,0,0,1-.11.16,1.64,1.64,0,0,0-.26.37c-.32.64.38.86.78.45A3.61,3.61,0,0,0,79.16,22.4Z"/><path class="cls-72" d="M63.54,25.71a11.4,11.4,0,0,0-2.15.94,17.54,17.54,0,0,1-6.5,1.74c-2.31.16-4.9-.06-6.65,1.46-.23.21-.45.54-.29.8a.7.7,0,0,0,.45.25c1.64.34,3.3-.29,5-.58,3-.53,6.28.1,9.18-1a8.09,8.09,0,0,0,2.79-1.77C66.9,26.06,65,25.35,63.54,25.71Z"/><path class="cls-73" d="M71.21,65.35c-2-2.91-12.36-7.18-16.83-10.42l0,.11a36.54,36.54,0,0,0,4.93,3.53C61.5,59.89,63.86,61,66,62.4A13.8,13.8,0,0,1,71.19,68s0,.09.07.14A6,6,0,0,0,71.21,65.35Z"/><path class="cls-22" d="M105.07,31.9a.6.6,0,0,1,.2.22c.07.23-.15.44-.35.57l-3.66,2.44a2.53,2.53,0,0,1,1.07-1.84,2.65,2.65,0,0,0,1.08-1.78c0-.43-.71-1.57-.06-1.71A5.2,5.2,0,0,0,105.07,31.9Z"/><path class="cls-74" d="M94.71,44a35.57,35.57,0,0,0-2.7,5,4.41,4.41,0,0,0-.41,1.66A1.64,1.64,0,0,0,94,52.2,4,4,0,0,0,95.42,51c2.1-2.56,2.85-6,4.62-8.74,1.09-1.72,2.54-3.18,3.78-4.8.71-.92,1.83-2.49,1.34-3.74s-2,0-2.61.53a24,24,0,0,0-5.43,5.94C96.27,41.44,95.49,42.71,94.71,44Z"/><path class="cls-75" d="M104,30.81a2.51,2.51,0,0,0,1.54,1.07,2.44,2.44,0,0,0,1.83-.51,5.51,5.51,0,0,0,1.29-1.47,2.64,2.64,0,0,0,.59-1.59.89.89,0,0,0-.19-.54,1.18,1.18,0,0,0-1-.25,1.84,1.84,0,0,1-1.07-.09,2.55,2.55,0,0,1-.45-.42,1.36,1.36,0,0,0-1.57-.36c-.44.26-.61.79-1,1.1-.24.18-.71.25-.89.5s.12.84.24,1.15A6.22,6.22,0,0,0,104,30.81Z"/><path class="cls-22" d="M101.14,26.24a11.85,11.85,0,0,0,1.12,1.54,3.47,3.47,0,0,1,.39,1,1,1,0,0,0,.42.21,4.75,4.75,0,0,0-.73-1.54c-.4-.48-1-.84-1.26-1.4A.76.76,0,0,0,101.14,26.24Z"/><path class="cls-22" d="M104.6,27.13v.09l0-.1Z"/><path class="cls-22" d="M106,26.35a1.12,1.12,0,0,1,0-.2,3.38,3.38,0,0,1,.29-1.11c.32-.92.55-1.88.8-2.82a2.54,2.54,0,0,0,.09-.61.71.71,0,0,0-.08-.18.18.18,0,0,0-.1-.09c-.11-.05-.23.07-.29.17a12.26,12.26,0,0,0-1.16,2.74c-.21.67-.62,1.41-.2,2.08a.43.43,0,0,0,.49.24C106,26.51,106.05,26.45,106,26.35Z"/><path class="cls-76" d="M107.11,22.22a2.29,2.29,0,0,0,.08-.45,12.76,12.76,0,0,0-1,2.54c-.22.67-.63,1.42-.21,2.08l.06.09a.15.15,0,0,0,0-.13,1.12,1.12,0,0,1,0-.2,3.38,3.38,0,0,1,.29-1.11C106.63,24.12,106.86,23.16,107.11,22.22Z"/><path class="cls-22" d="M101.08,26a.6.6,0,0,1,.67-.23,1.3,1.3,0,0,1,.65.51c.67.91.87,2.11,1.59,3a.56.56,0,0,0,.33.22c.29,0,.42-.33.46-.61a13.3,13.3,0,0,0,0-2.6,1.55,1.55,0,0,0-.06-.31c-.26.73-.7,1.52-1.45.93-.57-.45-1-1.29-1.82-1.29A.37.37,0,0,0,101.08,26Z"/><path class="cls-77" d="M76.28,74.4l.17.31h0a5,5,0,0,1,.73,1.14A3.18,3.18,0,0,0,78.54,77a7.53,7.53,0,0,1-1.67-2.23,3,3,0,0,0-1.46-1.41A3.37,3.37,0,0,1,76.28,74.4Z"/><path class="cls-78" d="M79.91,77.28a.71.71,0,0,1-.54.11,24.56,24.56,0,0,1-1.69,11.87l.11-.05C78.72,88.76,80.7,83.83,79.91,77.28Z"/><path class="cls-79" d="M84,17.29c.52-1-.81-1.6-1.52-1.72a6.37,6.37,0,0,0-3.15.43,3.7,3.7,0,0,0-1.59,1,1.6,1.6,0,0,0-.28,1.76c.37.69,1.25.86,2,1.13a1.23,1.23,0,0,1,.85.74,1.21,1.21,0,0,1-.07.7,8.06,8.06,0,0,1-2.34,3.51,6.29,6.29,0,0,0-.71.65,3.13,3.13,0,0,0-.64,2.32,5.14,5.14,0,0,0,2.06,3.65c.27-.67-.25-1.39-.21-2.11a3.49,3.49,0,0,0,0-.72c-.06-.33-.33-.59-.45-.9a2.11,2.11,0,0,1,.16-1.43A6.63,6.63,0,0,1,80,23.18a8.9,8.9,0,0,0,1-.76,1.89,1.89,0,0,0,.48-1.54c-.11-.71-.62-1.36-.55-2.07a.51.51,0,0,1,.09-.27.49.49,0,0,1,.26-.15,22,22,0,0,0,2.31-.68A1,1,0,0,0,84,17.29Z"/><path class="cls-80" d="M86.68,16.85c-1.37-.4-3.07,1-1.51,2.13a4.09,4.09,0,0,1,1.19,1.08c.5.73.88,1.54,1.39,2.26a1.07,1.07,0,0,0,.34.33c.34.17.75-.08,1-.38a2.7,2.7,0,0,0,.19-2.67,6.67,6.67,0,0,0-1.73-2.19A2.29,2.29,0,0,0,86.68,16.85Z"/><path class="cls-26" d="M107.19,46.73s-12.66-5.82-12.87-6.49S93.83,39,107.19,46.73Z"/><path class="cls-26" d="M88.64,56.26s-9.8-4.51-10-5S78.3,50.24,88.64,56.26Z"/><path class="cls-81" d="M37.12,101.27c-10.85,10.77-21,18.15-22.65,16.48S20.27,106,31.12,95.22s21-18.15,22.65-16.48S48,90.5,37.12,101.27Z"/><path class="cls-82" d="M36,100.1c-12,11.93-22.58,20.77-23.6,19.75s7.9-11.53,19.92-23.46,22.59-20.77,23.6-19.74S48,88.17,36,100.1Z"/><ellipse class="cls-83" cx="61.04" cy="110.15" rx="4.07" ry="15.62" transform="translate(-56.38 64.64) rotate(-39.82)"/><path class="cls-84" d="M59.12,111.75C53,104.42,48.91,97.75,50,96.87s6.88,4.34,13,11.68,10.22,14,9.16,14.88S65.24,119.09,59.12,111.75Z"/><path class="cls-85" d="M80.38,57.16C69.55,71.82,58.24,81.83,55.12,79.53s3.14-16.05,14-30.71S91.24,24.15,94.36,26.45,91.22,42.51,80.38,57.16Z"/><ellipse class="cls-86" cx="74.74" cy="52.99" rx="36.55" ry="4.31" transform="translate(-12.3 81.59) rotate(-53.53)"/><ellipse class="cls-87" cx="57.29" cy="43.25" rx="22.13" ry="5.52" transform="translate(-4.96 78.99) rotate(-66.91)"/><path class="cls-88" d="M60.41,44.58c-5.31,12.45-11,22-12.73,21.21s1.19-11.42,6.5-23.87,11-22,12.73-21.22S65.72,32.12,60.41,44.58Z"/><path class="cls-89" d="M31.6,27.41c11.83-3.05,22-3.13,22.81-.18s-8.22,7.82-20.06,10.86-22,3.13-22.81.18S19.76,30.45,31.6,27.41Z"/><path class="cls-90" d="M32.13,29.47c13.11-3.38,24.11-4.65,24.58-2.83s-9.78,6-22.89,9.39S9.7,40.68,9.24,38.86,19,32.84,32.13,29.47Z"/><ellipse class="cls-91" cx="100.15" cy="41.69" rx="12.7" ry="3.17" transform="translate(12.74 105.94) rotate(-58.92)"/><path class="cls-92" d="M98.76,40.86c3.34-5.54,6.67-9.66,7.43-9.2s-1.32,5.33-4.66,10.87-6.67,9.66-7.43,9.2S95.42,46.4,98.76,40.86Z"/><path class="cls-93" d="M62.83,20.08c4.43-1.14,8.64.33,9.4,3.28S70,29.63,65.58,30.77s-8.65-.33-9.41-3.28S58.39,21.22,62.83,20.08Z"/><ellipse class="cls-94" cx="64.2" cy="25.42" rx="9.18" ry="3.39" transform="translate(-4.31 16.81) rotate(-14.44)"/><path class="cls-95" d="M94.42,43.17c2,4.13,1.33,8.55-1.43,9.85s-6.58-1-8.54-5.12S83.13,39.35,85.88,38,92.46,39,94.42,43.17Z"/><path class="cls-96" d="M92.5,44.08c2.17,4.58,2.56,9,.87,9.75s-4.82-2.26-7-6.85S83.81,38,85.5,37.23,90.33,39.5,92.5,44.08Z"/><path class="cls-97" d="M89.06,31.16c-2.25,4-6.23,6-8.88,4.51s-3-6-.74-9.94,6.23-6,8.88-4.51S91.31,27.17,89.06,31.16Z"/><ellipse class="cls-98" cx="84.25" cy="28.44" rx="9.18" ry="3.39" transform="translate(18.09 87.86) rotate(-60.58)"/><path class="cls-99" d="M30.72,97.42c-8.25,10-15.82,17.28-16.91,16.38s4.72-9.7,13-19.65S42.61,76.87,43.7,77.77,39,87.47,30.72,97.42Z"/><path class="cls-100" d="M30,96.79c-9.14,11-17.09,19.5-17.76,18.95s6.2-9.94,15.34-21,17.09-19.5,17.76-19S39.1,85.77,30,96.79Z"/><g class="cls-101"><path class="cls-102" d="M9.08,109.82A2.15,2.15,0,0,0,8.47,111c-.2.84.92,2.73,1.81,4.71a6.88,6.88,0,0,1,.28,3.24A6.89,6.89,0,0,0,14,125.16a5.6,5.6,0,0,0,.62.3A1.78,1.78,0,0,0,16,124.9C16.11,124.59,10.78,110,9.08,109.82Z"/><path class="cls-103" d="M14.59,108.42s.6,0,.31,1.09a4.52,4.52,0,0,0,1.2,4.15c.87.85-.13,3-.34,5.09-.45,4.44,1.7,5.6-.26,6.52a7.5,7.5,0,0,1-4.21-7.64c.53-3.48-2.92-5.41-2.21-7.81C10.55,107.64,12.77,109,14.59,108.42Z"/></g></g></g></g></svg>