<svg xmlns="http://www.w3.org/2000/svg" viewBox="0 0 1067.61 1179.39"><defs><style>.cls-1{fill:#7689d6;}.cls-2{fill:#4867aa;}.cls-3{fill:#f99370;}.cls-4{fill:#fff;}.cls-5{fill:#eb5648;}.cls-6{fill:#ce3932;}.cls-7{fill:#e2795d;}.cls-8{fill:#d4e8ff;}.cls-9{fill:#8e4a35;}.cls-10{fill:#e57d61;}.cls-11{fill:#c16256;}.cls-12{fill:#fdffde;}.cls-13{fill:#1d3f70;}.cls-14{fill:#163356;}</style></defs><g id="Camada_2" data-name="Camada 2"><g id="Ñëîé_1" data-name="Ñëîé 1"><g id="_3" data-name="3"><path class="cls-1" d="M1057.47,1120.76a124.79,124.79,0,0,1-30.3,21.86c-33.82,17.44-124.14,46.2-191.92,23.5s-84.61-71.82-88.22-92.56c-4-23.49,3.48-84.65,54-121.91.9-.68,1.84-1.35,2.78-2l11.35,5.56s-39.5,26.15-44.79,88.33c-5.74,67.3,69.81,104.86,132.48,101s129.53-25.07,154-37.61C1072.29,1099,1069.88,1108.38,1057.47,1120.76Z"/><path class="cls-2" d="M1057.47,1120.76a124.79,124.79,0,0,1-30.3,21.86c-33.82,17.44-124.14,46.2-191.92,23.5s-84.61-71.82-88.22-92.56c-4-23.49,3.48-84.65,54-121.91l.24,8.87s-37.75,30.67-43,73.47,16.47,89.25,67.79,114.63S956.56,1167.61,1057.47,1120.76Z"/><path class="cls-1" d="M823.14,708.71,783,874.53a138.64,138.64,0,0,0-4.21,33.13c0,18.62,4,42.54,22.47,52.87l70-222.11Z"/><path class="cls-1" d="M159,1177.55a125.14,125.14,0,0,1-34.47-14.43C92,1143.38,20.3,1081.36,4.27,1011.71S21.35,902.05,37.15,888.14c17.93-15.7,74-41.24,132.17-17.59,1.05.41,2.12.86,3.18,1.31l1.19,12.58s-42.92-20-98.72,7.93c-60.4,30.24-53,114.28-17,165.71s89,97.38,112.48,111.69C185.29,1178.82,176,1181.66,159,1177.55Z"/><path class="cls-2" d="M159,1177.55a125.14,125.14,0,0,1-34.47-14.43C92,1143.38,20.3,1081.36,4.27,1011.71S21.35,902.05,37.15,888.14c17.93-15.7,74-41.24,132.17-17.59l-7.44,4.83S116,859.2,76.75,877,9.24,937.69,14.38,994.71,66.34,1116,159,1177.55Z"/><path class="cls-1" d="M388.06,762.55,225.69,814.93a139.06,139.06,0,0,0-30.45,13.71c-15.86,9.73-34.19,25.62-33.36,46.76l226-56.3Z"/><path class="cls-3" d="M769.35,239.35C803,265.14,827,312.42,866.2,332.56c22.62,11.87,44.28,12,66.07-1.16,41.67-22.7,70.25-65.9,94.4-106.15,9.19-12.78,30.66-2.81,27.1,12.3a275.64,275.64,0,0,1-43.7,103.62c-18.55,26.45-42.71,49.07-72.23,63.05-89.94,39.59-183.45-34-240.9-97.46C652.88,259.27,713.89,202.94,769.35,239.35Z"/><path class="cls-4" d="M675.55,620.68c-53.29,83.19-122.09,157.58-204.5,212.39-15.61,10-34.44,24.79-53.18,22.19-33.94-3-59.78-43.34-41.67-75.57,59.76-67.41,107.87-147,132.31-234.51C558.39,436.14,724.43,511.27,675.55,620.68Z"/><path class="cls-5" d="M652.39,661.86C636.45,715.81,576.28,769,538.85,796.5c-15.66,11.67-26.44,18.4-26.44,18.4-54.67-1.78-118.93-81.23-116-83.28,33-40.8,50.69-108.81,55.4-148.69Z"/><path class="cls-6" d="M652.39,661.86q-1.36,4.53-3.11,9A168.34,168.34,0,0,1,634,700.52c-4.2,6.59-8.84,13-13.76,19.31-16.84-6.11-42.63-14.36-81.38-24.53-90.77-23.82-92-82.95-92-82.95h79.71Z"/><path class="cls-6" d="M649.28,670.85A168.34,168.34,0,0,1,634,700.52c-25.87,40.55-67.88,75.7-95.11,96h0c-15.66,11.67-26.44,18.4-26.44,18.4a125.16,125.16,0,0,1-24.19-6c2.09-2.55,5.52-5,10.51-7.47,60.13-29.13,112.32-111.49,112.32-111.49Z"/><path class="cls-4" d="M906.86,752.38c-18,14.41-43.53,9.59-63.68-3.37C777,717.44,706.24,696.76,635.54,677.6q-30.64-8-61.5-15c-143.77-24-76.91-243.35,62.36-172.21A1896.16,1896.16,0,0,1,819.26,599.14c25.4,17.22,50.12,35.23,73.55,54.87C932.65,681.26,946.06,721.22,906.86,752.38Z"/><path class="cls-3" d="M1020.61,180.32c-6.71,19.46-5.41,40.05-3,60.12l32.3,14.27h0s19.33-26,14.6-44c-.29,0-29.66-25.25-35.38-15.64a54.14,54.14,0,0,1,1.8-11.28C1032.92,177.33,1022.93,174,1020.61,180.32Z"/><path class="cls-3" d="M1062.9,216.18c7.07-14.32-8.46-22.06-8.51-4.86l.12-.24C1050.66,218.43,1059.45,223.17,1062.9,216.18Z"/><path class="cls-3" d="M1057,209.37c5.47-18.9-13.93-17.16-9.27-3.85-.06-.23,0,.94-.17,1.23,0,0,0,.16,0-.05C1045.07,214.88,1055,216.61,1057,209.37Z"/><path class="cls-3" d="M1048.91,202.1l.36-6c.24-8.46-10.15-5.9-10.17,1.16l-.36,6C1038.5,211.72,1048.89,209.15,1048.91,202.1Z"/><path class="cls-3" d="M1040.18,198.16l.36-6c.24-8.46-10.15-5.9-10.16,1.16l-.36,6C1029.77,207.78,1040.16,205.21,1040.18,198.16Z"/><path class="cls-7" d="M1065.44,210.7a1.13,1.13,0,0,1,0,.18c-1.85,8.2-5.65,9.87-7.2,10.21a4.24,4.24,0,0,1-4.41-1.56c-1.29-1.68-1.31-4.13,0-6.54a.89.89,0,1,1,1.58.82c-.94,1.79-1,3.52-.12,4.65a2.49,2.49,0,0,0,2.62.89c1-.2,4.18-1.46,5.85-8.86a.9.9,0,0,1,1.06-.68A.91.91,0,0,1,1065.44,210.7Z"/><path class="cls-7" d="M1058.82,201.9h0c-.29,9.49-3.44,12.23-5.29,13a4.63,4.63,0,0,1-5-.94,7.19,7.19,0,0,1-1.81-7.39v0a.84.84,0,0,1,1.42-.56.88.88,0,0,1,.33.91s0,0,0,.05a5.44,5.44,0,0,0,1.25,5.71,2.91,2.91,0,0,0,3.16.63c2.44-1,4-5.32,4.2-11.45a.89.89,0,0,1,1.78.05Z"/><path class="cls-7" d="M1050.11,197.51v0l-.32,4.61a7.38,7.38,0,0,1-3.78,6.43,5.74,5.74,0,0,1-5.71.2c-1.65-1-2.49-2.89-2.45-5.56a.91.91,0,0,1,.92-.87.9.9,0,0,1,.86.91v.09c0,1.91.51,3.26,1.58,3.91a4,4,0,0,0,3.93-.23,5.59,5.59,0,0,0,2.88-4.95l.32-4.66a.89.89,0,0,1,.94-.83A.9.9,0,0,1,1050.11,197.51Z"/><path class="cls-7" d="M1041.32,194v0l-.25,4.2a7.38,7.38,0,0,1-3.78,6.44,5.73,5.73,0,0,1-5.72.2c-1.65-1-2.48-3-2.44-5.56.34-5.78.34-5.78,1.2-5.76a.89.89,0,0,1,.63.29.91.91,0,0,1,.23.66c0,.15-.29,4.89-.29,4.89-.09,1.94.49,3.3,1.59,4a4,4,0,0,0,3.93-.23,5.5,5.5,0,0,0,2.87-4.95l.26-4.25a.88.88,0,0,1,.93-.83A.89.89,0,0,1,1041.32,194Z"/><path class="cls-7" d="M1037.41,234.84a.89.89,0,0,1-1.77,0,60.66,60.66,0,0,0-4.84-18.52c-4.31-9.44-2.91-20.57-2.85-21.05a.89.89,0,0,1,1.76.23c0,.11-1.39,11.12,2.71,20.08a61.52,61.52,0,0,1,5,19.14Z"/><path class="cls-8" d="M417.87,855.26a44.15,44.15,0,0,1-4.77-.67,263,263,0,0,1-36.22-72.72c-.23-.73-.46-1.46-.68-2.18.73-1.31,1.54-2.62,2.43-3.9q.75,2.52,1.59,5.14A258.19,258.19,0,0,0,417.87,855.26Z"/><path class="cls-8" d="M471.05,833.07l-2.88,1.9a447.09,447.09,0,0,1-43.67-89.2c-2.27-6.29-4.26-12.26-6-17.81.88-1.17,2.61.42,3.47-.77A431.4,431.4,0,0,0,471.05,833.07Z"/><path class="cls-8" d="M846.64,750.73,843.18,749c.07-49-8.56-93.49-16.54-124.14-2.46-9.42-5-18-7.38-25.73l4.58,3.11c2,6.63,4.1,13.88,6.13,21.68C838.1,655.14,846.92,700.7,846.64,750.73Z"/><path class="cls-8" d="M906.86,752.38c-1.06.76-2.15,1.47-3.26,2.13-4.4-40.3-10-76.1-14.91-103.94,1.38,1.14,2.75,2.28,4.12,3.44C897.51,680.89,902.68,714.64,906.86,752.38Z"/><path class="cls-5" d="M868.28,613.51c-5.5,85.4-80.89,126.8-80.89,126.8-35.5-12.37-103.63-33.18-153.4-39.79-137.93-2.74-239.16-66.42-171.32-195.91C527.15,506.34,776.29,524.14,868.28,613.51Z"/><path class="cls-9" d="M808.34,116.79s8.67-26.29,6.8-47.15l-17.47,2.12Z"/><path class="cls-3" d="M741.48,204.37l-6,16.16s13,101.38-13.29,97.09c-36.59-6-35.88-119.56-35.88-119.56s5.5-9,7.78-16.27Z"/><path class="cls-10" d="M699.73,161.78c-.07.37.63,2.13-7.23,24.68,17.81,17,42.9,21.06,47.53,21.68,9.28-23.5,5.72-19.74,8.67-26.21C749,179.14,701.26,154.42,699.73,161.78Z"/><path class="cls-3" d="M782.11,193.41c-23.37,12.11-68.89,5.28-90-19h0a53.57,53.57,0,0,1-4.18-6h0c-19.52-36.51-9.6-92.86,19.26-120.79C743.32,10,805.54,32.23,804.29,86.3,804.17,131.47,837.19,164.87,782.11,193.41Z"/><path class="cls-11" d="M770,112.8a3.54,3.54,0,1,0-5-.1A3.54,3.54,0,0,0,770,112.8Z"/><path class="cls-11" d="M799.7,117.9a3.54,3.54,0,1,0-5-.1A3.54,3.54,0,0,0,799.7,117.9Z"/><path class="cls-11" d="M780.9,143.8a14.42,14.42,0,0,1-5.5-2.38,1.34,1.34,0,1,1,1.62-2.14c3.76,2.84,10.5,2.81,12,1.18.52-.58-.15-1.56-.81-2.29-5.8-6.38-5.87-21.63-5.87-22.28a1.34,1.34,0,1,1,2.68,0c0,.15.06,14.86,5.17,20.48,2.79,3.07,1.49,5.14.81,5.9C789.2,144.23,784.89,144.69,780.9,143.8Z"/><path class="cls-10" d="M804.29,86.3c-19-18-48.27-17.89-67.26-24.93,0,0-6.2,28.81-40.9,38.77L684.9,124.63s-3.66,29.54,7.24,49.8h0a53.57,53.57,0,0,1-4.18-6h0c-19.52-36.51-9.61-92.86,19.26-120.79C743.3,10,805.55,32.23,804.29,86.3Z"/><path class="cls-9" d="M836.66,35.5c-3.24-24.16-30.19-46.08-65.66-30C743.69,17.9,721.6,10,714.88,30.76c-47.64,4.35-43,56.83-43,56.83l21.47,4.75c30.2-10.86,39.26-39.16,39.26-39.16h0c22.72,7.55,50,6,70.64,23.9C818.1,89.34,840.28,62.5,836.66,35.5Z"/><ellipse class="cls-3" cx="679.67" cy="105.34" rx="20.77" ry="16.71" transform="translate(488.26 765.96) rotate(-82.65)"/><path class="cls-11" d="M688.23,96.23c-10-9-20.33-2.28-19.88,13.63,3.55,6.21,3.16-10.85,4.81-11,6.86,3.84,7.6,13.37,7.61,13.47,5,5.56,2.61-11.18-6.16-15.73C679.2,90,690.25,103.47,688.23,96.23Z"/><path class="cls-12" d="M692.55,121.32l-7-12.44a5.94,5.94,0,0,0,.42-1.58,6,6,0,1,0-6.91,5.26l7,12.43a3.73,3.73,0,0,0,6.49-3.67Z"/><path class="cls-3" d="M221,375.16C217,381,220.4,386.43,225,385.23a5.12,5.12,0,0,0,5.87,7.91c-2.7,7.83,6.22,9.59,14.42.88-.67.64-12.05,13.8-6.85,17.36,10.57,7.25,44.41-44.61,47.83-47.88l-20.88-26.72-.05,0s-35.58,13.54-46.19,26.65C211.8,372.49,215.85,377.9,221,375.16Z"/><path class="cls-3" d="M760.21,238.61c-3.54-8.5-24.74-18.08-24.74-18.08L686.3,198.06c-183-34.72-328.44-15-431.94,151-12.57,14.67,5.63,35.17,21.17,23.22,87.43-69,139.28-113.34,256-98.23-15.16,61.2,12.76,128-68.84,230.57,139.62,70.28,257.93,34.3,257.93,34.3C717.39,412.08,811.58,361.87,760.21,238.61Z"/><path class="cls-6" d="M261.22,338.78s8.08,18.43,25.07,24.72c0,0,17.18-6.44,21.51-16.88,0,0-18.88-10.25-30.49-29.8C277.31,316.82,265.15,324.56,261.22,338.78Z"/><path class="cls-6" d="M1017.64,240.44s8.21,13.21,31.63,16.23c0,0,2.18,14.23-7.32,23,0,0-18.59,4.2-38.58-17.84C1003.37,261.83,1007.24,248.17,1017.64,240.44Z"/><path class="cls-11" d="M779.08,155.75a1.54,1.54,0,0,1-.3,0c-14.48-3.45-18.25-14.76-18.4-15.24a1.3,1.3,0,0,1,2.47-.79c.14.44,3.54,10.41,16.53,13.5a1.3,1.3,0,0,1-.3,2.57Z"/><path class="cls-11" d="M780.4,99.59a1.28,1.28,0,0,1-.65-.18c-8.1-4.78-18.91-3-19-2.94a1.3,1.3,0,0,1-.45-2.56c.48-.08,11.85-2,20.79,3.26a1.3,1.3,0,0,1-.67,2.42Z"/><path class="cls-11" d="M803.9,106.64a1.29,1.29,0,0,1-.95-.41c-4.06-4.35-11-3.28-11-3.27a1.3,1.3,0,0,1-.43-2.57c.34,0,8.32-1.32,13.35,4.07a1.29,1.29,0,0,1-.07,1.83A1.25,1.25,0,0,1,803.9,106.64Z"/><path class="cls-6" d="M538.85,796.5c-15.66,11.67-26.44,18.4-26.44,18.4-72-10.26-116-83.28-116-83.28A187.92,187.92,0,0,0,411,710.19C456.52,787.4,538.85,796.5,538.85,796.5Z"/><path class="cls-6" d="M868.28,613.51c-5.5,85.4-80.89,126.8-80.89,126.8s-13.21-4.77-34.57-11.35c86.94-45,97-129.17,97-129.17h0A224,224,0,0,1,868.28,613.51Z"/><path class="cls-6" d="M820.33,683.11c-49-27.28-141.54-45-209.08-58-15.84-3-30.79-5.9-43.39-8.55-17.6-3.7-30.29-12.48-37.72-26.09-17-31.12-.16-76.19.57-78.09l8.09,3.08-4-1.54,4,1.54c-.16.43-16.14,43.28-1,70.88,6.16,11.27,16.89,18.59,31.89,21.74,12.52,2.64,27.44,5.5,43.24,8.53,68.12,13.06,161.41,31,211.66,58.91Z"/><path class="cls-13" d="M772,345.24c-17.81,54-47.49,148-44.67,169.15.44,19.46-6.74,24.52-6.74,24.52s-121.54,44.79-257.94-34.3c0,0-12.58-5.92-7.94-15.87,40.91-53.37,58.1-107.25,72.26-185.64,66.1,38.34,128.14-65.22,110.81-111.51,0,0,17-3.05,25.41,4.11,0,0,2.67,84.23,42,100.42s43.47-68.38,43.47-68.38,14.45,2.76,20.64,11.61C769.35,239.35,783.05,293.28,772,345.24Z"/><path class="cls-14" d="M772,345.24l-.64,1c10.87-49-9.77-87.58-9.77-87.58s-8.4,63.58-54.33,53.41-54.89-79.37-54.89-79.37-8.62,46.42-41.12,79.37-89.44,15.22-89.44,15.22C525,313.08,527,303.1,527,303.1s51.31,27.79,88-24.62,22.79-86.89,22.79-86.89,17-3.05,25.41,4.11c0,0,2.67,84.23,42,100.42s43.47-68.38,43.47-68.38,14.45,2.76,20.64,11.61C769.35,239.35,783.05,293.28,772,345.24Z"/><path class="cls-2" d="M457.05,830.55c-3.53-1.3-92.42-12.09-91.79-17.38L161.88,875.4c9.51,27.47,24.41,1.55,49.74,20.74,38.49,30.28,132.81-20.32,174.21-27.91a53.94,53.94,0,0,0,15.11,3.89C421.07,877.72,495.28,846,457.05,830.55Z"/><circle class="cls-13" cx="370.96" cy="805.29" r="28.3" transform="translate(-314.17 242.53) rotate(-25.87)"/><path class="cls-2" d="M937.33,690.52c-1.05-10.24-13.19-13.34-20.17-5.14-2.89,2.26-58.63,72.56-62.75,69.21L801.3,960.53c28.39,6.24,14.06-20,43.65-31.59,45.92-17,52-123.88,67.16-163.15C936,749.51,940.31,713,937.33,690.52Z"/><circle class="cls-13" cx="850.67" cy="745.6" r="28.3" transform="translate(-280.51 748.63) rotate(-41.39)"/></g></g></g></svg>