<svg xmlns="http://www.w3.org/2000/svg" xmlns:xlink="http://www.w3.org/1999/xlink" viewBox="0 0 828.25 1138.78"><defs><style>.cls-1{fill:#d63f47;}.cls-2{fill:#515a5e;}.cls-3{fill:#808b8e;}.cls-4{fill:url(#linear-gradient);}.cls-5{fill:#526b75;}.cls-32,.cls-6{fill:#1d3647;}.cls-7{fill:#454454;}.cls-8{fill:#30303a;}.cls-9{fill:#6c787f;}.cls-10{fill:#2c2c35;}.cls-11{fill:#2a4f63;}.cls-12{fill:#fff;}.cls-13{fill:#6d183b;}.cls-14{fill:url(#linear-gradient-2);}.cls-15{fill:#bf3860;}.cls-16{fill:#300c1b;}.cls-17{fill:#c0365f;}.cls-18{fill:#952d4f;}.cls-19{fill:#fbd9b9;}.cls-20{fill:#bfbfbf;}.cls-21{fill:#ecf0f1;}.cls-22{fill:#9a2127;}.cls-23{fill:#ffb392;}.cls-24{fill:#d7c79c;}.cls-25{fill:#b2a383;}.cls-26{fill:#e87621;}.cls-27{fill:#fd9437;}.cls-28{fill:#a1adb2;}.cls-29{fill:#fcf0db;}.cls-30{fill:url(#linear-gradient-3);}.cls-31{fill:url(#linear-gradient-4);}.cls-32{opacity:0.7;}.cls-33{fill:#c8cec6;}.cls-34{fill:#e9eae8;}.cls-35,.cls-36,.cls-55{fill:#025a74;}.cls-35,.cls-72{opacity:0.5;}.cls-37{fill:url(#linear-gradient-5);}.cls-38{fill:url(#linear-gradient-6);}.cls-39{fill:url(#linear-gradient-7);}.cls-40{fill:#f7941d;}.cls-41{fill:#ffc20e;}.cls-42{fill:#c60;}.cls-43{fill:url(#linear-gradient-8);}.cls-44{fill:url(#linear-gradient-9);}.cls-45{fill:url(#linear-gradient-10);}.cls-46{fill:#c25457;}.cls-47{fill:#cc5c5c;}.cls-48{fill:#862243;}.cls-49{fill:#db6663;}.cls-50{fill:#af3a3a;}.cls-51,.cls-75{fill:#c14b4e;}.cls-51{opacity:0.6;}.cls-52{fill:#f3ad8d;}.cls-53{fill:#bc5b5b;}.cls-54{fill:#3d0f24;}.cls-55{opacity:0.8;}.cls-56{fill:#801705;}.cls-57{fill:#601106;}.cls-58{fill:#9e2e20;}.cls-59{fill:#e87c7c;}.cls-60{fill:#f17879;}.cls-61{fill:#37596b;}.cls-62{fill:#fcdd90;}.cls-63{fill:#bf4576;}.cls-64{fill:#772341;}.cls-65{fill:#fbca48;}.cls-66{fill:#601c38;}.cls-67{fill:#e49838;}.cls-68{fill:#eaf9ce;}.cls-69{fill:#c3ced1;}.cls-70{fill:#2c4f63;}.cls-71{fill:#2c4c5e;}.cls-72{fill:#b9e5fb;}.cls-73{fill:#ffefe1;}.cls-74{fill:url(#linear-gradient-11);}.cls-76{fill:#f65d62;}.cls-77{fill:url(#linear-gradient-12);}</style><linearGradient id="linear-gradient" x1="583.9" y1="835.29" x2="898.43" y2="835.29" gradientTransform="matrix(1, 0.03, -0.03, 1, -75.69, -7.97)" gradientUnits="userSpaceOnUse"><stop offset="0" stop-color="#7f0023"/><stop offset="0.17" stop-color="#60001b"/><stop offset="0.42" stop-color="#37000f"/><stop offset="0.66" stop-color="#190007"/><stop offset="0.86" stop-color="#070002"/><stop offset="1"/></linearGradient><linearGradient id="linear-gradient-2" x1="568.02" y1="1144" x2="650.04" y2="1144" gradientTransform="matrix(0.98, -0.2, 0.2, 0.98, -203.35, 61.84)" xlink:href="#linear-gradient"/><linearGradient id="linear-gradient-3" x1="432.6" y1="258.82" x2="399.24" y2="805.57" gradientUnits="userSpaceOnUse"><stop offset="0" stop-color="#008c8d"/><stop offset="1" stop-color="#285082"/></linearGradient><linearGradient id="linear-gradient-4" x1="384.03" y1="270.2" x2="477.21" y2="270.2" gradientUnits="userSpaceOnUse"><stop offset="0" stop-color="#f3af8e"/><stop offset="1" stop-color="#fbd9b9"/></linearGradient><linearGradient id="linear-gradient-5" x1="398.39" y1="372.23" x2="486.85" y2="135.84" xlink:href="#linear-gradient-4"/><linearGradient id="linear-gradient-6" x1="287.43" y1="612.49" x2="306.28" y2="468.91" xlink:href="#linear-gradient-4"/><linearGradient id="linear-gradient-7" x1="564.45" y1="493.46" x2="755.89" y2="297.67" xlink:href="#linear-gradient-4"/><linearGradient id="linear-gradient-8" x1="410.68" y1="196.98" x2="466.42" y2="81.11" gradientUnits="userSpaceOnUse"><stop offset="0" stop-color="#801705"/><stop offset="1" stop-color="#e16255"/></linearGradient><linearGradient id="linear-gradient-9" x1="456.04" y1="264.28" x2="494.72" y2="48.66" xlink:href="#linear-gradient-8"/><linearGradient id="linear-gradient-10" x1="506.3" y1="273.3" x2="544.98" y2="57.68" xlink:href="#linear-gradient-8"/><linearGradient id="linear-gradient-11" x1="121.36" y1="867.86" x2="412.64" y2="867.86" xlink:href="#linear-gradient"/><linearGradient id="linear-gradient-12" x1="398.91" y1="1068.84" x2="490.51" y2="1068.84" gradientTransform="translate(-435.74 311.14) rotate(-25.79)" xlink:href="#linear-gradient"/></defs><g id="Camada_2" data-name="Camada 2"><g id="Layer_23" data-name="Layer 23"><path class="cls-1" d="M731.81,795.48C689.27,677,612.64,600.47,560.65,624.56S501,764.23,543.52,882.7s119.16,195,171.16,170.92S774.34,914,731.81,795.48ZM701.53,1032c-42.4,19.41-107-50.11-144.42-155.3s-33.29-206.18,9.1-225.59,107,50.11,144.42,155.29S743.92,1012.53,701.53,1032Z"/><polygon class="cls-2" points="620.38 808.88 532.77 659.04 533.33 653.18 622.94 806.54 620.38 808.88"/><polygon class="cls-2" points="637.8 806.49 594.3 626.41 599.01 628.06 643.09 809.66 637.8 806.49"/><path class="cls-2" d="M648.87,895.37l28,161.31a15,15,0,0,0,12,3.17L653.41,893.22Z"/><polygon class="cls-2" points="662.19 857.96 767.06 984.99 770.74 974.86 664.48 854.08 662.19 857.96"/><path class="cls-2" d="M614,886.72l-21.55,79.1a8.93,8.93,0,0,0,7.1,8.6l19-86.58Z"/><path class="cls-2" d="M608,847.6l-81.34-24.81s-3.62-2.24-2.05-7.79l84.64,28.6Z"/><polygon class="cls-2" points="669.77 845.22 774.45 900.24 773.01 889.33 669.47 841.22 669.77 845.22"/><polygon class="cls-3" points="629.77 824.41 471.8 706.64 471.28 700.79 631.86 821.61 629.77 824.41"/><polygon class="cls-3" points="638.81 816.43 562.98 634.88 567.9 635.54 644.58 818.47 638.81 816.43"/><path class="cls-3" d="M644.69,873l92,148a15,15,0,0,0,12.35-1.42L648.21,869.31Z"/><polygon class="cls-3" points="662.08 845.92 798.14 951.79 799.9 941.11 663.62 841.65 662.08 845.92"/><path class="cls-3" d="M643.59,854.07l-15.54,173.55a8.74,8.74,0,0,0,8.55,7l11.64-180.36Z"/><path class="cls-3" d="M626.74,866.05l-148-5.56s-4-1.48-3.44-7.23l151.92,8.62Z"/><polygon class="cls-3" points="671.73 834.72 759.47 833.52 756.08 823.11 670.7 830.87 671.73 834.72"/><polygon class="cls-3" points="649.93 818.14 683.08 738.67 675.37 733.33 647 815.74 649.93 818.14"/><polygon class="cls-2" points="654.58 820.2 673.03 675.93 666.44 669.13 652.14 817.25 654.58 820.2"/><polygon class="cls-2" points="661.47 825.22 738.04 775.22 742.93 785.78 663.48 827.65 661.47 825.22"/><path class="cls-4" d="M772.33,799.32c-48.2-129-144.55-212.76-215.22-187.2s-88.89,150.82-40.69,279.76S661,1104.64,731.63,1079.08,820.52,928.26,772.33,799.32Zm-56.64,256.12c-57.6,20.59-138.55-55.5-180.82-170s-29.82-224,27.78-244.56,138.56,55.51,180.82,170S773.29,1034.84,715.69,1055.44Z"/><path class="cls-5" d="M500.17,603.12l6.28-30.61,22.6-.67s85.22,75,54.33,244.81l-28,2-48.91-20.36S472.46,738.33,500.17,603.12Z"/><path class="cls-6" d="M277.55,772.63s86.85-17.47,225.61-15.45c0,0,55,9.43,99.1,44.16l-3.59,33.88s-98.17,31.35-222.81,24.42c0,0-59.93-9.5-97.5-68.22Z"/><path class="cls-7" d="M564,695.22s89.43-17.53,143.71,25.65c0,0,20,71.2-22.08,206.49,0,0-25.56,18.38-37.66-14.48,0,0,42.08-93.31,21.18-167.28,0,0-57.28-14.34-85.81-7.45C583.35,738.15,551.16,738.38,564,695.22Z"/><path class="cls-6" d="M285.3,607.22s135-30.75,211.44,17.79c0,0,31.94,82,7.2,157.91,0,0-114.26-12.07-181,12.06C322.9,795,323.73,671.47,285.3,607.22Z"/><path class="cls-8" d="M506.45,572.51s68.14,26.7,54.1,223.9c0,0-19.93-6.82-58.41-19.4,0,0-5.68-87.28-23.78-150.6C478.36,626.41,478.36,594.47,506.45,572.51Z"/><path class="cls-2" d="M195.21,857S443,931,595.86,860.27c0,0,17.39,2.15,11.4,20.5,0,0-105,65.7-418.53,7.81C188.73,888.58,170.31,872.89,195.21,857Z"/><path class="cls-9" d="M611.84,865.21c12,20.65,34.77,29,50.91,18.64s19.53-35.48,7.55-56.13-34.77-29-50.91-18.63S599.87,844.57,611.84,865.21Z"/><path class="cls-2" d="M611.54,865.17c10.11,17.43,29.35,24.47,43,15.73S671,851,660.87,833.53s-29.34-24.46-43-15.73S601.44,847.75,611.54,865.17Z"/><path class="cls-9" d="M587.59,881.78c7,12.05,20.28,16.91,29.69,10.87s11.38-20.69,4.4-32.73S601.4,843,592,849.05,580.6,869.74,587.59,881.78Z"/><path class="cls-10" d="M201.71,864.45s247.78,74,400.66,3.28c0,0,17.39,2.15,11.39,20.5,0,0-105,65.7-418.52,7.82C195.24,896.05,176.82,880.35,201.71,864.45Z"/><path class="cls-2" d="M198.47,856.38s247.78,74,400.65,3.28c0,0,17.4,2.15,11.4,20.5,0,0-105,65.69-418.52,7.81C192,888,173.58,872.28,198.47,856.38Z"/><path class="cls-10" d="M663,926.79s48-111,26.81-198.34c0,0-58-27-122.59-16.74,0,0,.57,20.69,21.86,21.19,0,0,31.85-7.07,86,9.13,0,0,17.43,68.39-24.17,167.43C650.91,909.46,653.69,924,663,926.79Z"/><path class="cls-11" d="M307.67,825.34s27.51,27.73,68.19,34.3l1.3-31.31s-31.36-8.29-39-13.07C338.21,815.26,309.18,819,307.67,825.34Z"/><path class="cls-10" d="M606.83,850.54s17.8-4.46,24.12-18.61c0,0,29.62,4.14,16.81,40.24,0,0-11.14-2.25-22.88,6.24C624.88,878.41,621.19,858.13,606.83,850.54Z"/><path class="cls-6" d="M437.05,1017.5s-44.12-46.86-66.28-111.66c0,0,20-12.35,32,.8,0,0,44.51,106.06,101.85,130.87l-12.79,24.76S465.31,1048,437.05,1017.5Z"/><path class="cls-2" d="M473.22,1039.79s-74.61-59.36-98.48-136c0,0,17.92-10.3,28,2.82,0,0,20.31,78.35,86.39,126.4C489.13,1033,499.68,1046.77,473.22,1039.79Z"/><path class="cls-12" d="M571,1025.21a1.47,1.47,0,0,1,2.06-2.09,1.48,1.48,0,0,1,0,2.08A1.46,1.46,0,0,1,571,1025.21Z"/><path class="cls-12" d="M568.25,1018.69a1.46,1.46,0,1,1,2.07,0A1.47,1.47,0,0,1,568.25,1018.69Z"/><path class="cls-7" d="M651.22,1054.83s-6.3-39-38.16-50.64c0,0,1.13,11.67,18,41.34C631.05,1045.53,640.31,1053.18,651.22,1054.83Z"/><polygon class="cls-3" points="617.51 1060.09 604.74 1021.18 605.57 1020.33 618.38 1060.02 617.51 1060.09"/><polygon class="cls-3" points="620.6 1060.35 634.51 1025.02 635.38 1025.83 621.43 1061.47 620.6 1060.35"/><path class="cls-3" d="M617.28,1067.82,612,1101.06a4.6,4.6,0,0,0,2.7,1.63l3.88-34.84Z"/><polygon class="cls-3" points="620.53 1067.7 630.82 1101.81 632.89 1100.64 621.52 1067.36 620.53 1067.7"/><path class="cls-3" d="M615.52,1066.07l-30.93,20.85s-.86,1.1.59,2.19l31.24-22.33Z"/><path class="cls-3" d="M614.59,1061.41l-28.76-22.48s-.56-.78.47-1.47l29.05,23.47Z"/><polygon class="cls-3" points="622.09 1065.88 639.86 1078.62 640.84 1076.73 622.5 1065.22 622.09 1065.88"/><polygon class="cls-3" points="622.55 1062.22 641.93 1056.49 641.24 1054.65 622.35 1061.47 622.55 1062.22"/><path class="cls-13" d="M616.38,1011c-19.64-2.63-37.48,18.34-39.86,46.85s11.63,53.75,31.27,56.39,37.48-18.33,39.85-46.84S636,1013.66,616.38,1011Zm23.16,55.08c-2,25.29-16.54,44.09-32.53,42s-27.35-24.3-25.37-49.59,16.54-44.08,32.52-42S641.51,1040.82,639.54,1066.1Z"/><path class="cls-14" d="M619.9,1011.2c-19.64-2.63-37.48,18.34-39.86,46.85s8.8,50.41,27.75,56.21c18.4,5.64,47.63-2.8,51.48-44.17C663,1030.39,639.54,1013.84,619.9,1011.2Zm23.16,55.09c-2,25.28-16.54,44.08-32.53,42s-27.35-24.3-25.38-49.58,16.54-44.09,32.53-42S645,1041,643.06,1066.29Z"/><path class="cls-15" d="M609.87,1016.05c-17.44-2.34-33.29,16.29-35.4,41.61s10.33,47.75,27.77,50.1,33.29-16.29,35.4-41.61S627.32,1018.39,609.87,1016.05ZM630.44,1065c-1.75,22.46-14.69,39.16-28.89,37.3s-24.3-21.59-22.54-44,14.69-39.16,28.9-37.3S632.2,1042.52,630.44,1065Z"/><path class="cls-9" d="M624.17,1064.11a4.52,4.52,0,0,1-5,4.58,5.74,5.74,0,0,1-5.4-5.25,4.5,4.5,0,0,1,5-4.58A5.73,5.73,0,0,1,624.17,1064.11Z"/><path class="cls-2" d="M608.9,1058.62a19.1,19.1,0,0,0,9.07,2.53s3.1,3.73.17,5.11c0,0-8.07-.85-11,1.45C607.11,1067.71,603.49,1060.82,608.9,1058.62Z"/><path class="cls-9" d="M610.65,1063.4c.17,4.65-3.71,8.17-8.66,7.85s-9.09-4.35-9.26-9,3.71-8.18,8.66-7.86S610.48,1058.74,610.65,1063.4Z"/><path class="cls-2" d="M604.79,1062.75a4.81,4.81,0,0,1-5.4,4.9,6.15,6.15,0,0,1-5.79-5.62,4.84,4.84,0,0,1,5.41-4.91A6.15,6.15,0,0,1,604.79,1062.75Z"/><path class="cls-16" d="M603.49,1062.68a4.13,4.13,0,0,1-4.62,4.2,5.26,5.26,0,0,1-5-4.82,4.13,4.13,0,0,1,4.62-4.19A5.24,5.24,0,0,1,603.49,1062.68Z"/><polygon class="cls-2" points="599.46 1055.64 597.58 1023.91 598.41 1023.05 600.33 1055.58 599.46 1055.64"/><polygon class="cls-2" points="603.74 1057.31 615.5 1023.83 616.38 1024.64 604.57 1058.43 603.74 1057.31"/><path class="cls-2" d="M599.36,1068.18l-5.76,29.25a3.92,3.92,0,0,0,2.55,2.38l4.5-31.6Z"/><polygon class="cls-2" points="603.12 1068.29 611.82 1100.62 613.88 1099.45 604.11 1067.94 603.12 1068.29"/><path class="cls-2" d="M595.8,1066.83l-14.47,9.94s-.86,1.09.58,2.19l14.79-11.42Z"/><path class="cls-2" d="M594.7,1058.61l-12.43-10.56s-.55-.78.47-1.46l12.72,11.53Z"/><polygon class="cls-2" points="606.39 1067.17 623.73 1088.13 624.72 1086.24 606.81 1066.51 606.39 1067.17"/><polygon class="cls-2" points="605.93 1061.44 627.56 1040.87 626.87 1039.03 605.73 1060.69 605.93 1061.44"/><path class="cls-12" d="M609.06,1014.73c-17.45-2.34-32.88,13.45-35,38.78s9.91,50.58,27.36,52.92,32-16.19,34.12-41.51S626.5,1017.07,609.06,1014.73Zm20.57,48.93c-1.76,22.46-15.91,40.27-30.11,38.4s-25.28-22.59-23.53-45,15.61-40.33,29.82-38.46S631.38,1041.19,629.63,1063.66Z"/><polygon class="cls-2" points="606.91 1063.04 630.47 1064.16 630.32 1066.39 607.07 1063.66 606.91 1063.04"/><path class="cls-1" d="M607.49,1015.63c-17.45-2.34-31.68,16-33.79,41.36s8.71,48,26.16,50.34,32-16.19,34.12-41.51S624.93,1018,607.49,1015.63Zm20.57,48.93c-1.75,22.46-14.69,39.16-28.89,37.29s-24.3-21.59-22.54-44,14.69-39.16,28.89-37.29S629.82,1042.09,628.06,1064.56Z"/><path class="cls-13" d="M602.1,1062.28a4.13,4.13,0,0,1-4.63,4.19,5.25,5.25,0,0,1-5-4.81,4.13,4.13,0,0,1,4.63-4.2A5.27,5.27,0,0,1,602.1,1062.28Z"/><path class="cls-17" d="M599.09,1062.44a4,4,0,0,1-4.67.44,2.26,2.26,0,0,1-.16-3.71,4,4,0,0,1,4.68-.44A2.25,2.25,0,0,1,599.09,1062.44Z"/><path class="cls-12" d="M605.28,1034.83a.92.92,0,0,1,1.6-.92.92.92,0,1,1-1.6.92Z"/><path class="cls-6" d="M400.22,1058.48s1.87,10.49,12,35.14c0,0,118.82,23.08,149.34,23.14,0,0,107.41-17.15,140.75-35.37,0,0,10.51-24.91,13.95-37.52,0,0-165.36-19.47-233.23-8.07S400.22,1058.48,400.22,1058.48Z"/><path class="cls-18" d="M677.66,658.83s-97.32-41.67-190.9-36c0,0-28.72-4.13-50.95,12.41,0,0-40,.26-112.16,23.42,0,0,20.68,45.07,20,138,0,0,32.62,20.46,123.58,35.52l64.86-23.6s39.38,8.13,73,10.58C605.1,819.08,574.16,662.83,677.66,658.83Z"/><path class="cls-19" d="M664.38,665.65s-28.09-4.79-49.26,91.74c0,0,38.57,13.17,76.32-9,0,0,12.36-35.87,10.75-49.07C702.19,699.28,691.37,671.89,664.38,665.65Z"/><path class="cls-19" d="M470.46,755.61s57.47-84.12,71.71-92.74c0,0,22.24-2.52,26.76,30.13,0,0,.78,25.12-7.08,47.77,0,0-7.08,23.78-7.49,37.31C554.36,778.08,511.45,769.23,470.46,755.61Z"/><path class="cls-20" d="M615.54,752.8s-22.93,72.18-.82,123.44c0,0,18,60.42-5.79,88a45.33,45.33,0,0,0,1.47,16.25s13.79-.68,19.59,2.25c0,0,38.4-.62,37.76-24.88,0,0-8-20.08-.4-67.81S689,783.78,693.25,743.43C693.25,743.43,684.24,763.29,615.54,752.8Z"/><path class="cls-21" d="M470.46,755.61s-14.15,39.21,15.38,122.95c0,0,12.4,34.05,15.9,84.68,0,0-6,8.24.71,23,0,0,8.92,12.47,6.68,14.72,0,0,37.58,11.3,49.63-11.35,0,0-13.12-10.2-16-56.05-4.1-65,1.4-104.86,17-181.82C559.75,751.71,523.45,764.52,470.46,755.61Z"/><path class="cls-22" d="M512.72,954.87s-2.78,17.54,5,32.83c0,0-16.15-6.67-23.31-.11,0,0-8.93,34.2-.77,60.38,0,0,14.47,12,49.69,12.76,0,0,78.56,20,104.28-4.46,0,0,1.93-22.42-6.35-34.82,0,0-53.9-8.76-64.63-31.31,0,0-4-5.08-2-22.72s-3.67-25.88-14.61-30.13S517.55,936.91,512.72,954.87Z"/><path class="cls-21" d="M624.72,755.46s-20.84,23.75-.65,112c0,0,12.65,81.52-11,120.33l55.41-19.14s-11.39-43.39,7-123.74c0,0,13.22-63.21,17.75-101.53C693.25,743.43,681.44,763.42,624.72,755.46Z"/><path class="cls-22" d="M612.89,969.31s-10.59.47-13.29,8.64c0,0-3.92,28.14-1.22,40.08s30.71,16.71,55.72,19.07c0,0,50.46,16.79,90.53-.67,0,0-2.29-19.38-8.74-33.64,0,0-33.62-6.13-48-22,0,0-16.48-16.26-17.51-39.73,0,0-37.37-10.59-43.84,13.68a46.46,46.46,0,0,0,2.89,14.48S616.42,968.72,612.89,969.31Z"/><path class="cls-12" d="M615.54,752.8s60.74,6.77,77.71-9.37c0,0-17.52,26.66-80.16,18.22Z"/><path class="cls-16" d="M677.66,658.83s-62.63-7.94-83.85,74.24c0,0-14.7,57.58,11.29,86,0,0,1.73-35.75,10.44-66.28,0,0,15.74-68.95,56.31-84.43a35.05,35.05,0,0,1,9.44,4.91S682.87,668.16,677.66,658.83Z"/><path class="cls-16" d="M540.5,649.63s-88.05,29.42-97.13,116.21c0,0,3.92,57.2,27.82,59.32,0,0-4.82-52.06,1.81-68.07s57.55-88.69,75.39-93.59c0,0,21.7,11.64,20.43,43.9,0,0,7.77-25.36-.63-42.62C568.19,664.78,558.79,648.29,540.5,649.63Z"/><path class="cls-23" d="M684.87,676s-35.07,19.31-48.13,53l-8.6,24.71-12.6-1s16.39-72.42,56.31-84.43A37.36,37.36,0,0,1,684.87,676Z"/><path class="cls-23" d="M473,757.09s26.35-79.85,75.39-93.59c0,0,11,7.5,14.5,15.79,0,0-45.51-4.17-61.62,49.81L493.48,758S475.53,758.57,473,757.09Z"/><path class="cls-20" d="M473,757.09s-27.85,43.35,13.55,148.79c0,0,11.17,29.18,8.44,54.86,0,0-2.28,9,6.66,23.81l13.16,2.12s-9.5-1.81-7.5-39.93c0,0-1.34-25.92-14-56.26,0,0-19.83-66.81-5.53-121.05l5.66-10.93Z"/><path class="cls-12" d="M475.07,751.38s60.45,9.3,84.68.33c0,0-3.75,18.47-88,9.21Z"/><path class="cls-24" d="M522,957.53s-2.78,8.46,6.68,30.26c0,0,6,26.85,59.87,36.53,0,0,10.08-10.68,24.07-10.19,0,0-24.79-7-36-24A172.92,172.92,0,0,1,574.92,959s.94-17.68-25.75-17C549.17,942,527.23,947,522,957.53Z"/><path class="cls-24" d="M670.76,945.71S640,939.5,637,956.68c0,0-1.84,35.53,37,46.31l27.7,5.8s3.35-6.5,13.4-11.8c0,0-21.27-6.3-31.87-21.61A80.13,80.13,0,0,1,670.76,945.71Z"/><path class="cls-25" d="M524.93,978.05a18,18,0,0,1,6.32-6.11c4.19-2.33,23.68-8.39,43.62-2.34l.18,4.47s-15.35-6-41.49.72c0,0-4.9,2.86-7.34,6.89Z"/><path class="cls-25" d="M482.1,1007.68a15.86,15.86,0,0,1,6.62-6.16c4.33-2,19.56-6.95,35.62-3.43,0,0-.81.89,1.43,3.66a93.58,93.58,0,0,0-34.44,3.36s-5,2.95-5.9,6.35Z"/><path class="cls-25" d="M638,966.45a12.12,12.12,0,0,1,4.8-4.14c3.53-1.88,14.39-6,32-2.85l1.85,4.29s-9.93-4.48-31.95.9a15.88,15.88,0,0,0-5.91,5.09Z"/><path class="cls-25" d="M593,993.33a13.13,13.13,0,0,1,5.6-5c3.66-1.58,18.8-6.43,32.29-3.46a27.76,27.76,0,0,0,2.34,3.11s-16.64-1-32.45,3.28c0,0-4.3,2.86-5.07,5.63Z"/><path class="cls-25" d="M609.81,1006.43a10.39,10.39,0,0,1,3.59-4.89c2.65-1.85,13.89-8.16,25.2-7.94a22.65,22.65,0,0,0,2.42,2.11s-13.48,1.85-25.36,7.83c0,0-2.92,3-3,5.32Z"/><path class="cls-21" d="M553.91,1020.14s-26.69,4.55-35.85,24.76l-2.32,16a66,66,0,0,1-25.45-.16s-41.43-1.58-51-13.35c0,0-2.78,5.53-1.72,10.16,0,0-1.33,16.22,49.75,14.67,0,0,82.74,21.59,111.58-2.71a58,58,0,0,0-9-41.19S558.37,1020.49,553.91,1020.14Z"/><path class="cls-21" d="M657,998.09s-25.91,4.12-34.92,23.08l-2.37,15.07s-18.5.77-31.53-2c0,0-33.31-.07-42.54-11.22,0,0-2.73,5.19-1.73,9.55,0,0-1.4,15.27,48.16,14.14,0,0,80.1,20.89,108.23-1.8a53.23,53.23,0,0,0-8.41-38.85S661.29,998.45,657,998.09Z"/><path class="cls-16" d="M476,1026.09c3.93,10.22.6,20.89-7.44,23.84s-17.74-3-21.67-13.17-.6-20.89,7.44-23.83S472,1015.87,476,1026.09Z"/><path class="cls-26" d="M473.27,1023.19c3.46,9,.53,18.39-6.54,21s-15.62-2.59-19.08-11.59-.53-18.38,6.55-21S469.81,1014.19,473.27,1023.19Z"/><path class="cls-27" d="M470.2,1024.37c3.15,8.17.49,16.7-5.95,19.06s-14.19-2.35-17.33-10.53-.48-16.71,5.95-19.06S467.06,1016.2,470.2,1024.37Z"/><path class="cls-16" d="M516.59,947.65a29.7,29.7,0,0,0-7.92,19.6s-.83,41.76,59.36,63.07c0,0-45.76-19.79-55.61-62.77C512.42,967.55,511.66,955.21,516.59,947.65Z"/><path class="cls-16" d="M634,943.68s-10.59,6.26-11,18c0,0,3.09,37.24,51,49.51,0,0-43-19.45-45.88-52.88A37.93,37.93,0,0,1,634,943.68Z"/><path class="cls-28" d="M657.72,998.16s-27.7,2.71-35.68,23l-2.37,15.07s53.91,15.46,81.72-1.27c0,0-27.83,8.94-60.52-.18,0,0-4.45-5.36-.62-20.25,0,0,13.66-18.18,43.12-10.57A159.32,159.32,0,0,0,657.72,998.16Z"/><path class="cls-28" d="M552.25,1019.62s-28.47,3.06-36.54,24.64l0,16.66s53.21,15.32,81.7-2.61c0,0-28.56,9.68-62.26.25,0,0-4.62-5.66-.78-21.46,0,0,13.93-19.37,44.29-11.51A158.66,158.66,0,0,0,552.25,1019.62Z"/><path class="cls-25" d="M501,1022.76a16.32,16.32,0,0,1,4.45-6.93c3.09-2.51,12.84-6,28.6-7l2.7,2.32s-21.84.79-27.31,7.81l-2.11,6.83Z"/><path class="cls-29" d="M522,957.53s29.28-19.12,47.78-2.71c0,0,.25,26.81,4.6,36.66,0,0,7.29,13.19,27.47,18.51,0,0-16.77-8.69-24.46-21.11A216.64,216.64,0,0,1,574.92,959s3.18-20.6-27.56-17.45C547.36,941.51,527.08,943.21,522,957.53Z"/><path class="cls-29" d="M637,956.68s3.51-13.19,31.14-8.58c0,0,10.13,39.95,32,42.12,0,0-20.38-12.56-27.51-44.8C672.6,945.42,640.57,936,637,956.68Z"/><path class="cls-25" d="M522,957.53s-7,53.68,54.41,64.13c0,0-.62.45,5.34-4,0,0-58.33-2.32-56.86-61.79Z"/><path class="cls-25" d="M637,956.68s-3.06,40.41,41.25,47.19l3.73-4s-38.77-5.06-42-47.48C639.93,952.4,638.57,953.21,637,956.68Z"/><path class="cls-16" d="M447.25,831.5S347.46,807.07,330,783.94c0,0-29.8-27.26-25.89-62,0,0-9.36,47.13,17.05,79.4C321.18,801.34,341.9,821.15,447.25,831.5Z"/><path class="cls-16" d="M439.27,1047.41s46.18,12.33,76.46,9.81v3.7S473.29,1071.36,439.27,1047.41Z"/><path class="cls-30" d="M609.62,358.87s-44.33-20.5-64.34-32.2-31-16.95-40.77-18.68-27.84-4.83-33.92-7c0,0-6.18-3.93-9.57-8.3,0,0,5.17,13.78-.56,24,0,0-14.89,19.2-42,.95l-33-41s5.6-3.9,7.87-8.25c0,0-8.45-4.8-16.76.77l-12.69,8.4S294,305.35,267.53,336.22c0,0-12.52,2.28-22.89,69.51,0,0-10.71,42.62-9.57,65.32l4.24,4.2-.19-8.64s10.41-27.15,48.22-36c0,0-2.74,92.41-6.87,127.58,0,0-8.25,30.09-.15,68.65h0S309,656.59,333.25,660h0s62.84-23,96.27-16.58c0,0,34.31-21.17,62-21.17,0,0-.73-12.38-4.72-23.07,0,0-13.85-11.18-16.17-19.4,0,0,2.66-43,17.81-79.51s14.4-54,22.07-64.56c0,0,7.63-10.84,14.25-8.54,0,0,30.24,11.52,42.49,17.77C567.21,445,618.62,411.56,609.62,358.87Z"/><path class="cls-31" d="M384,277.41s19.13-9.23,18.56-49.94l-1.49-8.14s7.5-18.79,21.62,9.12c0,0,32.26,33.53,54.49,41.73,0,0-11.79.28-14.84,27,0,0,6.67,15.27-4.6,25.32,0,0-21.86,16.35-48-11.33C409.78,311.13,393.82,294.34,384,277.41Z"/><path class="cls-32" d="M352.41,403.1s-16.65,49.77-15.23,112.95c0,0,98.2,11.06,139.64-1.19,0,0,21.3-84.07,33.3-108.43C510.12,406.43,433.26,408.77,352.41,403.1Z"/><path class="cls-33" d="M358.32,399.5s-16.65,49.77-15.23,112.94c0,0,98.2,11.06,139.64-1.19,0,0,5.7-61.92,27.39-104.82C510.12,406.43,447.25,414.61,358.32,399.5Z"/><path class="cls-34" d="M370.81,415.41s-13.31,38.19-12.18,86.66c0,0,78.52,8.49,111.65-.91,0,0,4.55-47.51,21.9-80.43C492.18,420.73,441.91,427,370.81,415.41Z"/><path class="cls-35" d="M365.19,419.18s-2.6,11.33-15,20.7c0,0-14,25.27-17.19,67.69,0,0-5.16,32.65-43.58,48.86,0,0-16.34-12.32-7-48.86s44.92-79.26,58.24-88.39,14.52-19.71,17.3-30,8.16-8.38,9.5-8.38S365.19,419.18,365.19,419.18Z"/><path class="cls-36" d="M280.32,424.14s-11.72,103-9.07,143.56c0,0,1.8,35.7,6.9,59.11l58.3,31.81s56.9-20,93.07-15.18c0,0-26.26-14.53-98.49,6.11,0,0-37-31.06-38.19-57.09,0,0-8.27-41.18,0-107.9L296.06,422Z"/><path class="cls-37" d="M516.6,126.41A42,42,0,0,1,527.1,142c3.42,9.36,7.11,22.26,7.11,22.26s2.28,1.68-.29,14c0,0-1.11,5,2.72,17.17s.67,16.61-.79,23a309.82,309.82,0,0,1-15,28.86s-8.69,12-12.31,22.93c0,0-.69,7.63-24.27,2.76,0,0-48.88-14.37-60.15-35.7,0,0-5.53-14.52-8.91-17.8,0,0-4.29,5.13-11.3,1.69,0,0-20.71-14.91-15.89-34.75,0,0,6.48-10.57,21.35.37,0,0-9.19-50.84,22.71-77.94C467.36,98.59,491.1,81.47,516.6,126.41Z"/><path class="cls-36" d="M567.21,445s-40.21-14.7-47.79-14.54c0,0-5.95,7.22-16,32.42,0,0-27.16,79.4-28.52,114.05,0,0,3.26,15.44,11.84,22.31,0,0,5.39,1.32,4.72,23.07,0,0-2.91-17.17-8.07-22.65,0,0-11.21-9.5-12.82-19.82,0,0,2.62-64.3,28-123.75,0,0,8.47-24.56,17.89-38.93,0,0,36.55,14.17,50.74,19.86A49.53,49.53,0,0,0,567.21,445Z"/><path class="cls-38" d="M360.2,311.84s8.65,2.78,4.45,13.78c0,0,9.91,1.37,9.14,15,0,0,11.33,2.77,6.85,16.91,0,0,10.08,5,3.53,21.06l-4.45-1.1s-9,8.42-17.16,12.54c0,0,0,15.28-5.64,21.81s-.05.62-.05.62a105.8,105.8,0,0,1-13.64,13.29s-10.48,10.78-18.38,49.42c0,0-8.63,33.56-16.73,44.8,0,0-17.82,20.84-43.3,16.4,0,0-11.68-1.72-16.36-18.32,0,0-4.47-17.54-6.91-31.08a156.59,156.59,0,0,1-1.58-24s11.73-32.66,48.7-34.53c0,0,19.4-12.09,21.66-39.13,0,0,2-20.17-6.55-44.75,0,0-.88-6.85,6.84-11.89,0,0,17.37-14.09,24.36-22,0,0,5.23-7.44,13.42-1.26A86.73,86.73,0,0,1,360.2,311.84Z"/><path class="cls-39" d="M819,273.63s2.72-7-4.7-9.12c0,0-2.4-6.64-12.59-8.39,0,0-15.41-3.43-19.94-5.46,0,0-4.82-1.21-8.59,6.43,0,0-10.08.58-14.54,1.58,0,0-8.39,4.15-10.13,18.68-2,16.35,4.91,24.47,4.5,34.95s-9.68,19.52-18.43,26.8S689,371.8,670.17,377.48,642.3,389.28,639.32,391c0,0-31.78-14.38-38.48-16.9,0,0-17.27,23.37-32.08,59.68,0,0,51,15.29,73.27,21.28s28.27,3.13,37.29-4.44,28.86-24.66,43.95-37.88,51.62-56.44,62.08-66.84,38.54-34.71,41.65-50.54c0,0,3.77-5-1.81-11.28C825.19,284.05,827,277.35,819,273.63Z"/><path class="cls-19" d="M360.2,311.84s6.21-7.1-5.55-12.43c0,0-9.39-3.45-12,6.57C342.62,306,352.37,312.85,360.2,311.84Z"/><path class="cls-6" d="M472.34,301.89s21.14,33.1,6.76,98.22c0,0-10,36.21-24.1,63.87l-3.44.34S436.82,401.62,411.61,363s-46.36-75.5-47.71-85.43l3.56-2.19A181.31,181.31,0,0,0,394,328.89s46,65.11,57.75,126c0,0,15.22-15.13,23-53.33C474.69,401.58,490.28,351.28,472.34,301.89Z"/><path class="cls-32" d="M426.17,552.31c22.56,9.25,46.72,2.41,54-15.27s-5.16-39.51-27.72-48.76-46.72-2.41-54,15.27S403.61,543.06,426.17,552.31Z"/><path class="cls-40" d="M414.21,501.61c0,24.38,15.49,44.15,34.6,44.15s34.6-19.77,34.6-44.15-15.49-44.14-34.6-44.14S414.21,477.23,414.21,501.61Z"/><path class="cls-41" d="M423.61,501.61c0,24.38,15.49,44.15,34.6,44.15s34.6-19.77,34.6-44.15-15.49-44.14-34.6-44.14S423.61,477.23,423.61,501.61Z"/><path class="cls-42" d="M431,500.58c0,20.58,13.08,37.26,29.21,37.26s29.21-16.68,29.21-37.26-13.08-37.27-29.21-37.27S431,480,431,500.58Z"/><path class="cls-40" d="M430.2,502c0,20.33,12.93,36.82,28.87,36.82s28.86-16.49,28.86-36.82S475,465.19,459.07,465.19,430.2,481.68,430.2,502Z"/><path class="cls-43" d="M532.45,159.64S546.84,115.2,524,90.85c0,0-9.85-11.83-9.5-17.2,0,0-2.45,5.58-2.31,8.71,0,0-7.7-8.74-15.94-12.3l.91,3.43s-17.72-12.26-33.91-12c0,0-.07-.3,1.49,1.93,0,0-51.64-9.23-80.68,26.43,0,0,4.48-9.52,2.53-19.59,0,0-14.71,11.67-7.57,24.47,0,0-12.06-5.77-23.86,1.87,0,0,9.89-2.75,16.69,3.13,0,0,3.4,2.11,6.58.78,0,0-20,13.14-19.29,52.27,0,0-2.72,28.36,26.89,68.67,0,0,13.65,21.26,12.53,35.56,0,0,9.63-23.42,3.28-38,0,0-14.25-10-14.54-25.19,0,0,1.46-20.82,23.89-5.92,0,0,5.76,13.31,12.7,15.88a22.87,22.87,0,0,0,4.26,2.39,63.57,63.57,0,0,1-3.5-31s22.56-44.29,13.74-61.76c0,0,11.76,3.22,29.19,2.24,0,0,7.88-.92,14.17,3.1,0,0,16.19,7.31,23.78,10.86a42.56,42.56,0,0,1,5.66,4.07s4.07-.3,5.4-7.25c0,0,5.86,5.75,8.18,10.64C524.78,137.05,530.24,151.21,532.45,159.64Z"/><path class="cls-12" d="M488.76,172.66s-.06-7.06-1.22-8.65-5.64-4.46-14.16-2.77-9.29,3.63-10.93,5.19a82.54,82.54,0,0,1,15.26,2.76s6.12,1.4,8.11,2.89a20.91,20.91,0,0,0,2.45,1.38S488.77,173.37,488.76,172.66Z"/><path class="cls-44" d="M493.8,158.84s4.91-6.59-.75-10.3c0,0-11.61-5.06-23.88-1.35,0,0-11.59,3.54-13.58,8.45,0,0,17-3.75,26.86-1C482.45,154.66,490.4,156,493.8,158.84Z"/><path class="cls-45" d="M535.92,161.09a5.69,5.69,0,0,1-1,7.24s-1.84-4.54-18.09-5a3.87,3.87,0,0,1-1.67-.59s2.3-6,7-7.37C522.1,155.36,532.45,155.59,535.92,161.09Z"/><path class="cls-12" d="M531.44,181.72s2.22-7.9-3.59-11.15c0,0-7.86-4.38-15.28,4.49l-2.4,1.74s.24,1.14,4.14,1.47a23.15,23.15,0,0,1,8.19,2.65A37.58,37.58,0,0,0,531.44,181.72Z"/><path class="cls-46" d="M510.1,173.75s-1.46,6.4,7.2,15.76c0,0,3.69,8.75-7.29,11.59,0,0,8.52-4,6.07-11.32C516.08,189.78,508.51,182.47,510.1,173.75Z"/><path class="cls-46" d="M503.36,197.87s-2.07-5-7.67-1a5.34,5.34,0,0,1-2,1s-5.42-1.07-3.14-9c0,0-4.75,4.64.11,9,0,0,.62.67,3.5.84C494.12,198.71,500.85,195.17,503.36,197.87Z"/><path class="cls-47" d="M522.1,221.92s-2.57-5.14-12.78-6.83-36.5-6.35-51.2,2c0,0,2.85,10.75,27,22.88,0,0,14.53,7.15,26.08.77C511.2,240.71,516.89,227.91,522.1,221.92Z"/><path class="cls-12" d="M508.82,226s-30.1-2.86-42.86-9.11c0,0,24.15-6.13,50.19,3.11C516.15,220,515,223.56,508.82,226Z"/><path class="cls-48" d="M474.64,161.32s-1.59,6.24,4.45,8.78c0,0,6,2.36,8.77,0,0,0,1.83-6-4.39-8.25A18.53,18.53,0,0,0,474.64,161.32Z"/><path class="cls-48" d="M518.1,171.22s-1.59,6.74,4.45,9.48c0,0,6,2.55,8.77,0,0,0,1.82-6.5-4.4-8.91C526.92,171.79,522.27,170.13,518.1,171.22Z"/><path class="cls-49" d="M410.41,200.22s-2-9.4-9.15-11.11c0,0-14.17,3.78-2.21,19.77,0,0,7.22,8.59,11.36,2.33C410.41,211.21,404.08,208.13,410.41,200.22Z"/><path class="cls-50" d="M475.6,161.16s-1.59,6.24,4.45,8.77c0,0,6,2.36,8.77,0,0,0,1.83-6-4.39-8.25A18.45,18.45,0,0,0,475.6,161.16Z"/><path class="cls-50" d="M519.11,170.68s-2.3,7,5.75,10.44c0,0,5.46,2.16,6.89-1.18,0,0,2-7.52-3.9-9.1A13.89,13.89,0,0,0,519.11,170.68Z"/><path class="cls-51" d="M473.91,269.26s-10.65,6.77-12.55,26.33c0,0-37.7,9.83-43.18-66.68C418.18,228.91,435.34,256.9,473.91,269.26Z"/><path class="cls-52" d="M401.85,219s10.76,6.08,15.32-3.17c0,0-.86,9.14-14.1,6.73A21.54,21.54,0,0,0,401.85,219Z"/><path class="cls-53" d="M410.41,200.22s-11.69-2-11,9.12c0,0,6.73,8.17,11,1.87C410.41,211.21,405.52,205,410.41,200.22Z"/><path class="cls-54" d="M482.31,160.61s6.68.77,7.17,5.76c0,0-4.68,3.64-7.66-.75C481.82,165.62,480.34,161.91,482.31,160.61Z"/><path class="cls-54" d="M524.84,170.68s5.94.69,6.37,5.12c0,0-4.16,3.24-6.81-.66C524.4,175.14,523.09,171.84,524.84,170.68Z"/><path class="cls-52" d="M528.89,232.75s-16.58,25.39-19.62,35c0,0-6.52,13.17-34.28,1.47,0,0-49.83-19.19-58.43-47.3,0,0,1.95,19.37,26.07,33.81,0,0,24.06,17.39,48.37,21.28,0,0,16.53,2.77,19-6.1C510,270.92,526,238.27,528.89,232.75Z"/><path class="cls-6" d="M609.62,358.87s-45,37.78-42.41,86.09c0,0,3-.09,11-8.77l-5.29-1.74s10.28-47,31.35-59l6.41,2.57S612.71,367.59,609.62,358.87Z"/><path class="cls-6" d="M393.14,268.29s-4.47,7-9.11,9.12a18.06,18.06,0,0,1-2.06-8.47S384.9,265.94,393.14,268.29Z"/><path class="cls-36" d="M477.57,320.25s-8.56,35.11-54.74,25.62c0,0-18.14-6.69-30.23-21.5,0,0,19.82,37.63,63.82,23.13,0,0,14.26-4.89,21.82-23.91C478.24,323.59,478.77,322.72,477.57,320.25Z"/><path class="cls-6" d="M292.84,424.22S241.66,419.94,235,470.7c0,0,.61,2.26,5.43,6,0,0-.63-7.41-.48-10,0,0,6.46-30.4,46.09-37A34.13,34.13,0,0,0,292.84,424.22Z"/><path class="cls-36" d="M520.6,314s20.18,48.24-4.48,117.07l-5.65,4.67S537.37,362.91,520.6,314Z"/><path class="cls-55" d="M467.07,597.61S435.4,623.19,321.78,591C321.78,591,424,587.55,467.07,597.61Z"/><path class="cls-33" d="M396,303.59s-6.66,2.19-9.65,7c0,0-11.29-19.82-14-27.8a19.68,19.68,0,0,1,8.17-3.87A150.14,150.14,0,0,0,396,303.59Z"/><path class="cls-6" d="M462.37,297.14s12,28-20.05,30.12C442.32,327.26,467.27,325.66,462.37,297.14Z"/><path class="cls-33" d="M440.15,327.23s-25,2.14-52.36-39.19c0,0-7.75-11.36-7.15-19.58a14.65,14.65,0,0,1,12.5-.17S383,267.47,382,270.2C382,270.2,397,314,440.15,327.23Z"/><path class="cls-48" d="M488.76,172.66a15.42,15.42,0,0,0,.31-8.54s-3.11-8.76-18.83-3.51c0,0-4.21,1.16-9.27,6,0,0,15.32,2.63,26.73,6.62,0,0-2.59-2.5-8.25-4.19A123.25,123.25,0,0,0,464,166s11.59-7.92,21.81-2.76C485.82,163.21,488.7,163.16,488.76,172.66Z"/><path class="cls-48" d="M532,182.29s2.7-8.84-3.34-12c0,0-10.28-4-18.58,5.64l.11.87s10-8.66,18.75-4.57c0,0,3.24,3.26,2,9.47,0,0-8.64-1.94-20.12-4.26a73.09,73.09,0,0,0,12.34,3.76S531.85,183.94,532,182.29Z"/><path class="cls-12" d="M482.24,163.68a1.83,1.83,0,1,1-1.83-1.83A1.83,1.83,0,0,1,482.24,163.68Z"/><path class="cls-12" d="M524.25,173.19a1.83,1.83,0,1,1-1.83-1.83A1.83,1.83,0,0,1,524.25,173.19Z"/><path class="cls-52" d="M506,250.45a60.59,60.59,0,0,1-30.54-7.09,32.5,32.5,0,0,0,25.46,10.84S506.26,254,506,250.45Z"/><path class="cls-56" d="M428.16,206.13s-17.75-1.81-24.71-30.51A124.44,124.44,0,0,0,428.16,206.13Z"/><path class="cls-49" d="M386.6,70.25s4.48,8.82-1.32,23C385.28,93.21,379,83.55,386.6,70.25Z"/><path class="cls-57" d="M355.17,96.59s9-1,12.46,2.42c0,0,9.55,4.95,14.63,1.09,0,0-7.13,1.19-12.57-3.64C369.69,96.46,360.72,93,355.17,96.59Z"/><path class="cls-57" d="M398.57,257s-.77-13.79-18-35.07c0,0-32.92-33.09-19.81-89.28,0,0-5.63,44.41,24.76,84.36C385.56,217,402.59,230.7,398.57,257Z"/><path class="cls-49" d="M435.92,106s16.39,18.65-6.79,59.49c0,0-4.47,8.81-4.69,11.55,0,0-.42-6.55,3.72-17.65C428.16,159.41,442.2,127.53,435.92,106Z"/><path class="cls-56" d="M382.26,100.1s-14.51,19.46-8,49.91C374.28,150,360.74,114,382.26,100.1Z"/><path class="cls-57" d="M378.44,100.5s-21.73,9.55-20.72,54.86h3.48S357.72,117.78,378.44,100.5Z"/><path class="cls-57" d="M387.91,198.71s-10-7.33-15.56-29.22a80.77,80.77,0,0,0,15.56,21.39S387.27,196.33,387.91,198.71Z"/><path class="cls-58" d="M514.51,73.65s-6.53,6.5-.62,13.76C513.89,87.41,512.61,79.71,514.51,73.65Z"/><path class="cls-58" d="M411.26,71.48s7.19,1.46,9.76,4.29c0,0-8.66-1.92-17-3.26a69.9,69.9,0,0,1,8.51.56S412.62,73.23,411.26,71.48Z"/><path class="cls-58" d="M496.26,70.06s4,1.39,6.38,8.4A70.47,70.47,0,0,1,495,72.07l1.74.47A7.18,7.18,0,0,0,496.26,70.06Z"/><path class="cls-36" d="M470.59,301s27.31,4.7,35.44,6c0,0,24.93,6.52,39.25,19.71,0,0,47.64,23.19,64.34,32.2,0,0-41.45-13.17-69.52-31.62,0,0-19-12.06-34.07-16.65C506,310.6,481.3,306.08,470.59,301Z"/><path class="cls-36" d="M363.9,277.57S304,294.81,267.28,332.64c0,0-17.06,12.42-22.39,64.61l3.05,2.22s5.84-51.52,22.26-66.21S310.32,301.94,363.9,277.57Z"/><path class="cls-56" d="M516.6,126.41a26.41,26.41,0,0,0,1.29-4.19s13.7,17.09,15,36l-1.66-.2S524.77,135.68,516.6,126.41Z"/><path class="cls-56" d="M440.15,113.8s12,3.82,31.3,2.86c0,0,10.33,1.08,24.24,8.4,0,0,13.19,5.54,15.51,8.6,0,0-10.94-11.08-22.13-13.38,0,0-9.9-6.46-20.3-6.4C468.77,113.88,448.25,114.81,440.15,113.8Z"/><path class="cls-59" d="M532.87,158.21s14.57-37.53-6.9-67.5c0,0-10.14-10.27-11.46-17.06,0,0,1.19,9.65,9.74,19.56C524.25,93.21,543.53,118.38,532.87,158.21Z"/><path class="cls-49" d="M428.16,206.13s-6.3-20.72-2.53-32.94l.14-6.1S416.61,186.19,428.16,206.13Z"/><path class="cls-59" d="M511.2,133.66s10.35-10.77,6.69-36.73C517.89,96.93,527,129.15,511.2,133.66Z"/><path class="cls-60" d="M460.17,219.37s36.75,3,39.49,21.53C499.66,240.9,478.38,240.22,460.17,219.37Z"/><path class="cls-61" d="M367.46,275.38s2,21,35.16,67.37c0,0,32.72,48,48.12,108.92,0,0-4.69-47.86-47-109.56C403.77,342.11,378.06,306,367.46,275.38Z"/><path class="cls-61" d="M472.72,301.64S490.47,336.46,479,393c0,0-5.94,34.3-20.8,58.65h2.61A239.64,239.64,0,0,0,481,390.43S492.61,343,472.72,301.64Z"/><path class="cls-40" d="M447,457.47s.25-8.55,7.25-9.81c0,0,6.43-1.3,7.73,10.06,0,0-6.2-.78-10.26.54A28.11,28.11,0,0,0,447,457.47Z"/><path class="cls-40" d="M448.81,457.47s0-4.25,2.82-5.8c0,0,2.18.74,2.06,6.18l-2.95.65S449.61,457.35,448.81,457.47Z"/><path class="cls-6" d="M448.37,452.14s.51,3.58,2.88,3.66a55.4,55.4,0,0,0-.69-6.47S449.38,449.4,448.37,452.14Z"/><path class="cls-62" d="M456.08,471,438.3,499.16l10.4,5.5,10.35-11.79-2.53,37.85s11.05,2.06,16.55-.82l-2.5-57.56S461.84,470.69,456.08,471Z"/><path class="cls-41" d="M456.52,472.16l-18.88,27.52,8.54,6.08L456.52,494v36.75s8.52,1.28,14-1.6L468,473.44A40.81,40.81,0,0,0,456.52,472.16Z"/><path class="cls-33" d="M285.53,385.14s-2.77,8.36,0,26.9c0,0-33.87,4.84-46.19,23.69,0,0-1.69-24.06,4.08-37.22C243.42,398.51,269.6,384.35,285.53,385.14Z"/><path class="cls-57" d="M419.64,202.52S402.87,190.26,396,172.23a77.45,77.45,0,0,0,9.61,10.59S413.75,197,419.64,202.52Z"/><path class="cls-56" d="M387.31,96.93S373.73,76.51,433,63.63C433,63.63,387.45,71.24,387.31,96.93Z"/><path class="cls-56" d="M382.83,98.26s-18.71-10.12,3.77-28C386.6,70.25,369.79,82.44,382.83,98.26Z"/><path class="cls-59" d="M463.26,61.48s23.18-2.23,39.38,17C502.64,78.46,483.35,63,463.26,61.48Z"/><path class="cls-59" d="M496.26,70.06s9.58,3.41,15.17,11.47a15.8,15.8,0,0,0,2.46,5.88S504,73,496.26,70.06Z"/><path class="cls-59" d="M514.51,73.65s-1.57,7.67,7.64,16.94C522.15,90.59,515.26,80.08,514.51,73.65Z"/><path class="cls-56" d="M515.14,162.73s.06.75,4.42,1c0,0,12.92.84,15.34,4.65,0,0-1.2-6.5-15.1-6.48,0,0-1.09-4.16,2.3-6.49C522.1,155.36,517.13,156,515.14,162.73Z"/><path class="cls-56" d="M493.8,158.84s-13.14-7.57-38.21-3.2c0,0,.29-2.55,5.38-4.94,0,0-1.62,1.89,0,2.7C461,153.4,489.08,148.82,493.8,158.84Z"/><polygon class="cls-12" points="461.47 490.69 482.67 473.24 484.9 486.81 484.61 474.2 506.75 481.18 485.85 471.9 499.06 453.77 484.82 469.81 481.99 439.7 482.27 470.3 468.67 466.64 481.16 472.21 461.47 490.69"/><polygon class="cls-12" points="429.77 547.8 439.94 539.44 441.01 545.95 440.87 539.9 451.49 543.25 441.46 538.79 447.8 530.1 440.97 537.79 439.61 523.36 439.75 538.03 433.22 536.28 439.22 538.95 429.77 547.8"/><path class="cls-63" d="M333.25,660s39.67-23.73,102.23-20c0,0,66.26,3.83,105,9.59,0,0-91.22-2.69-121-.08C419.51,649.55,351.53,651.11,333.25,660Z"/><path class="cls-63" d="M677.66,658.83s-115.32-47.12-197-36.48c0,0-27.95,5.4-45.16,17.69a270.91,270.91,0,0,1,61-13.23S606.37,632.94,677.66,658.83Z"/><path class="cls-63" d="M677.66,658.83s-66.11-3.09-84.66,79.26c0,0-4,46.27,12.1,81,0,0-21.91-20.06-17.1-85.75C588,733.33,602,655.82,677.66,658.83Z"/><path class="cls-64" d="M342.36,795s0-43.09-2.76-64c0,0,68.46,10.09,103.78,13.63,0,0-.87,4.52-3.4,18.86,0,0,2.75,42.41,24.93,59.64l1.14,9.16S389.08,822.41,342.36,795Z"/><path class="cls-64" d="M339.6,731s-6.37-46.37-15.9-72.29c0,0,17.3,35.27,34.26,74.94C358,733.68,357.79,759,339.6,731Z"/><path class="cls-63" d="M540.5,649.63s-86.05,36.52-97.13,116.21c0,0,5.16,35.58,21.54,57.32,0,0-23.83-12.73-25-61.89C439.91,761.27,443.72,681.26,540.5,649.63Z"/><path class="cls-64" d="M562.42,739.07s-2.8,8.13-4.26,13.15l1.59-.51s-8.37,40.9-11.16,59.89c0,0,35.29,7.13,56.51,7.48,0,0-19.74-27.37-17.79-78.61Z"/><path class="cls-65" d="M417,684.46s-30.66,36-15.19,107.85l26.75,4.1s-14.18-58.73,20-105.56Z"/><path class="cls-6" d="M492.81,621.19s-30.46,2.7-57.33,18.85c0,0-72.19,1.69-102.23,20,0,0-2,3.36-9.55-1.28,0,0-2-6.47-8.22-19.1,0,0,9.23,4.78,14.19,8.73,0,0,31-19.26,103.56-15.87C433.23,632.5,469.21,620.52,492.81,621.19Z"/><path class="cls-6" d="M270.2,537c3.23.26,9.34-1.63,9.34-1.63s4.79-8.87,3.35,3.44-3.35,51.63-3.35,51.63l-5.08,13.66c-7.49-38.1-4.26-65.91-4.26-65.91Z"/><path class="cls-66" d="M448.62,690.85s-30.19,53.49-16.33,108.92l-28.14-3.36-2.3-4.1,26.75,4.1S412.05,738.07,448.62,690.85Z"/><path class="cls-67" d="M401.85,792.31l18.84-2.85s-14.4-61.21,27.93-98.61c0,0-33.38,47.07-20,105.56Z"/><path class="cls-68" d="M401.85,717.65a111.57,111.57,0,0,0-4.09,45l9.07.92s-2.58-21.51,4.51-43.07Z"/><path class="cls-66" d="M342.32,796.41s.27-9.79,0-28c0,0,38.66,28.57,111.37,43.52,0,0,5.8,6.28,11.22,11.26l1.14,9.16S394.16,825.91,342.32,796.41Z"/><polygon class="cls-26" points="456.87 1016.23 454.45 1023.56 447.84 1026.78 453.73 1030.57 452.36 1037.98 458.31 1033.21 466.3 1039.21 462.1 1030.32 469.92 1027.53 460.2 1023.32 456.87 1016.23"/><path class="cls-6" d="M379.72,377.5l4.45,1.1s49.4,88.91,64.16,103.56c0,0,6.11,6.86,10.6,9.14,0,0,7.72,7.44,1,16.15,0,0-9.2,13.53-26.16,15.91,0,0-7.63.18-10-6.72,0,0-1.59-9.52-3.2-15.32,0,0-32.69-48.54-62.6-92.92a56.73,56.73,0,0,0,3.48-19.24S375.63,381.62,379.72,377.5Z"/><path class="cls-6" d="M342.62,306s-11.73-42.27-9.12-96.54l-23.72,50.23a455.35,455.35,0,0,1,14.87,60.58S336.88,307.24,342.62,306Z"/><path class="cls-6" d="M324.65,320.25s-25-27-47.23-41.25l-59.56-4.35s59.92,24.19,92.76,58Z"/><path class="cls-28" d="M450.74,484.69s-14.42-1.41-29.87,17.76L360.2,411.72l3.7-23.9,15.82-10.32,4.45,1.1S438.69,473.21,450.74,484.69Z"/><path class="cls-69" d="M376.24,381.75S417.29,449,442.32,486.13c0,0,5.35-1.8,8.42-1.44,0,0-50.89-77.9-66.57-106.09a9.43,9.43,0,0,1-4.57-.46A24.06,24.06,0,0,1,376.24,381.75Z"/><path class="cls-6" d="M392.65,393.19s-2.58-1.29-10.15,3.22c0,0-17.35,10-20.36,18.2,0,0,10.64-11.75,22-16.42a15.42,15.42,0,0,1,9.81-2.74Z"/><path class="cls-6" d="M400.56,406.6s-2.58-1.29-10.15,3.22c0,0-16.69,9.26-19.7,17.5,0,0,10-11.05,21.36-15.72a15.46,15.46,0,0,1,9.82-2.74Z"/><path class="cls-6" d="M408.85,419.35s-2.59-1.29-10.16,3.22c0,0-16.51,9.07-19.52,17.31,0,0,9.8-10.86,21.19-15.53a15.42,15.42,0,0,1,9.81-2.74Z"/><path class="cls-6" d="M417,431.57s-3.91-1.12-11.48,3.4c0,0-15.37,8.46-18.38,16.7,0,0,8.66-10.26,20.05-14.93,0,0,5.37-3.17,11-2.69Z"/><path class="cls-6" d="M424,443.27s-3.9-1.35-11.48,3.16c0,0-15.53,7.2-18.54,15.44,0,0,8.82-9,20.21-13.66,0,0,5.36-3.63,11-3.15Z"/><path class="cls-6" d="M430.64,453.62s-3.92-1.12-11.49,3.4c0,0-14.25,8.82-17.26,17.05,0,0,7.54-10.61,18.92-15.28,0,0,5.79-3.22,11.39-2.74Z"/><path class="cls-6" d="M439.08,466.72s-3.91-1.19-11.49,3.32c0,0-14.63,7.85-17.64,16.09,0,0,7.93-9.64,19.31-14.31,0,0,5.77-3.18,11.37-2.7Z"/><path class="cls-70" d="M277.42,279a80.38,80.38,0,0,1-10.47.74s40.29,27.11,53.34,43.85a27.34,27.34,0,0,0,4.36-3.34S299.82,292.6,277.42,279Z"/><path class="cls-71" d="M424,517.28s6.22-17.15,35.38-25.5c0,0,6.64,5.83,1.3,14.61,0,0-10.34,16.12-27.74,17C432.94,523.36,425.87,522.29,424,517.28Z"/><path class="cls-28" d="M145.2,35.29S98.73,61.68,123.13,138c0,0,28.79,100,106.13,116.21,0,0,28.75,5.84,48.69-5.43,0,0-30.82,12-66.11-5.42,0,0-53.18-25.18-82.67-106.88C129.17,136.48,107.09,67.05,145.2,35.29Z"/><path class="cls-36" d="M126.75,129.71s64.69-51.43,125.41-66.08l1.67,2.14s-69.06,18.1-127.08,66.88C126.75,132.65,124,132.93,126.75,129.71Z"/><path class="cls-36" d="M130.27,142.55s69.52-53.36,130.24-68l1.67,2.14s-73.9,20-131.91,68.82C130.27,145.5,127.51,145.77,130.27,142.55Z"/><path class="cls-36" d="M135.75,153.15S214.94,95,275.66,80.3l1.67,2.14s-83.57,24.87-141.58,73.65C135.75,156.09,133,156.37,135.75,153.15Z"/><path class="cls-36" d="M140.58,165.23S219.77,107,280.49,92.38l1.67,2.14s-83.56,24.87-141.58,73.65C140.58,168.17,137.83,168.44,140.58,165.23Z"/><path class="cls-36" d="M122.59,68.94s40.27-33.65,84.8-46.74l1.67,2.14s-28.51,2.16-86.47,47.55C122.59,71.89,119.83,72.16,122.59,68.94Z"/><path class="cls-36" d="M120.3,87.59s41.48-39.83,102.2-54.48l1.68,2.14s-45.86,6.5-103.88,55.28C120.3,90.53,117.55,90.81,120.3,87.59Z"/><path class="cls-36" d="M120,103s59.22-50,120-64.67h0S178,57.18,120,106C120,106,117.23,106.24,120,103Z"/><path class="cls-36" d="M123.85,115.1S188.54,63.67,249.26,49l1.67,2.15S181.87,69.26,123.85,118C123.85,118,121.1,118.31,123.85,115.1Z"/><path class="cls-36" d="M146.52,179.88s79.19-58.2,139.91-72.85l1.67,2.15S204.53,134,146.52,182.83C146.52,182.83,143.76,183.1,146.52,179.88Z"/><path class="cls-36" d="M154.93,192.94s79.19-58.2,139.91-72.85l1.67,2.15s-83.57,24.86-141.58,73.65C154.93,195.89,152.18,196.16,154.93,192.94Z"/><path class="cls-36" d="M164.08,207.18S243.27,149,304,134.33l1.67,2.15s-83.57,24.86-141.58,73.65C164.08,210.13,161.33,210.4,164.08,207.18Z"/><path class="cls-36" d="M176.18,220.4S240.87,169,301.59,154.32l1.67,2.15s-69.06,18.1-127.08,66.88C176.18,223.35,173.43,223.62,176.18,220.4Z"/><path class="cls-36" d="M189.83,229.77s64.68-51.43,125.41-66.08l1.67,2.14s-69.07,18.1-127.08,66.88C189.83,232.71,187.07,233,189.83,229.77Z"/><path class="cls-36" d="M203.77,240.92s52.81-46.09,105.17-60.19l1.68,2.15s-43.67,8-106.85,61C203.77,243.87,201,244.14,203.77,240.92Z"/><path class="cls-36" d="M222.13,250.4s40.05-40.27,90.19-55.58L314,197s-36,7.2-89.11,53.17C224.88,250.13,219.37,253.62,222.13,250.4Z"/><path class="cls-36" d="M246.85,250.09s28-28.16,65.47-41.72l1.67,2.14s-9.12-6.26-67.14,42.52C246.85,253,244.1,253.3,246.85,250.09Z"/><path class="cls-36" d="M121.5,80.11S153.71,187.13,235,253c0,0,.46,2.46,4.13,0,0,0-82.22-66-117.3-176.16C121.81,76.88,120,75.53,121.5,80.11Z"/><path class="cls-36" d="M131.76,52.43s31.1,101.19,129.13,200.7c0,0,.46,2.47,4.13,0,0,0-90.06-83.07-132.95-203.93C132.07,49.2,130.29,47.86,131.76,52.43Z"/><path class="cls-36" d="M145.43,34.82s36,96.34,138,213.76c0,0,.46,2.47,4.13,0,0,0-102.3-110.1-141.86-217C145.74,31.58,144,30.24,145.43,34.82Z"/><path class="cls-36" d="M166.18,21.48s32,92,134.06,209.47c0,0,.46,2.47,4.13,0,0,0-98.32-105.8-137.88-212.7C166.49,18.25,164.71,16.9,166.18,21.48Z"/><path class="cls-36" d="M195.75,21.48S216.7,95,311.92,209.59c0,0,.46,2.46,4.13,0,0,0-80.44-84.44-120-191.34C196.05,18.25,194.28,16.9,195.75,21.48Z"/><path class="cls-36" d="M231.6,40.06s14,60,77,129.45c0,0,.46,2.47,4.13,0,0,0-41.22-25.79-80.78-132.69C231.9,36.82,230.13,35.48,231.6,40.06Z"/><path class="cls-6" d="M129.3,195.87C171.89,266.92,246.07,300.74,295,271.42s54-110.69,11.43-181.74S189.64-15.19,140.73,14.14,86.71,124.82,129.3,195.87ZM148.88,33c34.18-19.34,89.12,3.23,126.6,65.75s40.58,138.62-4.23,152.77c-42.14,13.3-90-4.67-127.47-67.19S108,56.16,148.88,33Z"/><path class="cls-70" d="M120.3,32.39s43.84-44.17,110.88-5.5c0,0,96.11,58.52,90.6,199.12,0,0-1.93,49.44,11.28,86.19l9.56-6.22a334.28,334.28,0,0,1-4.44-80s9.67-99.15-53.61-174.62c0,0-50.47-53.88-99.83-51.3C184.74.09,144.78-.8,120.3,32.39Z"/><path class="cls-72" d="M299.51,120.09S238.34-13.07,139.36,26.25c0,0-68,50.5,0,169.64,0,0,57.43,96.76,146.17,68.95C285.53,264.84,342.05,233.91,299.51,120.09ZM282.92,262c-86.59,27.16-142.63-67.33-142.63-67.33C74,78.29,140.29,29,140.29,29c96.58-38.4,156.26,91.63,156.26,91.63C338.06,231.75,282.92,262,282.92,262Z"/><path class="cls-6" d="M335.29,309.13s-9.09-36.73-5.62-98.45c0,0,2.34-147.49-115.44-201.09,0,0,112.54,40.39,118.16,200.82,0,0-5.62,50.77,6.21,96.55Z"/><path class="cls-70" d="M290.05,258.37c1.69,4.79-.23,9.83-4.29,11.27s-8.74-1.27-10.43-6.06.23-9.83,4.29-11.26S288.36,253.59,290.05,258.37Z"/><path class="cls-28" d="M287,260.14c1.28,3.6-.17,7.4-3.23,8.48s-6.58-1-7.85-4.56.17-7.4,3.23-8.49S285.7,256.53,287,260.14Z"/><path class="cls-73" d="M360.2,311.84A115.79,115.79,0,0,1,342.62,306s-4.54-.71-10.85,6.63c0,0-7.4,8.69-22,19.17,0,0-9.44,6.46-6.86,14.19,0,0,12.57,30,3.71,59.3a59.57,59.57,0,0,1-22.56,25.63s-26.45,15.94-34.81,33.42a116.33,116.33,0,0,1,40.12-34.23s16.44-8.7,21.92-33.2c0,0,5.16-26.58-3.22-52.53,0,0-1.33-5.08,4.15-9.79,0,0,12.85-8.34,21.39-19,0,0,4.71-6.53,9-6.53A84.39,84.39,0,0,0,360.2,311.84Z"/><path class="cls-52" d="M384.17,378.6a12.13,12.13,0,0,1-4.22,0s-9,8.32-16.81,11.13c0,0,3.44,23.61-19.77,37.63,0,0-10.8,15.63-17.57,49.63,0,0-6.84,29.9-17.68,43,0,0-11.18,17.16-37.92,17a50.14,50.14,0,0,1,16.93-6.79s15.95-3.55,20.3-14.51c0,0,8.22-14.82,14.51-39.64s10.47-38.51,19.34-51.08c0,0,16.73-10.47,18.92-36.74,0,0,12.07-5.47,19.11-13.05C379.31,375.15,381.93,377.86,384.17,378.6Z"/><path class="cls-52" d="M364.65,325.62s-10.16-.59-19-1.88c0,0-3.23-2-12.25,8.9a53.6,53.6,0,0,1-11.6,8.83s11-5.32,16-10c0,0,4.67-4.84,8.38-5.64A101.18,101.18,0,0,0,364.65,325.62Z"/><path class="cls-52" d="M373.79,340.63A124.35,124.35,0,0,1,350,339.37s-5.32-1.13-13.06,7.09c0,0-3.54,2.9-7.25,6,0,0,10.64-4.68,15.47-8.87a22.1,22.1,0,0,1,9.19-2.09S365.7,344.15,373.79,340.63Z"/><path class="cls-52" d="M380.64,357.54a91.49,91.49,0,0,1-21.15,2.78,22.32,22.32,0,0,0-15.84,6.6,51.19,51.19,0,0,1,17.17-3.38S371.66,362.16,380.64,357.54Z"/><path class="cls-52" d="M821.64,281s-16-3.77-22.57-4.61c0,0-2.57,1.11-6.26,7.45,0,0-3.83,8.2-3.84,12.3,0,0,3,8.07,3.24,10.92,0,0,11.71.75,10.56-7.09,0,0,1-2,2.72-5.36a28.93,28.93,0,0,0,9.4,2.31s-9.13-5.21-10.94-6.84c0,0-1.19,7.54-4,9,0,0,.21,6.71-5.89,6.58a70.31,70.31,0,0,0-2.7-9.56s1.73-11.39,7.87-16.38C799.25,279.72,816.49,283.63,821.64,281Z"/><path class="cls-52" d="M815,272.47s-14.47-3.27-19-4.59a5.47,5.47,0,0,0-6.71,3.91,43.16,43.16,0,0,1-6.28,10s-4,2.88,3.81,12.5A14.58,14.58,0,0,1,790,300s1.56.85,2.45-.41l-.76-2.11s-.27.6-1.37.54c0,0-3.26-6.63-5.76-10.42,0,0-1.6-3.16,0-5.2,0,0,4.94-5.38,7.15-10.6,0,0,2.12-3.28,5.1-2.43C796.73,269.39,810.28,274.43,815,272.47Z"/><path class="cls-52" d="M812.56,264s-19.25-4.15-24.2-5.23a21,21,0,0,0-7.47,4.05,27,27,0,0,1,2.7,1.53s.95-4.1,5-4.14C788.61,260.24,807.1,264.31,812.56,264Z"/><path class="cls-52" d="M776.71,277.2s0,2.54,5.92,10.38c0,0,8,8.39,9.25,12.44,0,0,6.78,16.3-9.06,17.91,0,0,3.53-22.44-8-33.78a14.14,14.14,0,0,1-.64-7.85S774.42,276.64,776.71,277.2Z"/><path class="cls-52" d="M785.12,265.64s-3.31,1.56-6.83,6.93c0,0-8.34,2-5.37-8.2,0,0,2.76-2.5,8.79-1.1A5,5,0,0,1,785.12,265.64Z"/><path class="cls-52" d="M784,264.36s3.67.5,5.05,2.85c0,0,1.2,10.49-12.38,10,0,0-4.59-.71-9.38-1.74,0,0,9.8,1.76,16.09-1.49a6.6,6.6,0,0,0,3.71-6.67S787.19,265.87,784,264.36Z"/><path class="cls-73" d="M758.59,258.67s-19.74,12.06-6,48.39c0,0,4,14.06-24.94,37.28,0,0-35.89,25.39-50.52,30.52,0,0-22.73,6.65-37.83,16.11,0,0-18.81-9-28.64-12.94,0,0,16.44,7.11,29,20.08,0,0,22.08-12.78,43.43-20,0,0,49.88-24.47,65.83-48.22,0,0,10.64-12.15,7.26-25.69C756.21,304.23,745,277.41,758.59,258.67Z"/><path class="cls-71" d="M384.17,378.6a10.58,10.58,0,0,1-4.57-.46s-11.28,9.35-16.46,11.59c0,0-.95,13.87-3.85,20.69l1.57,2.23s5.2-11.48,5.68-20.67c0,0,10.91-9.18,14.1-10.76s4.66-.58,4.66-.58Z"/><path class="cls-71" d="M420.87,502.45l-61.58-92a8.13,8.13,0,0,0,.91-2.54l62.23,92.7Z"/><path class="cls-7" d="M329.12,731.25s89.43-17.53,143.71,25.65c0,0,20.05,71.2-22.07,206.49,0,0-25.57,18.38-37.67-14.48,0,0,42.09-93.31,21.19-167.28,0,0-57.29-14.34-85.82-7.46C348.46,774.17,316.27,774.41,329.12,731.25Z"/><path class="cls-10" d="M428.15,962.82s48-111,26.82-198.34c0,0-58-27-122.59-16.75,0,0,.56,20.69,21.85,21.19,0,0,31.85-7.06,86,9.14,0,0,17.43,68.39-24.18,167.43C416,945.49,418.8,960.05,428.15,962.82Z"/><path class="cls-5" d="M229.29,610.69l1.4-33.8,24-5s101.23,50.73,84,269.19l-27.87,5.31-9.36-31.66S310.09,678.22,229.29,610.69Z"/><path class="cls-7" d="M310.82,846.36s23.71-195.14-80.13-269.47c0,0-9.84,58,16.78,212.83C247.47,789.72,272.49,832.33,310.82,846.36Z"/><polygon class="cls-3" points="179.86 853.91 179.48 655.87 183.59 652.11 183.15 854.05 179.86 853.91"/><polygon class="cls-3" points="190.97 856.88 284.92 690.85 287.19 695.3 192.69 862.83 190.97 856.88"/><path class="cls-3" d="M169.72,891.77l-59.56,160.41a15.8,15.8,0,0,0,8,9.45l56.25-169Z"/><polygon class="cls-3" points="181.88 892.95 178.88 1066.04 187.91 1061.44 185.96 891.8 181.88 892.95"/><path class="cls-3" d="M165.31,882.23,25.88,967.84a9.07,9.07,0,0,0-.46,11.07l142.37-92.72Z"/><path class="cls-3" d="M167.47,858.81l-79.25-126s-1.13-4.13,3.51-7l79.16,131.05Z"/><polygon class="cls-3" points="189.81 884.85 240.19 957.03 246.11 948.31 192.14 881.81 189.81 884.85"/><polygon class="cls-3" points="195.95 867.09 274.48 849.51 274.16 840.07 196.11 863.29 195.95 867.09"/><path class="cls-13" d="M234.74,612.29C165.31,588.67,74.1,682,31,820.75s-21.72,270.35,47.72,294S239.38,1045,282.46,906.26,304.17,635.9,234.74,612.29Zm19.33,283.13C216.34,1018.55,139.88,1103,83.29,1084S11.42,949.78,49.16,826.64,163.35,619.08,219.94,638.07,291.81,772.28,254.07,895.42Z"/><path class="cls-74" d="M247.53,615.09c-69.44-23.6-160.64,69.72-203.72,208.46s-21.71,270.35,47.73,294,160.63-69.72,203.7-208.46S317,638.71,247.53,615.09Zm19.32,283.14c-37.73,123.13-114.19,207.56-170.77,188.56S24.21,952.58,61.94,829.45s114.2-207.57,170.79-188.57S304.59,775.09,266.85,898.23Z"/><path class="cls-15" d="M204.63,633.45C143,612.48,61.94,695.38,23.68,818.62S4.39,1058.77,66.07,1079.74s142.68-61.92,181-185.16S266.3,654.43,204.63,633.45ZM221.8,885c-33.52,109.38-101.44,184.37-151.7,167.5S6.26,933.24,39.78,823.85s101.44-184.37,151.7-167.5S255.32,775.57,221.8,885Z"/><path class="cls-9" d="M199.64,877.25c-2.91,13.39-13.73,22.24-24.18,19.76s-16.55-15.33-13.64-28.72,13.73-22.23,24.17-19.75S202.55,863.87,199.64,877.25Z"/><path class="cls-2" d="M149.82,842s11.57,14.33,30.47,17.35c0,0,7,20-5.5,25.2,0,0-28.82-8.57-42.53,1.15C132.26,885.71,127.17,849.87,149.82,842Z"/><path class="cls-9" d="M150.52,866.43c-5,23-23.55,38.12-41.46,33.87S80.68,874,85.66,851.05s23.55-38.12,41.46-33.87S155.5,843.47,150.52,866.43Z"/><path class="cls-2" d="M129.66,860.06c-3.12,14.34-14.7,23.8-25.89,21.15s-17.72-16.42-14.61-30.75,14.71-23.8,25.89-21.15S132.77,845.72,129.66,860.06Z"/><path class="cls-16" d="M124.94,859c-2.67,12.27-12.59,20.37-22.16,18.1S87.6,863.07,90.27,850.8s12.59-20.37,22.16-18.1S127.6,846.75,124.94,859Z"/><polygon class="cls-2" points="118.51 822.27 149.71 665.38 153.81 661.62 121.8 822.42 118.51 822.27"/><polygon class="cls-2" points="132.31 832.79 216.09 674.69 218.36 679.15 134.04 838.75 132.31 832.79"/><path class="cls-28" d="M338.69,841.05S368.87,652.7,260,566.91l-29.34,10,24-5S354.15,622.52,338.69,841.05Z"/><path class="cls-2" d="M103,883.8,46.54,1024.32s.19,10,6.57,13.09l54.64-152.76Z"/><polygon class="cls-2" points="116.81 886.37 110.05 1049.89 119.08 1045.29 120.89 885.22 116.81 886.37"/><path class="cls-2" d="M91.49,875.25,26,916.2a9.09,9.09,0,0,0-.46,11.07L94,879.21Z"/><path class="cls-2" d="M97.32,834.23,64.09,775.65S63,771.52,67.6,768.7l33.14,63.58Z"/><polygon class="cls-2" points="130.25 882.64 169.12 995.01 175.04 986.28 132.58 879.61 130.25 882.64"/><polygon class="cls-2" points="135.44 854.27 240.15 764.97 239.83 755.53 135.6 850.47 135.44 854.27"/><path class="cls-12" d="M203.21,626.51c-61.67-21-137.73,48.24-176,171.48S3,1051.83,64.65,1072.8s137.82-62.14,176.09-185.38S264.89,647.48,203.21,626.51ZM220.38,878c-33.52,109.38-107.29,189.17-157.55,172.3S-3.43,925.59,30.09,816.21,136.33,626.63,186.59,643.5,253.9,768.63,220.38,878Z"/><polygon class="cls-2" points="137.11 862.66 222.9 880.9 219.63 891.8 136.98 865.79 137.11 862.66"/><path class="cls-1" d="M196.34,630.07c-61.68-21-136.43,61.58-174.69,184.82s-25.56,240.5,36.12,261.47S195.6,1014.23,233.86,891,258,651,196.34,630.07Zm17.17,251.49C180,990.94,112.07,1065.94,61.8,1049.07S-2,929.85,31.49,820.47,132.92,636.1,183.19,653,247,772.18,213.51,881.56Z"/><path class="cls-13" d="M120.26,856.28c-2.66,12.27-12.59,20.38-22.16,18.11s-15.17-14.06-12.51-26.33S98.18,827.68,107.76,830,122.93,844,120.26,856.28Z"/><path class="cls-17" d="M109,855.45c-6,4.94-14,4.77-17.82-.39S89,841.72,95,836.78s14-4.77,17.82.39S115,850.5,109,855.45Z"/><path class="cls-52" d="M572.92,434.45s59.62,19.58,78.43,22.76c0,0,18.32,6.8,31.77-8.67,0,0,42.39-32.63,73-70.4,0,0,26.79-29.76,37.19-39.92,0,0-24.54,22.13-41,39.28,0,0-52.7,53.1-72,65.58,0,0-4.32,10.56-28.52,9.39,0,0-47.86-18.51-70.1-22.94,0,0,4.09-29.26,22.59-54.07C604.27,375.46,582.54,385.78,572.92,434.45Z"/><path class="cls-75" d="M239.92,468.53s2-33.89,46.27-39c0,0-36.92,5.54-46,44.54Z"/><path class="cls-11" d="M400.22,1058.48s5.47,22.18,12,35.14c0,0,98.11,22.82,149.34,23.14,0,0,1.09-20.14-3.34-29.16C558.26,1087.6,465.1,1087.37,400.22,1058.48Z"/><path class="cls-76" d="M183.59,638.72s111,20.11,34.77,275.4l-4.28-2.3s79.75-223.74-31.5-269.24Z"/><path class="cls-76" d="M11,983.08s-22.71-238.9,133.61-333.25l-2.34-4.75s-146.48,76.86-135.6,338Z"/><polygon class="cls-3" points="426.72 1077.28 402.1 1038.74 402.76 1037.58 427.64 1076.97 426.72 1077.28"/><polygon class="cls-3" points="430.14 1076.71 435.36 1034.62 436.54 1035.25 431.35 1077.69 430.14 1076.71"/><path class="cls-3" d="M428.63,1085.71l3.51,37.43a5.21,5.21,0,0,0,3.38,1L430,1085.38Z"/><polygon class="cls-3" points="432.11 1084.68 452.72 1118.71 454.63 1116.87 433.08 1084.03 432.11 1084.68"/><path class="cls-3" d="M426.23,1084.31l-27.66,31.14s-.62,1.43,1.25,2.21l27.59-32.84Z"/><path class="cls-3" d="M423.93,1079.52l-37.36-16.32s-.82-.69.11-1.73l37.94,17.32Z"/><polygon class="cls-3" points="433.28 1082.28 456.05 1091.11 456.59 1088.79 433.54 1081.44 433.28 1082.28"/><polygon class="cls-3" points="432.77 1078.18 452.14 1066.6 450.88 1064.8 432.34 1077.43 432.77 1078.18"/><path class="cls-13" d="M411.87,1024.52c-22,2.6-35.45,30.25-30.1,61.75s27.52,54.92,49.5,52.31,35.44-30.25,30.09-61.75S433.84,1021.91,411.87,1024.52Zm40.35,53.14c4.9,27.91-5.63,52.29-23.51,54.46s-36.34-18.68-41.23-46.59,5.64-52.28,23.52-54.45S447.33,1049.76,452.22,1077.66Z"/><path class="cls-77" d="M415.72,1023.74c-22,2.61-35.45,30.25-30.09,61.75s23.53,52.08,45.64,53.09c21.46,1,50.74-16.27,43.4-62.09C467.63,1032.52,437.7,1021.13,415.72,1023.74Zm40.36,53.14c4.89,27.91-5.64,52.29-23.52,54.46s-36.33-18.68-41.23-46.58,5.64-52.29,23.52-54.46S451.19,1049,456.08,1076.88Z"/><path class="cls-15" d="M406.22,1031.77c-19.52,2.31-31.49,26.87-26.73,54.85s24.45,48.78,44,46.47,31.49-26.88,26.74-54.85S425.74,1029.45,406.22,1031.77ZM442.07,1079c4.35,24.78-5,46.44-20.89,48.37s-32.28-16.6-36.62-41.39,5-46.44,20.89-48.37S437.73,1054.19,442.07,1079Z"/><path class="cls-9" d="M435,1079.78a5,5,0,0,1-4.19,6.35,6.39,6.39,0,0,1-7.3-4.17,5,5,0,0,1,4.19-6.36A6.41,6.41,0,0,1,435,1079.78Z"/><path class="cls-2" d="M417,1078.08a21.34,21.34,0,0,0,10.52.22s4.39,3.17,1.6,5.48c0,0-9,1.32-11.52,4.64C417.6,1088.42,411.76,1082,417,1078.08Z"/><path class="cls-9" d="M420.22,1082.77c1.48,5-1.74,9.87-7.18,10.9s-11.05-2.18-12.52-7.17,1.74-9.87,7.18-10.9S418.74,1077.78,420.22,1082.77Z"/><path class="cls-2" d="M413.71,1083.69a5.39,5.39,0,0,1-4.49,6.81,6.87,6.87,0,0,1-7.82-4.48,5.39,5.39,0,0,1,4.49-6.8A6.85,6.85,0,0,1,413.71,1083.69Z"/><path class="cls-16" d="M412.28,1084a4.62,4.62,0,0,1-3.83,5.83,5.88,5.88,0,0,1-6.7-3.84,4.61,4.61,0,0,1,3.84-5.82A5.87,5.87,0,0,1,412.28,1084Z"/><polygon class="cls-2" points="405.97 1077.48 395.1 1043.68 395.76 1042.53 406.89 1077.17 405.97 1077.48"/><polygon class="cls-2" points="411.06 1078.1 414.47 1038.61 415.65 1039.24 412.27 1079.09 411.06 1078.1"/><path class="cls-2" d="M409.34,1091.08l1.9,33.23a4.35,4.35,0,0,0,3.42,1.87l-3.92-35.43Z"/><polygon class="cls-2" points="413.44 1090.15 431.83 1122.7 433.74 1120.87 414.41 1089.5 413.44 1090.15"/><path class="cls-2" d="M405.11,1090.61l-12.89,14.77s-.63,1.42,1.24,2.21l12.82-16.47Z"/><path class="cls-2" d="M401.63,1082l-16.37-8s-.82-.68.11-1.72l17,9Z"/><polygon class="cls-2" points="416.67 1088.03 441.24 1105.88 441.79 1103.57 416.93 1087.19 416.67 1088.03"/><polygon class="cls-2" points="414.58 1081.96 432.25 1053.7 431 1051.89 414.15 1081.2 414.58 1081.96"/><path class="cls-12" d="M405,1030.56c-19.52,2.31-31.82,23.69-27.06,51.67s24.78,52,44.29,49.65,30.13-26.41,25.38-54.39S424.5,1028.24,405,1030.56Zm35.86,47.21c4.34,24.79-6,48-21.91,49.92s-33.62-17.42-38-42.21,5.67-48,21.56-49.88S436.48,1053,440.83,1077.77Z"/><polygon class="cls-2" points="416.07 1083.42 441.88 1078.08 442.33 1080.53 416.43 1084.05 416.07 1083.42"/><path class="cls-1" d="M403.53,1032c-19.53,2.31-29.81,26.15-25.06,54.13s22.77,49.5,42.29,47.18,30.13-26.4,25.37-54.38S423.05,1029.65,403.53,1032Zm35.85,47.21c4.34,24.78-5,46.44-20.89,48.37s-32.28-16.6-36.62-41.39,5-46.44,20.89-48.37S435,1054.39,439.38,1079.18Z"/><path class="cls-13" d="M410.66,1083.93a4.6,4.6,0,0,1-3.84,5.82,5.86,5.86,0,0,1-6.69-3.82,4.61,4.61,0,0,1,3.84-5.83A5.87,5.87,0,0,1,410.66,1083.93Z"/><path class="cls-17" d="M407.45,1084.94a4.42,4.42,0,0,1-4.93,1.77,2.52,2.52,0,0,1-1.2-4,4.46,4.46,0,0,1,4.94-1.78A2.51,2.51,0,0,1,407.45,1084.94Z"/></g></g></svg>