<svg xmlns="http://www.w3.org/2000/svg" viewBox="0 0 225.14 225.14"><defs><style>.cls-1{fill:#36a9e1;}.cls-2,.cls-4{fill:#00d154;}.cls-3{fill:#fff;}.cls-4{stroke:#00d154;stroke-miterlimit:10;stroke-width:0.25px;}</style></defs><g id="Camada_2" data-name="Camada 2"><g id="Camada_1-2" data-name="Camada 1"><polygon class="cls-1" points="203.11 179.81 157.36 216.07 99.61 224.6 45.34 203.11 9.08 157.36 0.55 99.61 22.03 45.34 67.78 9.08 125.53 0.55 179.81 22.03 216.07 67.78 224.6 125.53 203.11 179.81"/><polygon class="cls-2" points="224.13 96.09 217.43 154.08 182.62 200.95 129.05 224.13 71.06 217.43 24.2 182.62 1.01 129.05 7.72 71.06 42.52 24.2 96.09 1.01 154.08 7.72 200.95 42.52 224.13 96.09"/><polygon class="cls-3" points="113.24 0 56.87 14.75 15.42 55.71 0 111.9 14.75 168.28 55.71 209.73 111.9 225.15 168.28 210.4 209.73 169.44 225.15 113.24 210.4 56.87 169.44 15.42 113.24 0"/><path class="cls-4" d="M51.08,75.83A14.18,14.18,0,0,1,56.83,77a14.83,14.83,0,0,1,7.83,7.85,14.29,14.29,0,0,1,1.17,5.73v11.91A2.82,2.82,0,0,1,63,105.33a2.84,2.84,0,0,1-2-.83,2.71,2.71,0,0,1-.84-2V97h-9v0a1.91,1.91,0,0,1-.5,0,9.07,9.07,0,0,0-5.38,1.74,8.89,8.89,0,0,0-2,2A8.7,8.7,0,0,0,42,103.22a.12.12,0,0,0,0,.09.14.14,0,0,1,0,.09,2.61,2.61,0,0,1-1,1.4,2.81,2.81,0,0,1-1.69.53,2.76,2.76,0,0,1-2-.83,2.73,2.73,0,0,1-.82-2V90.58a13.89,13.89,0,0,1,.92-5.09,15.24,15.24,0,0,1,3.29-5.22A15.94,15.94,0,0,1,45.33,77,14.1,14.1,0,0,1,51.08,75.83Zm9,15.44v-.69A8.81,8.81,0,0,0,59,86.18a.14.14,0,0,0,0-.07s0,0,0-.07-.25-.36-.37-.55-.25-.35-.37-.5a8.74,8.74,0,0,0-3.07-2.52,8.87,8.87,0,0,0-4-.91,8.48,8.48,0,0,0-4,1,9.39,9.39,0,0,0-3.09,2.59,9,9,0,0,0-1.35,2.52,8.78,8.78,0,0,0-.48,2.93V94a14.41,14.41,0,0,1,8.47-2.7h9.53Z"/><path class="cls-4" d="M101,59.75a4,4,0,1,1-4-4A4,4,0,0,1,101,59.75Z"/><path class="cls-4" d="M96.86,68.59a2.78,2.78,0,0,0-2,.83,2.74,2.74,0,0,0-.83,2V79h0a14.41,14.41,0,0,0-5.13-2.57A14.75,14.75,0,0,0,83.1,76a15,15,0,0,0-5.45,1.81A14.09,14.09,0,0,0,73.3,81.6a14.92,14.92,0,0,0-2.2,4.08,15.16,15.16,0,0,0-.87,4.53,14.58,14.58,0,0,0,1.63,7.12,14.61,14.61,0,0,0,12,8,14.89,14.89,0,0,0,7.44-1.37,15.37,15.37,0,0,0,3.14-2A14.81,14.81,0,0,0,97,99.14a14.76,14.76,0,0,0,2.68-6.87c0-.24.06-.48.07-.71s0-.46,0-.71V71.43a2.71,2.71,0,0,0-.84-2A2.77,2.77,0,0,0,96.86,68.59Zm-9,30.67-.78.3.88-.35Zm6-7a9.29,9.29,0,0,1-2.09,4.28,9.4,9.4,0,0,1-2.93,2.24c-.21.1-.43.19-.64.27l.37-.18a8.32,8.32,0,0,1-3,.74,9.79,9.79,0,0,1-3-.28A8.53,8.53,0,0,1,79.77,98a9,9,0,0,1-2.22-2.27A7.86,7.86,0,0,1,76.25,93a9.52,9.52,0,0,1-.3-3,8.59,8.59,0,0,1,.83-3.28A9.45,9.45,0,0,1,78.7,84a7.56,7.56,0,0,1,1.25-1,15.74,15.74,0,0,1,1.4-.78,8.46,8.46,0,0,1,3.59-.78,8.82,8.82,0,0,1,3.64.78,9.16,9.16,0,0,1,3,2.1,9,9,0,0,1,2.29,7.91Z"/><path class="cls-4" d="M119.79,75.83A14.25,14.25,0,0,1,125.54,77a14.83,14.83,0,0,1,7.83,7.85,14.29,14.29,0,0,1,1.17,5.73v11.91a2.83,2.83,0,0,1-2.84,2.84,2.81,2.81,0,0,1-2-.83,2.68,2.68,0,0,1-.85-2V97h-9v0a2,2,0,0,1-.51,0,9.24,9.24,0,0,0-2.88.46,9.09,9.09,0,0,0-2.5,1.28,8.85,8.85,0,0,0-1.94,2,8.46,8.46,0,0,0-1.24,2.52.14.14,0,0,0,0,.09.12.12,0,0,1,0,.09,2.61,2.61,0,0,1-1,1.4,2.83,2.83,0,0,1-1.69.53,2.82,2.82,0,0,1-2.84-2.84V90.58a14.1,14.1,0,0,1,.91-5.09,15.12,15.12,0,0,1,3.3-5.22A15.69,15.69,0,0,1,114,77,14.06,14.06,0,0,1,119.79,75.83Zm9,15.44v-.69a8.8,8.8,0,0,0-1.14-4.4.09.09,0,0,0,0-.07.1.1,0,0,1,0-.07l-.36-.55c-.13-.18-.25-.35-.37-.5a8.79,8.79,0,0,0-7.1-3.43,8.42,8.42,0,0,0-4.05,1,9.53,9.53,0,0,0-3.1,2.59,9,9,0,0,0-1.35,2.52,8.78,8.78,0,0,0-.48,2.93V94a14.47,14.47,0,0,1,8.47-2.7h9.53Z"/><path class="cls-4" d="M162.28,78.44a14.16,14.16,0,0,1,2.78,2.45,14.84,14.84,0,0,1,2,3,15.73,15.73,0,0,1,1.26,3.44,14.05,14.05,0,0,1,.39,3.64,15.47,15.47,0,0,1-.87,4.56,14.89,14.89,0,0,1-2.2,4.1,14.09,14.09,0,0,1-4.35,3.78,14.93,14.93,0,0,1-5.45,1.81,14.3,14.3,0,0,1-5.75-.44,15.79,15.79,0,0,1-5.15-2.54v7.51a2.88,2.88,0,0,1-4.89,2,2.71,2.71,0,0,1-.83-2V90.4c0-.25,0-.48,0-.71s0-.47.07-.71a13.17,13.17,0,0,1,.89-3.65A15.7,15.7,0,0,1,142,82.06a14.81,14.81,0,0,1,2.52-2.73,15.55,15.55,0,0,1,3.15-2,14.78,14.78,0,0,1,14.58,1.14ZM163,91.22a8.6,8.6,0,0,0-1.6-5.77,8.92,8.92,0,0,0-5-3.57,8.6,8.6,0,0,0-6,.41c.25-.12.49-.24.74-.34s.49-.21.73-.3L151,82c-.29.13-.57.26-.85.42a7.82,7.82,0,0,0-2.93,2.19,9.33,9.33,0,0,0-2.08,4.31,8.76,8.76,0,0,0,.34,4.76A9.24,9.24,0,0,0,150.41,99a9.14,9.14,0,0,0,3.61.73,8.71,8.71,0,0,0,3.61-.77c.49-.25,1-.51,1.4-.78a8.84,8.84,0,0,0,1.25-1,9.64,9.64,0,0,0,1.92-2.73A8.44,8.44,0,0,0,163,91.22Z"/><path class="cls-4" d="M196.33,76.68a2.8,2.8,0,0,1,.82,2,2.82,2.82,0,0,1-2.84,2.84H187v20.93a2.71,2.71,0,0,1-.84,2,2.84,2.84,0,0,1-2,.83,2.82,2.82,0,0,1-2.84-2.84V81.56h-7.33a2.82,2.82,0,0,1-2.84-2.84,2.8,2.8,0,0,1,.82-2,2.69,2.69,0,0,1,2-.85h20.38A2.69,2.69,0,0,1,196.33,76.68Z"/><path class="cls-4" d="M59.69,139.56a8.47,8.47,0,0,1-.68,3.38,9,9,0,0,1-1.84,2.78,8.62,8.62,0,0,1-2.75,1.9,8.3,8.3,0,0,1-3.38.71H38.4a2.78,2.78,0,0,1-2-.84,2.84,2.84,0,0,1,0-4.05,2.78,2.78,0,0,1,2-.84H51a2.91,2.91,0,0,0,2.13-.9,3,3,0,0,0,.89-2.14,3,3,0,0,0-.89-2.19,2.91,2.91,0,0,0-2.13-.9H45a8.55,8.55,0,0,1-3.43-.69,9,9,0,0,1-2.8-1.88,8.69,8.69,0,0,1-2.56-6.23,8.71,8.71,0,0,1,.68-3.43,9,9,0,0,1,1.88-2.8,9.36,9.36,0,0,1,2.77-1.9,8.31,8.31,0,0,1,3.42-.71h5.81a2.78,2.78,0,0,1,2,.84,2.74,2.74,0,0,1,.85,2,2.78,2.78,0,0,1-.85,2,2.82,2.82,0,0,1-2,.84H44.91a3,3,0,0,0-2.11.93,3,3,0,0,0-.88,2.18,3,3,0,0,0,.87,2.16,2.86,2.86,0,0,0,2.16.91H50.9a8.47,8.47,0,0,1,3.44.71,9.29,9.29,0,0,1,2.79,1.89A9,9,0,0,1,59,136.13,8.57,8.57,0,0,1,59.69,139.56Z"/><path class="cls-4" d="M86.71,121.44a14.1,14.1,0,0,1,2.77,2.45,15.31,15.31,0,0,1,2,3,15.73,15.73,0,0,1,1.26,3.44,14.05,14.05,0,0,1,.39,3.64,15.47,15.47,0,0,1-.87,4.56,15.16,15.16,0,0,1-2.2,4.1,14.09,14.09,0,0,1-4.35,3.78,15,15,0,0,1-5.45,1.81,14.29,14.29,0,0,1-5.75-.44,15.74,15.74,0,0,1-5.16-2.54v7.51a2.71,2.71,0,0,1-.83,2,2.86,2.86,0,0,1-4.89-2V133.4c0-.25,0-.48,0-.71s0-.47.07-.71a13.17,13.17,0,0,1,.89-3.65,16.68,16.68,0,0,1,1.79-3.27A14.52,14.52,0,0,1,69,122.33a15.48,15.48,0,0,1,3.14-2,14.8,14.8,0,0,1,14.59,1.14Zm.74,12.78a8.6,8.6,0,0,0-1.6-5.77,9,9,0,0,0-2.22-2.25,8.82,8.82,0,0,0-2.81-1.32,8.58,8.58,0,0,0-6,.41c.24-.12.49-.24.73-.34l.73-.3-.89.36c-.29.13-.57.26-.85.42a7.9,7.9,0,0,0-2.93,2.19,9.33,9.33,0,0,0-2.08,4.31,8.86,8.86,0,0,0,.34,4.76,9,9,0,0,0,8.56,6,8.76,8.76,0,0,0,3.62-.77c.48-.25,1-.51,1.39-.78a9.53,9.53,0,0,0,1.26-1,10.05,10.05,0,0,0,1.92-2.73A8.42,8.42,0,0,0,87.45,134.22Z"/><path class="cls-4" d="M123.57,128.06a14.51,14.51,0,0,0-3.19-4.79,14.3,14.3,0,0,0-5.93-3.66,14.46,14.46,0,0,0-6.94-.51,15.86,15.86,0,0,0-5.17,1.93,13.55,13.55,0,0,0-4.13,3.71h0a7.58,7.58,0,0,0-.78,1.19,13.4,13.4,0,0,0-1.53,3.41,15.41,15.41,0,0,0-.62,3.66,14.76,14.76,0,0,0,.29,3.69,15.38,15.38,0,0,0,1.22,3.53,14.33,14.33,0,0,0,2.15,3.16,15.17,15.17,0,0,0,6.28,4.17,14.75,14.75,0,0,0,16.58-5.18,15.52,15.52,0,0,0,2.13-4.1,14.89,14.89,0,0,0-.32-10.21Zm-10.73-3a8.11,8.11,0,0,1,2.69,1.46,9.7,9.7,0,0,1,2.38,2.84,8.76,8.76,0,0,1,1,2.79,24,24,0,0,0-7.57-4.6A20.72,20.72,0,0,1,112.84,125.06Zm-7.75.87a9.09,9.09,0,0,1,5.64-1.34,22.14,22.14,0,0,0-1.39,2.38,17.21,17.21,0,0,0-5-.49A7,7,0,0,1,105.09,125.93Zm-3.21,3.52a7,7,0,0,1,.44-.75,15.74,15.74,0,0,1,6.16.1,34.21,34.21,0,0,0-1.68,5,18.31,18.31,0,0,0-5.93-.57A8.92,8.92,0,0,1,101.88,129.45Zm3.59,12.06a9.32,9.32,0,0,1-1.62-1.18,8.65,8.65,0,0,1-1.79-2.21l.13.27c-.08-.14-.15-.28-.22-.42l.09.15a4.16,4.16,0,0,0-.23-.42,8.3,8.3,0,0,1-.84-2.47,16.2,16.2,0,0,1,5.36.51A50.36,50.36,0,0,0,105.47,141.51Zm7.13.77a8.68,8.68,0,0,1-3.12.44,8.1,8.1,0,0,1-2.08-.36,51,51,0,0,1,.86-6A20.31,20.31,0,0,1,115,141.1,8.71,8.71,0,0,1,112.6,142.28Zm6.16-6.6a9.17,9.17,0,0,1-1.35,3.07,8,8,0,0,1-.87,1.06,22.28,22.28,0,0,0-7.84-5.38,31.76,31.76,0,0,1,1.73-5.1,23.19,23.19,0,0,1,8.48,5.57Q118.85,135.29,118.76,135.68Z"/><path class="cls-4" d="M142.76,119.72a2.69,2.69,0,0,1,.8,2,2.9,2.9,0,0,1-2.88,2.89h-.23a9,9,0,0,0-3.37.82,9.16,9.16,0,0,0-2.75,2,9,9,0,0,0-2.5,6.25v11.91a2.71,2.71,0,0,1-.84,2,2.84,2.84,0,0,1-2,.83,2.82,2.82,0,0,1-2.84-2.84V133.58a14.26,14.26,0,0,1,1.12-5.66,15,15,0,0,1,3-4.62,14.79,14.79,0,0,1,4.53-3.19,14.43,14.43,0,0,1,5.59-1.28h.41A3,3,0,0,1,142.76,119.72Z"/><path class="cls-4" d="M170.91,119.68a2.8,2.8,0,0,1,.82,2,2.73,2.73,0,0,1-.82,2,2.76,2.76,0,0,1-2,.83h-7.33v20.93a2.68,2.68,0,0,1-.85,2,2.8,2.8,0,0,1-2,.83,2.82,2.82,0,0,1-2.84-2.84V124.56h-7.33a2.82,2.82,0,0,1-2.84-2.84,2.8,2.8,0,0,1,.82-2,2.69,2.69,0,0,1,2-.85h20.38A2.7,2.7,0,0,1,170.91,119.68Z"/><path class="cls-4" d="M196.83,139.56a8.65,8.65,0,0,1-.68,3.38,9.17,9.17,0,0,1-1.84,2.78,8.55,8.55,0,0,1-2.76,1.9,8.23,8.23,0,0,1-3.38.71H175.53a2.81,2.81,0,0,1-2-.84,2.86,2.86,0,0,1,0-4.05,2.81,2.81,0,0,1,2-.84h12.55a2.88,2.88,0,0,0,2.13-.9,2.92,2.92,0,0,0,.9-2.14,3,3,0,0,0-.9-2.19,2.88,2.88,0,0,0-2.13-.9h-6a8.63,8.63,0,0,1-3.44-.69,8.85,8.85,0,0,1-2.79-1.88,8.76,8.76,0,0,1-2.57-6.23,8.55,8.55,0,0,1,.69-3.43,8.84,8.84,0,0,1,1.88-2.8,9.23,9.23,0,0,1,2.77-1.9,8.26,8.26,0,0,1,3.41-.71h5.82a2.81,2.81,0,0,1,2,.84,2.85,2.85,0,0,1,0,4,2.79,2.79,0,0,1-2,.84h-5.84a3,3,0,0,0-2.12.93,3.14,3.14,0,0,0,0,4.34,2.85,2.85,0,0,0,2.15.91h6a8.43,8.43,0,0,1,3.43.71,9.22,9.22,0,0,1,2.8,1.89,8.77,8.77,0,0,1,1.87,2.79A8.58,8.58,0,0,1,196.83,139.56Z"/></g></g></svg>