<svg xmlns="http://www.w3.org/2000/svg" viewBox="0 0 225.14 225.14"><defs><style>.cls-1,.cls-4{fill:#36a9e1;}.cls-2{fill:#00d154;}.cls-3{fill:#fff;}.cls-4{stroke:#36a9e1;stroke-miterlimit:10;stroke-width:0.25px;}</style></defs><g id="Camada_2" data-name="Camada 2"><g id="Camada_1-2" data-name="Camada 1"><polygon class="cls-1" points="203.11 179.81 157.36 216.07 99.61 224.6 45.34 203.11 9.08 157.36 0.55 99.61 22.03 45.34 67.78 9.08 125.53 0.55 179.81 22.03 216.07 67.78 224.6 125.53 203.11 179.81"/><polygon class="cls-2" points="224.13 96.09 217.43 154.08 182.62 200.95 129.05 224.13 71.06 217.43 24.2 182.62 1.01 129.05 7.72 71.06 42.52 24.2 96.09 1.01 154.08 7.72 200.95 42.52 224.13 96.09"/><polygon class="cls-3" points="113.24 0 56.87 14.75 15.42 55.71 0 111.9 14.75 168.28 55.71 209.73 111.9 225.15 168.28 210.4 209.73 169.44 225.15 113.24 210.4 56.87 169.44 15.42 113.24 0"/><path class="cls-4" d="M48.32,76.08a14.21,14.21,0,0,1,5.75,1.16,15.28,15.28,0,0,1,4.67,3.16,15,15,0,0,1,3.16,4.7,14.24,14.24,0,0,1,1.17,5.72v11.91a2.82,2.82,0,0,1-2.84,2.84,2.81,2.81,0,0,1-2-.82,2.73,2.73,0,0,1-.85-2V97.24h-9v0a1.8,1.8,0,0,1-.5,0,9.25,9.25,0,0,0-2.89.45A9.11,9.11,0,0,0,42.43,99a8.85,8.85,0,0,0-1.94,2,8.46,8.46,0,0,0-1.24,2.52.14.14,0,0,0,0,.09.12.12,0,0,1,0,.09,2.65,2.65,0,0,1-1,1.4,2.82,2.82,0,0,1-1.69.52,2.8,2.8,0,0,1-2.84-2.84V90.82a14,14,0,0,1,.91-5.08,14.78,14.78,0,0,1,8-8.47A13.9,13.9,0,0,1,48.32,76.08Zm9,15.43v-.69a8.76,8.76,0,0,0-1.14-4.39.12.12,0,0,0,0-.07.09.09,0,0,1,0-.07l-.36-.55c-.13-.18-.25-.35-.37-.5a8.74,8.74,0,0,0-3.07-2.52,8.88,8.88,0,0,0-4-.92,8.43,8.43,0,0,0-4,1,9.5,9.5,0,0,0-3.1,2.58,9.28,9.28,0,0,0-1.35,2.52,8.87,8.87,0,0,0-.48,2.93v3.39a14.47,14.47,0,0,1,8.48-2.7h9.52Z"/><path class="cls-4" d="M98.2,60a4,4,0,1,1-4-4A4,4,0,0,1,98.2,60Z"/><path class="cls-4" d="M94.1,68.84a2.78,2.78,0,0,0-2,.83,2.74,2.74,0,0,0-.83,2v7.56h0a14.41,14.41,0,0,0-5.13-2.57,14.75,14.75,0,0,0-5.72-.41,15,15,0,0,0-5.45,1.81,14.09,14.09,0,0,0-4.35,3.78,14.92,14.92,0,0,0-2.2,4.08,15.16,15.16,0,0,0-.87,4.53,14.58,14.58,0,0,0,1.63,7.12,14.61,14.61,0,0,0,12,8,14.89,14.89,0,0,0,7.44-1.37,15.37,15.37,0,0,0,3.14-2,14.81,14.81,0,0,0,2.52-2.73,14.76,14.76,0,0,0,2.68-6.87c0-.24.06-.48.07-.71s0-.46,0-.71V71.68a2.71,2.71,0,0,0-.84-2A2.77,2.77,0,0,0,94.1,68.84Zm-9,30.67-.78.3.88-.35Zm6-7A9.29,9.29,0,0,1,89,96.83a9.4,9.4,0,0,1-2.93,2.24c-.21.1-.43.19-.64.27l.37-.18a8.32,8.32,0,0,1-3,.74,9.79,9.79,0,0,1-3-.28A8.53,8.53,0,0,1,77,98.27,9,9,0,0,1,74.79,96a7.86,7.86,0,0,1-1.3-2.72,9.52,9.52,0,0,1-.3-3A8.59,8.59,0,0,1,74,87a9.45,9.45,0,0,1,1.92-2.72,7.56,7.56,0,0,1,1.25-1,15.74,15.74,0,0,1,1.4-.78,8.46,8.46,0,0,1,3.59-.78,8.82,8.82,0,0,1,3.64.78,9.16,9.16,0,0,1,3,2.1,9,9,0,0,1,2.29,7.91Z"/><path class="cls-4" d="M117,76.08a14.16,14.16,0,0,1,5.74,1.16,14.78,14.78,0,0,1,7.84,7.86,14.24,14.24,0,0,1,1.16,5.72v11.91a2.8,2.8,0,0,1-2.84,2.84,2.79,2.79,0,0,1-2-.82,2.69,2.69,0,0,1-.85-2V97.24h-9v0a1.89,1.89,0,0,1-.51,0A9,9,0,0,0,111.14,99a8.68,8.68,0,0,0-2,2,8.21,8.21,0,0,0-1.23,2.52.14.14,0,0,0,0,.09.18.18,0,0,1,0,.09,2.7,2.7,0,0,1-1,1.4,2.85,2.85,0,0,1-1.7.52,2.82,2.82,0,0,1-2.84-2.84V90.82a14,14,0,0,1,.92-5.08,15.12,15.12,0,0,1,3.3-5.22,15.34,15.34,0,0,1,4.74-3.25A13.87,13.87,0,0,1,117,76.08Zm9,15.43v-.69a8.67,8.67,0,0,0-1.15-4.39s0-.06,0-.07a.14.14,0,0,1,0-.07l-.37-.55c-.12-.18-.24-.35-.36-.5a8.83,8.83,0,0,0-3.07-2.52,8.94,8.94,0,0,0-4-.92,8.5,8.5,0,0,0-4.06,1,9.46,9.46,0,0,0-3.09,2.58,9.28,9.28,0,0,0-1.35,2.52,8.87,8.87,0,0,0-.48,2.93v3.39a14.47,14.47,0,0,1,8.47-2.7h9.53Z"/><path class="cls-4" d="M159.52,78.69a14.16,14.16,0,0,1,2.78,2.45,14.84,14.84,0,0,1,2,3,15.54,15.54,0,0,1,1.26,3.44,14,14,0,0,1,.39,3.64,15.47,15.47,0,0,1-.87,4.55,14.75,14.75,0,0,1-2.2,4.1,14.09,14.09,0,0,1-4.35,3.78,14.81,14.81,0,0,1-5.45,1.81,14.29,14.29,0,0,1-5.75-.43,15.71,15.71,0,0,1-5.15-2.55V110a2.74,2.74,0,0,1-.83,2,2.91,2.91,0,0,1-4.07,0,2.74,2.74,0,0,1-.83-2V90.64c0-.24,0-.48,0-.71s0-.46.07-.71a13.21,13.21,0,0,1,.9-3.64,15.52,15.52,0,0,1,1.79-3.28,15.1,15.1,0,0,1,5.66-4.76,14.83,14.83,0,0,1,14.59,1.15Zm.74,12.78a8.57,8.57,0,0,0-1.6-5.78,9,9,0,0,0-5-3.57,8.63,8.63,0,0,0-6,.41l.73-.34c.25-.11.49-.21.74-.3l-.9.37a8.16,8.16,0,0,0-.84.41,7.85,7.85,0,0,0-2.93,2.2,9.3,9.3,0,0,0-2.09,4.31,8.87,8.87,0,0,0,2.27,7.87,8.84,8.84,0,0,0,6.64,2.89,8.72,8.72,0,0,0,3.61-.78,14.28,14.28,0,0,0,1.39-.78,7.63,7.63,0,0,0,1.26-1,9.75,9.75,0,0,0,1.92-2.73A8.37,8.37,0,0,0,160.26,91.47Z"/><path class="cls-4" d="M193.56,76.92a2.84,2.84,0,0,1,.83,2,2.82,2.82,0,0,1-2.84,2.84h-7.33v20.93a2.69,2.69,0,0,1-.85,2,2.8,2.8,0,0,1-2,.82,2.82,2.82,0,0,1-2.84-2.84V81.8h-7.32A2.8,2.8,0,0,1,168.33,79a2.83,2.83,0,0,1,.82-2,2.72,2.72,0,0,1,2-.84h20.38A2.71,2.71,0,0,1,193.56,76.92Z"/><path class="cls-4" d="M56.93,139.8a8.58,8.58,0,0,1-.68,3.38A9.09,9.09,0,0,1,54.41,146a9,9,0,0,1-2.75,1.9,8.3,8.3,0,0,1-3.39.7H35.63a2.81,2.81,0,0,1-2-.84,2.85,2.85,0,0,1,0-4,2.81,2.81,0,0,1,2-.84H48.18a2.88,2.88,0,0,0,2.13-.9,2.94,2.94,0,0,0,.9-2.15,3,3,0,0,0-.9-2.19,2.88,2.88,0,0,0-2.13-.9h-6A8.8,8.8,0,0,1,36,134.15a8.84,8.84,0,0,1-1.88-2.8,8.9,8.9,0,0,1,0-6.87A8.69,8.69,0,0,1,36,121.69a9,9,0,0,1,2.77-1.9,8.11,8.11,0,0,1,3.41-.71H48a2.81,2.81,0,0,1,2,.84,2.76,2.76,0,0,1,.85,2,2.73,2.73,0,0,1-.86,2,2.79,2.79,0,0,1-2,.84H42.15a3,3,0,0,0-2.12.93,3.15,3.15,0,0,0,0,4.35,2.88,2.88,0,0,0,2.15.9h6a8.43,8.43,0,0,1,3.43.71,9.43,9.43,0,0,1,2.8,1.9,8.66,8.66,0,0,1,1.87,2.79A8.5,8.5,0,0,1,56.93,139.8Z"/><path class="cls-4" d="M84,121.69a14.39,14.39,0,0,1,2.77,2.45,14.84,14.84,0,0,1,2,3A15.54,15.54,0,0,1,90,130.6a14,14,0,0,1,.39,3.64,15.47,15.47,0,0,1-.87,4.55,15,15,0,0,1-2.19,4.1A14.24,14.24,0,0,1,83,146.67a14.75,14.75,0,0,1-5.45,1.81,14.3,14.3,0,0,1-5.75-.43,15.81,15.81,0,0,1-5.15-2.55V153a2.74,2.74,0,0,1-.83,2,2.9,2.9,0,0,1-4.06,0,2.7,2.7,0,0,1-.83-2V133.64c0-.24,0-.48,0-.71s0-.46.07-.71a13.19,13.19,0,0,1,.89-3.64,16,16,0,0,1,1.79-3.28,15,15,0,0,1,5.67-4.76A14.84,14.84,0,0,1,84,121.69Zm.74,12.78a8.62,8.62,0,0,0-1.6-5.78,8.92,8.92,0,0,0-2.22-2.24,9.17,9.17,0,0,0-2.81-1.33,8.66,8.66,0,0,0-6,.41l.74-.34c.24-.11.49-.21.73-.3l-.89.37c-.29.12-.57.26-.85.41a7.85,7.85,0,0,0-2.93,2.2,9.29,9.29,0,0,0-2.08,4.31,8.78,8.78,0,0,0,.34,4.76A9.2,9.2,0,0,0,69,140.05a9.33,9.33,0,0,0,3,2.16,9.17,9.17,0,0,0,3.61.73,8.72,8.72,0,0,0,3.61-.78,15.74,15.74,0,0,0,1.4-.78,8.08,8.08,0,0,0,1.26-1,9.75,9.75,0,0,0,1.92-2.73A8.56,8.56,0,0,0,84.69,134.47Z"/><path class="cls-4" d="M120.81,128.31a14.51,14.51,0,0,0-3.19-4.79,14.3,14.3,0,0,0-5.93-3.66,14.46,14.46,0,0,0-6.94-.51,15.86,15.86,0,0,0-5.17,1.93A13.55,13.55,0,0,0,95.45,125h0a7.58,7.58,0,0,0-.78,1.19,13.4,13.4,0,0,0-1.53,3.41,15.41,15.41,0,0,0-.62,3.66,14.76,14.76,0,0,0,.29,3.69A15.38,15.38,0,0,0,94,140.47a14.33,14.33,0,0,0,2.15,3.16,15.17,15.17,0,0,0,6.28,4.17A14.75,14.75,0,0,0,119,142.62a15.52,15.52,0,0,0,2.13-4.1,14.89,14.89,0,0,0-.32-10.21Zm-10.73-3a8.11,8.11,0,0,1,2.69,1.46,9.7,9.7,0,0,1,2.38,2.84,8.76,8.76,0,0,1,1,2.79,24,24,0,0,0-7.57-4.6A20.72,20.72,0,0,1,110.08,125.31Zm-7.75.87a9.09,9.09,0,0,1,5.64-1.34,22.14,22.14,0,0,0-1.39,2.38,17.21,17.21,0,0,0-5-.49A7,7,0,0,1,102.33,126.18Zm-3.21,3.52a7,7,0,0,1,.44-.75,15.74,15.74,0,0,1,6.16.1,34.21,34.21,0,0,0-1.68,5,18.31,18.31,0,0,0-5.93-.57A8.92,8.92,0,0,1,99.12,129.7Zm3.59,12.06a9.32,9.32,0,0,1-1.62-1.18,8.65,8.65,0,0,1-1.79-2.21l.13.27c-.08-.14-.15-.28-.22-.42l.09.15a4.16,4.16,0,0,0-.23-.42,8.3,8.3,0,0,1-.84-2.47,16.2,16.2,0,0,1,5.36.51A50.36,50.36,0,0,0,102.71,141.76Zm7.13.77a8.68,8.68,0,0,1-3.12.44,8.1,8.1,0,0,1-2.08-.36,51,51,0,0,1,.86-6,20.31,20.31,0,0,1,6.75,4.71A8.71,8.71,0,0,1,109.84,142.53Zm6.16-6.6a9.17,9.17,0,0,1-1.35,3.07,8,8,0,0,1-.87,1.06,22.28,22.28,0,0,0-7.84-5.38,31.76,31.76,0,0,1,1.73-5.1,23.19,23.19,0,0,1,8.48,5.57Q116.09,135.54,116,135.93Z"/><path class="cls-4" d="M140,120a2.66,2.66,0,0,1,.8,2,2.78,2.78,0,0,1-.85,2,2.75,2.75,0,0,1-2,.85h-.23a8.94,8.94,0,0,0-3.36.83,8.89,8.89,0,0,0-4.58,4.76,8.74,8.74,0,0,0-.67,3.43v11.91a2.69,2.69,0,0,1-.85,2,2.79,2.79,0,0,1-2,.82,2.8,2.8,0,0,1-2.84-2.84V133.82a14.21,14.21,0,0,1,1.12-5.65,15.19,15.19,0,0,1,3-4.63,14.75,14.75,0,0,1,4.54-3.18,14.25,14.25,0,0,1,5.59-1.28h.41A3,3,0,0,1,140,120Z"/><path class="cls-4" d="M168.14,119.92a2.84,2.84,0,0,1,.83,2,2.82,2.82,0,0,1-2.84,2.84H158.8v20.93a2.69,2.69,0,0,1-.85,2,2.8,2.8,0,0,1-2,.82,2.82,2.82,0,0,1-2.84-2.84V124.8h-7.33a2.8,2.8,0,0,1-2.83-2.84,2.83,2.83,0,0,1,.82-2,2.71,2.71,0,0,1,2-.84h20.39A2.71,2.71,0,0,1,168.14,119.92Z"/><path class="cls-4" d="M194.07,139.8a8.58,8.58,0,0,1-.68,3.38,9.09,9.09,0,0,1-1.84,2.79,9,9,0,0,1-2.76,1.9,8.25,8.25,0,0,1-3.38.7H172.77a2.79,2.79,0,0,1-2-.84,2.83,2.83,0,0,1,0-4,2.79,2.79,0,0,1,2-.84h12.55a2.91,2.91,0,0,0,2.13-.9,3,3,0,0,0,.89-2.15,3,3,0,0,0-.89-2.19,2.91,2.91,0,0,0-2.13-.9h-6a8.8,8.8,0,0,1-6.22-2.56,8.84,8.84,0,0,1-1.88-2.8,8.9,8.9,0,0,1,0-6.87,8.69,8.69,0,0,1,1.88-2.79,8.93,8.93,0,0,1,2.77-1.9,8.11,8.11,0,0,1,3.41-.71h5.82a2.77,2.77,0,0,1,2,.84,2.83,2.83,0,0,1,0,4,2.82,2.82,0,0,1-2,.84h-5.84a3.12,3.12,0,0,0-2.11,5.28,2.86,2.86,0,0,0,2.15.9h6a8.47,8.47,0,0,1,3.44.71,9.25,9.25,0,0,1,2.79,1.9,8.69,8.69,0,0,1,1.88,2.79A8.5,8.5,0,0,1,194.07,139.8Z"/></g></g></svg>